<svg width="44" height="64" viewBox="0 0 44 64" fill="none" xmlns="http://www.w3.org/2000/svg">
<g clip-path="url(#clip0_323_1120)">
<path d="M30.35 53.4245H14.74L32.33 32.9945C36.66 27.9545 39.05 24.6945 39.05 18.5945C39.04 7.27455 31.09 0.284546 19.95 0.284546C8.81001 0.284546 0.76001 7.18455 0.76001 18.6845H12.25C12.25 12.5845 16.14 10.6345 19.95 10.6345C24.81 10.6345 27.55 13.8245 27.55 18.5145C27.55 21.4245 26.58 23.3745 24.29 26.1145L0.76001 53.4245V63.7745H39.04V60.5645H30.35V53.4345V53.4245Z" fill="#AB6B0F"/>
<path d="M43.24 47.6646H34.04V56.8745H43.24V47.6646Z" fill="#006954"/>
</g>
<defs>
<clipPath id="clip0_323_1120">
<rect width="42.48" height="63.49" fill="white" transform="translate(0.76001 0.284546)"/>
</clipPath>
</defs>
</svg>
