<svg width="42" height="66" viewBox="0 0 42 66" fill="none" xmlns="http://www.w3.org/2000/svg">
<g clip-path="url(#clip0_323_1116)">
<path d="M32.895 32.2195C37.045 29.9995 40.145 26.1195 40.145 19.3195C40.145 17.3195 39.855 15.4095 39.315 13.6595H26.355C27.765 15.0095 28.645 17.0095 28.645 19.6695C28.645 24.0795 26.245 27.5295 20.685 27.5295H19.005V37.5195H20.685C26.345 37.5195 29.535 40.9595 29.535 46.1795C29.535 51.8395 25.995 54.9395 21.055 54.9395C16.545 54.9395 12.655 52.3695 12.475 46.7095H0.974976C1.15498 59.8895 10.795 65.2795 21.045 65.2795C31.815 65.2795 41.015 59.0895 41.015 46.5295C41.015 38.9295 37.395 34.5995 32.885 32.2195M20.965 1.26953C10.355 1.26953 1.94498 7.98953 1.68498 19.2295H13.175C13.435 14.4495 16.625 11.6195 20.965 11.6195C22.535 11.6195 24.025 12.0095 25.265 12.7995V1.66953C23.905 1.41953 22.455 1.27953 20.965 1.27953" fill="#AB6B0F"/>
<path d="M25.255 12.7996V13.6596H26.355C26.015 13.3296 25.645 13.0396 25.255 12.7996Z" fill="#006954"/>
<path d="M38.155 0.769531H28.955V9.97953H38.155V0.769531Z" fill="#006954"/>
</g>
<defs>
<clipPath id="clip0_323_1116">
<rect width="40.05" height="64.52" fill="white" transform="translate(0.974976 0.769531)"/>
</clipPath>
</defs>
</svg>
