<?xml version="1.0" encoding="utf-8"?>
<!-- Generator: Adobe Illustrator 27.4.1, SVG Export Plug-In . SVG Version: 6.00 Build 0)  -->
<svg version="1.1" id="Capa_1" xmlns="http://www.w3.org/2000/svg" xmlns:xlink="http://www.w3.org/1999/xlink" x="0px" y="0px"
	 viewBox="0 0 40 40" style="enable-background:new 0 0 40 40;" xml:space="preserve">
<style type="text/css">
	.st0{fill:#FFFFFF;}
</style>
<path class="st0" d="M21.5,7.1c-0.8-0.8-2.1-0.8-2.9,0L8.1,17.5c-0.8,0.8-0.8,2.1,0,2.9c0.8,0.8,2.1,0.8,2.9,0l8.9-8.9l8.9,8.9
	c0.8,0.8,2.1,0.8,2.9,0c0.8-0.8,0.8-2.1,0-2.9L21.5,7.1L21.5,7.1z M31.9,30L21.5,19.6c-0.8-0.8-2.1-0.8-2.9,0L8.1,30
	c-0.8,0.8-0.8,2.1,0,2.9c0.8,0.8,2.1,0.8,2.9,0L20,24l8.9,8.9c0.8,0.8,2.1,0.8,2.9,0C32.7,32.1,32.7,30.8,31.9,30L31.9,30z"/>
</svg>
