<svg width="24" height="26" viewBox="0 0 24 26" fill="none" xmlns="http://www.w3.org/2000/svg">
<path d="M22.7229 11.4484C22.9461 11.4484 23.1269 11.6264 23.1269 11.8496C23.1269 12.0728 22.9461 12.2508 22.7229 12.2508H20.2622C20.039 12.2508 19.8582 12.07 19.8582 11.8496C19.8582 11.6292 20.039 11.4484 20.2622 11.4484H22.7229Z" fill="black"/>
<path d="M20.5927 8.07522C20.6322 8.1741 20.6322 8.28145 20.5927 8.38316C20.5503 8.48204 20.474 8.55832 20.3751 8.6007L19.0388 9.15161C18.988 9.17421 18.9371 9.18269 18.8834 9.18269C18.7224 9.18269 18.5755 9.08663 18.5133 8.93407C18.4286 8.73066 18.5246 8.49617 18.7309 8.40859L20.0672 7.85768C20.1152 7.8379 20.1661 7.8266 20.2197 7.8266C20.3836 7.8266 20.5305 7.92266 20.5927 8.07522Z" fill="black"/>
<path d="M20.5927 15.0393C20.6322 15.1382 20.6322 15.2484 20.5927 15.3472C20.5305 15.497 20.3836 15.5959 20.2198 15.5959C20.1661 15.5959 20.1152 15.5846 20.0672 15.5648L18.7309 15.011C18.632 14.9715 18.5529 14.8924 18.5134 14.7935C18.471 14.6946 18.471 14.5844 18.5134 14.4856C18.5755 14.3358 18.7224 14.2369 18.8863 14.2369C18.9371 14.2369 18.988 14.2482 19.0388 14.268L20.3751 14.8218C20.474 14.8641 20.5503 14.9404 20.5927 15.0393Z" fill="black"/>
<path d="M19.813 3.84868C19.9684 4.00689 19.9684 4.26116 19.813 4.41654L18.0698 6.15968C17.9936 6.23596 17.8947 6.27834 17.7873 6.27834C17.68 6.27834 17.5783 6.23596 17.502 6.15968C17.3466 6.00147 17.3466 5.7472 17.502 5.59182L19.2451 3.84868C19.3186 3.7724 19.4203 3.73285 19.5276 3.73285C19.635 3.73285 19.7367 3.7724 19.813 3.84868Z" fill="black"/>
<path d="M19.813 19.2799C19.9684 19.4353 19.9684 19.6923 19.813 19.8477C19.7367 19.924 19.635 19.9664 19.5276 19.9664C19.4203 19.9664 19.3186 19.924 19.2451 19.8477L17.502 18.1074C17.3466 17.9492 17.3466 17.6949 17.502 17.5396C17.5783 17.4633 17.68 17.4209 17.7873 17.4209C17.8947 17.4209 17.9964 17.4633 18.0698 17.5396L19.813 19.2799Z" fill="black"/>
<path d="M17.8269 11.7734C17.8269 13.008 17.4539 14.1946 16.7505 15.206C15.7023 16.7062 14.9762 18.3617 14.592 20.1275C14.5525 20.3139 14.3914 20.4439 14.1993 20.4439H9.27785C9.08574 20.4439 8.92188 20.3083 8.88233 20.119C8.53483 18.3307 7.83701 16.6412 6.80582 15.0987C6.01194 13.9121 5.67857 12.5249 5.83678 11.0869C6.14473 8.32952 8.36814 6.10328 11.1255 5.79816C11.36 5.77273 11.5917 5.75861 11.8233 5.75861C13.3207 5.75861 14.7022 6.28974 15.8238 7.29268C17.0951 8.43123 17.8269 10.0642 17.8269 11.7734ZM16.0894 14.7455C16.6996 13.8697 17.0217 12.8442 17.0217 11.7734C17.0217 10.293 16.3888 8.87761 15.287 7.89162C14.318 7.02146 13.1173 6.56378 11.8205 6.56378C11.6199 6.56378 11.4165 6.57508 11.2159 6.59768C8.82865 6.86043 6.90187 8.7872 6.63631 11.1773C6.49787 12.4232 6.78604 13.6239 7.47256 14.6523C8.50658 16.2005 9.227 17.8899 9.61405 19.6755L13.9168 19.6415C14.2926 17.9125 15.0384 16.2513 16.0894 14.7455Z" fill="black"/>
<path d="M15.6656 3.14807C15.708 3.24695 15.708 3.35714 15.6656 3.45602L15.1147 4.79233C15.0497 4.94206 14.9056 5.04095 14.7418 5.04095C14.6881 5.04095 14.6372 5.02964 14.5892 5.00987C14.383 4.92511 14.2869 4.69062 14.3717 4.48438L14.9226 3.14807C14.9875 2.99834 15.1316 2.90228 15.2955 2.90228C15.3492 2.90228 15.4 2.91076 15.4481 2.93053C15.5469 2.97291 15.626 3.04919 15.6656 3.14807Z" fill="black"/>
<path d="M12.2132 0.938791V3.39952C12.2132 3.62271 12.0353 3.80353 11.8121 3.80353C11.5889 3.80353 11.4109 3.62271 11.4109 3.39952V0.938791C11.4109 0.715602 11.5917 0.53479 11.8121 0.53479C12.0324 0.53479 12.2132 0.715602 12.2132 0.938791Z" fill="black"/>
<path d="M9.25526 4.48438C9.29481 4.58327 9.29481 4.69345 9.25526 4.79233C9.21288 4.89121 9.1366 4.96749 9.03772 5.00987C8.98969 5.02964 8.93601 5.04095 8.88233 5.04095C8.7213 5.04095 8.57439 4.94206 8.51223 4.79233L7.9585 3.45602C7.91894 3.35714 7.91894 3.24695 7.9585 3.14807C8.00088 3.04919 8.07716 2.97291 8.17604 2.93053C8.22689 2.91076 8.27774 2.90228 8.33142 2.90228C8.49246 2.90228 8.63937 2.99834 8.70152 3.14807L9.25526 4.48438Z" fill="black"/>
<path d="M6.12208 5.59182C6.28029 5.7472 6.28029 6.00147 6.12208 6.15968C6.04863 6.23596 5.94692 6.27834 5.83956 6.27834C5.73221 6.27834 5.6305 6.23596 5.55422 6.15968L3.81391 4.41654C3.6557 4.26116 3.6557 4.00689 3.81391 3.84868C3.89019 3.7724 3.98907 3.73285 4.09643 3.73285C4.20378 3.73285 4.30549 3.7724 4.38177 3.84868L6.12208 5.59182Z" fill="black"/>
<path d="M6.12208 17.5396C6.28029 17.6949 6.28029 17.9492 6.12208 18.1074L4.38177 19.8477C4.30549 19.924 4.20378 19.9664 4.09643 19.9664C3.98907 19.9664 3.89019 19.924 3.81391 19.8477C3.6557 19.6923 3.6557 19.4353 3.81391 19.2799L5.55422 17.5396C5.6305 17.4633 5.73221 17.4209 5.83956 17.4209C5.94692 17.4209 6.04863 17.4633 6.12208 17.5396Z" fill="black"/>
<path d="M4.89596 8.40859C5.09937 8.49617 5.19825 8.73066 5.1135 8.93407C5.05134 9.08663 4.90443 9.18269 4.74057 9.18269C4.68972 9.18269 4.63604 9.17421 4.58801 9.15161L3.2517 8.6007C3.15282 8.55832 3.07372 8.48204 3.03416 8.38316C2.99179 8.28145 2.99179 8.1741 3.03416 8.07522C3.09632 7.92266 3.2404 7.8266 3.40426 7.8266C3.45794 7.8266 3.50879 7.8379 3.55965 7.85768L4.89596 8.40859Z" fill="black"/>
<path d="M5.1135 14.4856C5.15305 14.5844 5.15305 14.6946 5.1135 14.7935C5.07112 14.8924 4.99484 14.9715 4.89596 15.011L3.55965 15.5648C3.50879 15.5846 3.45794 15.5959 3.40426 15.5959C3.24323 15.5959 3.09632 15.497 3.03416 15.3472C2.99179 15.2484 2.99179 15.1382 3.03416 15.0393C3.07372 14.9404 3.15282 14.8641 3.2517 14.8218L4.58801 14.268C4.63604 14.2482 4.6869 14.2369 4.74057 14.2369C4.90443 14.2369 5.05134 14.3358 5.1135 14.4856Z" fill="black"/>
<path d="M3.36473 11.4484C3.58792 11.4484 3.76591 11.6264 3.76591 11.8496C3.76591 12.0728 3.58792 12.2508 3.36473 12.2508H0.901176C0.680812 12.2508 0.5 12.07 0.5 11.8496C0.5 11.6292 0.680812 11.4484 0.901176 11.4484H3.36473Z" fill="black"/>
<path d="M12.9195 24.6561H10.4588C10.2154 24.6561 10.0181 24.8528 10.0181 25.0954C10.0181 25.3381 10.2154 25.5348 10.4588 25.5348H12.9195C13.1629 25.5348 13.3603 25.3381 13.3603 25.0954C13.3603 24.8528 13.1629 24.6561 12.9195 24.6561Z" fill="black"/>
<path d="M13.8643 22.9982H9.62124C9.22133 22.9982 8.99725 23.2217 8.99725 23.4974C8.99725 23.773 9.22133 23.9965 9.62124 23.9965H13.8643C14.2642 23.9965 14.4883 23.773 14.4883 23.4974C14.4883 23.2217 14.2642 22.9982 13.8643 22.9982Z" fill="black"/>
<path d="M13.8643 21.251H9.62124C9.22133 21.251 8.99725 21.4745 8.99725 21.7502C8.99725 22.0259 9.22133 22.2494 9.62124 22.2494H13.8643C14.2642 22.2494 14.4883 22.0259 14.4883 21.7502C14.4883 21.4745 14.2642 21.251 13.8643 21.251Z" fill="black"/>
</svg>
