<svg width="26" height="26" viewBox="0 0 26 26" fill="none" xmlns="http://www.w3.org/2000/svg">
<path d="M25.3346 12.1207C25.4435 12.2296 25.5036 12.3757 25.5036 12.5332C25.5036 12.6908 25.4435 12.834 25.3346 12.9457L19.3732 18.9043C19.4506 18.8298 19.4935 18.7238 19.4935 18.6178C19.4935 18.5118 19.4506 18.403 19.3732 18.3285L19.1183 18.0735L24.627 12.4989L19.0839 7.02447L19.3732 6.738C19.4506 6.66066 19.4935 6.55753 19.4935 6.44867C19.4935 6.34554 19.4563 6.24814 19.3847 6.17366L25.3346 12.1207Z" fill="black"/>
<path d="M19.3847 6.17364C19.4563 6.24812 19.4936 6.34552 19.4936 6.44865C19.4936 6.55751 19.4506 6.66064 19.3733 6.73798L19.0839 7.02445L19.0524 6.99294L17.1703 8.94092C17.093 9.01826 16.9898 9.05837 16.881 9.05837C16.7721 9.05837 16.6719 9.01826 16.5945 8.94092C16.4341 8.7805 16.4341 8.52268 16.5945 8.36512L18.7975 6.16219C18.8748 6.08484 18.9779 6.04187 19.0868 6.04187C19.1957 6.04187 19.2959 6.08484 19.3733 6.16219L19.3847 6.17364Z" fill="black"/>
<path d="M19.3733 18.3285C19.4506 18.403 19.4936 18.509 19.4936 18.6179C19.4936 18.7267 19.4506 18.8299 19.3733 18.9043C19.2959 18.9817 19.1957 19.0247 19.0868 19.0247C18.9779 19.0247 18.8719 18.9817 18.7975 18.9043L18.511 18.6179L18.5425 18.5835L16.5945 16.7014C16.4341 16.5438 16.4341 16.2832 16.5945 16.1256C16.6719 16.0483 16.775 16.0053 16.8839 16.0053C16.9927 16.0053 17.093 16.0483 17.1703 16.1256L19.1183 18.0736L19.3733 18.3285Z" fill="black"/>
<path d="M19.3732 18.9044L13.4118 24.8658C13.3029 24.9746 13.1568 25.0348 13.0021 25.0348C12.8475 25.0348 12.6985 24.9746 12.5896 24.8658L6.63111 18.9044C6.70559 18.9817 6.80872 19.0247 6.91758 19.0247C7.02644 19.0247 7.12956 18.9817 7.20691 18.9044L7.46187 18.6494L13.0337 24.1582L18.5109 18.6179L18.7974 18.9044C18.8719 18.9817 18.9779 19.0247 19.0867 19.0247C19.1956 19.0247 19.2958 18.9817 19.3732 18.9044Z" fill="black"/>
<path d="M18.5425 6.41437L12.9679 0.908472L7.49061 6.44589L7.207 6.16228C7.12966 6.08494 7.02653 6.04197 6.91767 6.04197C6.80881 6.04197 6.70569 6.08494 6.63121 6.16228L6.60256 6.19093C6.60256 6.19093 6.61975 6.16801 6.62834 6.15942L12.5897 0.200898C12.6957 0.0949048 12.8447 0.0347462 13.0022 0.0347462C13.1598 0.0347462 13.3088 0.0949048 13.4119 0.200898L19.3733 6.15942C19.2959 6.08494 19.1928 6.04197 19.0868 6.04197C18.9808 6.04197 18.8748 6.08494 18.7975 6.16228L16.5945 8.36522L18.5425 6.41437Z" fill="black"/>
<path d="M16.0474 17.3774C16.3023 17.1081 16.4255 16.7385 16.3854 16.3661C16.3682 16.1942 16.4599 16.0281 16.6174 15.9565C16.6719 15.9278 16.7292 15.9164 16.7922 15.9164C16.901 15.9164 17.0013 15.9565 17.0786 16.0338L17.1703 16.1255C17.093 16.0481 16.9898 16.0052 16.8838 16.0052C16.7779 16.0052 16.6719 16.0481 16.5945 16.1255C16.4341 16.2831 16.4341 16.5437 16.5945 16.7013L18.5425 18.5834L18.511 18.6178L17.0357 17.1425C17.0214 17.4261 16.8552 17.7068 16.6404 17.9388C16.2565 18.3428 15.7322 18.5719 15.1622 18.5834H15.1593C14.5606 18.5834 14.0478 18.38 13.6611 18.0047C13.2543 17.6123 13.028 17.0852 13.0251 16.518C13.0194 15.9536 13.2371 15.4236 13.6382 15.0226C13.8588 14.7991 14.128 14.6301 14.4202 14.527L14.89 14.9968C14.9674 15.0742 15.0705 15.1171 15.1794 15.1171C15.2882 15.1171 15.3885 15.0742 15.4658 14.9968C15.6205 14.8421 15.6263 14.5958 15.4773 14.4353L15.5833 14.5385C15.7065 14.6616 15.738 14.8478 15.6635 15.0025C15.5947 15.1429 15.4515 15.2346 15.294 15.2346C15.2052 15.226 15.1593 15.226 15.1135 15.226C14.7726 15.226 14.4546 15.3578 14.214 15.5984C13.9676 15.8419 13.8358 16.1656 13.8387 16.5122C13.8416 16.856 13.9791 17.1797 14.2283 17.4203C14.4603 17.6466 14.7754 17.7698 15.1077 17.7698C15.4945 17.7612 15.8153 17.6237 16.0474 17.3774Z" fill="black"/>
<path d="M16.4226 8.91812C16.3481 8.76343 16.3796 8.57723 16.5028 8.45404L16.5945 8.36524C16.434 8.5228 16.434 8.78062 16.5945 8.94104C16.6718 9.01838 16.7749 9.05849 16.8809 9.05849C16.9869 9.05849 17.0929 9.01838 17.1703 8.94104L19.0523 6.99306L19.0839 7.02457L17.6114 8.49701C17.895 8.5142 18.1758 8.67749 18.4049 8.8952C18.8089 9.2762 19.0409 9.80044 19.0523 10.3705C19.0667 10.9406 18.8604 11.4734 18.4737 11.8716C18.0812 12.2784 17.5541 12.5047 16.9869 12.5104C16.4083 12.5104 15.8869 12.2927 15.4916 11.8974C15.271 11.6739 15.0991 11.4075 14.996 11.1153L15.4658 10.6455C15.6262 10.4851 15.6262 10.2273 15.4658 10.0697C15.3884 9.99237 15.2853 9.9494 15.1793 9.9494C15.0733 9.9494 14.9731 9.98951 14.8957 10.0669L15.0074 9.9494C15.0848 9.87206 15.185 9.83195 15.2939 9.83195C15.3569 9.83195 15.4142 9.84341 15.4715 9.87206C15.6262 9.94367 15.7179 10.1098 15.7007 10.2817C15.6577 10.6684 15.7923 11.0466 16.0674 11.3216C16.308 11.5622 16.6288 11.6969 16.9697 11.6969C17.3249 11.6911 17.6487 11.5536 17.8893 11.3044C18.1213 11.0638 18.2474 10.7401 18.2388 10.3877C18.2302 10.0382 18.0898 9.72023 17.8463 9.48819C17.6085 9.26475 17.2992 9.14156 16.9697 9.14156C16.9268 9.14156 16.8294 9.14729 16.8265 9.14729C16.6317 9.14729 16.4885 9.05849 16.4226 8.91812Z" fill="black"/>
<path d="M15.4658 14.4211C15.4658 14.4211 15.4744 14.4297 15.4773 14.4354L13.5436 12.5648L13.578 12.5333L15.4658 14.4211Z" fill="black"/>
<path d="M14.996 11.1153L13.578 12.5333L13.5694 12.5247L14.9702 11.0408C14.9788 11.0666 14.9874 11.0895 14.996 11.1153Z" fill="black"/>
<path d="M14.89 10.0698L13.0337 11.9891L13.0022 11.9576L14.89 10.0698Z" fill="black"/>
<path d="M14.4919 14.5043C14.4689 14.5129 14.4432 14.5186 14.4202 14.5272L13.0022 13.1092L13.0079 13.1006L14.4919 14.5043Z" fill="black"/>
<path d="M13.2887 12.8197L13.5694 12.5246L13.578 12.5332L13.5436 12.5647L15.4773 14.4353C15.6262 14.5958 15.6205 14.8421 15.4658 14.9968C15.3885 15.0741 15.2854 15.1171 15.1794 15.1171C15.0734 15.1171 14.9674 15.0741 14.89 14.9968L14.4202 14.527C14.4431 14.5184 14.4689 14.5127 14.4918 14.5041L13.0079 13.1004L13.2887 12.8197Z" fill="black"/>
<path d="M13.5694 12.5247L13.2887 12.8198C13.366 12.7453 13.409 12.6422 13.409 12.5333C13.409 12.4245 13.366 12.3213 13.2887 12.244L13.5694 12.5247Z" fill="black"/>
<path d="M13.2886 12.8197L13.0078 13.1005L12.7128 12.8197C12.7873 12.8971 12.8933 12.9401 13.0021 12.9401C13.111 12.9401 13.2112 12.8971 13.2886 12.8197Z" fill="black"/>
<path d="M13.2886 12.2439C13.217 12.1723 13.111 12.1293 13.0021 12.1293C12.8933 12.1293 12.7873 12.1723 12.7128 12.2439L12.9935 11.9632L13.2886 12.2439Z" fill="black"/>
<path d="M13.2887 12.2439C13.3661 12.3212 13.409 12.4244 13.409 12.5332C13.409 12.6421 13.3661 12.7452 13.2887 12.8197C13.2114 12.897 13.1111 12.94 13.0023 12.94C12.8934 12.94 12.7874 12.897 12.7129 12.8197C12.6356 12.7452 12.5955 12.6421 12.5955 12.5332C12.5955 12.4244 12.6356 12.3212 12.7129 12.2439C12.7874 12.1723 12.8905 12.1293 13.0023 12.1293C13.114 12.1293 13.2171 12.1723 13.2887 12.2439Z" fill="black"/>
<path d="M13.0337 11.9891L14.89 10.0698C14.89 10.0698 14.8928 10.0669 14.8957 10.0669C14.973 9.98958 15.0733 9.94947 15.1793 9.94947C15.2853 9.94947 15.3884 9.99244 15.4658 10.0698C15.6262 10.2273 15.6262 10.4852 15.4658 10.6456L14.996 11.1154C14.9874 11.0896 14.9788 11.0667 14.9702 11.0409L13.5693 12.5248L13.2886 12.2441L12.9935 11.9633L13.0021 11.9576L13.0337 11.9891Z" fill="black"/>
<path d="M13.0022 11.9575L12.9936 11.9632L11.5097 10.5624C11.5355 10.5538 11.5584 10.5452 11.5842 10.5395L13.0022 11.9575Z" fill="black"/>
<path d="M13.0022 13.109L11.1115 14.9968L12.9678 13.0746L13.0022 13.109Z" fill="black"/>
<path d="M12.9793 8.5457C12.985 9.11291 12.7673 9.64574 12.3662 10.0439C12.1456 10.2645 11.8764 10.4335 11.5842 10.5395L11.2662 10.2215C11.1888 10.1442 11.0857 10.1012 10.9797 10.1012C10.8737 10.1012 10.7677 10.1442 10.6904 10.2215C10.613 10.2989 10.5701 10.402 10.5701 10.5109C10.5701 10.6025 10.5987 10.6856 10.6589 10.7572L10.4211 10.5281C10.2979 10.4049 10.2664 10.2187 10.3409 10.064C10.4068 9.92361 10.5529 9.83194 10.7076 9.83194C10.7964 9.83767 10.8451 9.84054 10.8909 9.84054C11.2289 9.84054 11.5498 9.70876 11.7904 9.46813C12.031 9.2275 12.1686 8.89806 12.1657 8.5543C12.1628 8.20768 12.0225 7.88683 11.7761 7.6462C11.5383 7.41702 11.2318 7.29671 10.888 7.29671C10.5099 7.3053 10.1891 7.44281 9.95703 7.68917C9.70207 7.95845 9.57602 8.32799 9.61613 8.7004C9.63618 8.87228 9.54451 9.03556 9.38696 9.11004C9.33253 9.13869 9.27237 9.15015 9.21221 9.15015C9.10335 9.15015 9.00023 9.11005 8.92288 9.0327L8.6536 8.76055C8.73095 8.8379 8.83408 8.88087 8.94293 8.88087C9.05179 8.88087 9.15206 8.8379 9.2294 8.76055C9.30675 8.68321 9.34972 8.58294 9.34972 8.47409C9.34972 8.36523 9.30675 8.2621 9.2294 8.18476L8.96012 7.92694L8.96585 7.92121C8.98304 7.64047 9.14632 7.35973 9.36404 7.12769C9.74504 6.72377 10.2693 6.4946 10.8393 6.48028H10.8422C11.4495 6.48028 11.9508 6.68081 12.3404 7.05894C12.7472 7.45427 12.9735 7.98136 12.9793 8.5457Z" fill="black"/>
<path d="M12.9678 13.0748L11.1115 14.997L11.1058 15.0028C11.0313 15.0773 10.931 15.1174 10.825 15.1174C10.719 15.1174 10.6131 15.0744 10.5357 14.997C10.4584 14.9226 10.4183 14.8194 10.4183 14.7106C10.4183 14.6017 10.4612 14.4986 10.5357 14.4212L11.0055 13.9514C11.0141 13.9772 11.0227 14.0001 11.0313 14.0259L12.4321 12.5391L12.7129 12.8199L13.0079 13.1006L13.0022 13.1092L12.9678 13.0748Z" fill="black"/>
<path d="M12.5954 12.5333C12.5954 12.6422 12.6355 12.7453 12.7128 12.8198L12.4321 12.5391L12.7128 12.244C12.6355 12.3213 12.5954 12.4245 12.5954 12.5333Z" fill="black"/>
<path d="M12.7128 12.2439L12.4321 12.5389L12.4263 12.5332L12.4578 12.5017L10.6588 10.7571C10.5987 10.6855 10.57 10.6024 10.57 10.5107C10.57 10.4019 10.613 10.2988 10.6903 10.2214C10.7677 10.1441 10.8708 10.1011 10.9797 10.1011C11.0885 10.1011 11.1888 10.1441 11.2661 10.2214L11.5841 10.5394C11.5583 10.5451 11.5354 10.5537 11.5096 10.5623L12.9935 11.9631L12.7128 12.2439Z" fill="black"/>
<path d="M12.4579 12.5017L12.4264 12.5332L10.6904 10.7972C10.6904 10.7972 10.6646 10.7715 10.6589 10.7571L12.4579 12.5017Z" fill="black"/>
<path d="M12.4321 12.539L11.0312 14.0258C11.0226 14 11.0141 13.9771 11.0055 13.9513L12.4263 12.5333L12.4321 12.539Z" fill="black"/>
<path d="M8.39003 16.5667C8.10929 16.5524 7.82855 16.3863 7.59651 16.1714C7.19259 15.7875 6.96342 15.2633 6.9491 14.6932C6.93764 14.126 7.14103 13.5932 7.52776 13.1922C7.92022 12.7854 8.45019 12.5591 9.01453 12.5562C9.59033 12.5562 10.1174 12.7739 10.5127 13.1692C10.7333 13.3898 10.9023 13.6591 11.0055 13.9513L10.5357 14.4211C10.4612 14.4984 10.4182 14.6016 10.4182 14.7104C10.4182 14.8193 10.4583 14.9224 10.5357 14.9969C10.613 15.0742 10.7161 15.1172 10.825 15.1172C10.9339 15.1172 11.0313 15.0771 11.1057 15.0026L10.9969 15.1144C10.9195 15.1917 10.8164 15.2347 10.7075 15.2347C10.6445 15.2347 10.5872 15.2203 10.5328 15.1946C10.3752 15.1201 10.2836 14.9539 10.3036 14.7849C10.3437 14.3982 10.2091 14.0172 9.93695 13.745C9.69059 13.4987 9.37834 13.3698 9.03458 13.3698C8.67649 13.3698 8.35565 13.513 8.11502 13.7594C7.88011 14 7.75694 14.3266 7.76553 14.6761C7.77126 15.0255 7.91163 15.3464 8.15513 15.5784C8.39289 15.8019 8.70514 15.9251 9.03171 15.9251C9.07755 15.9251 9.17495 15.9165 9.17495 15.9165C9.37261 15.9165 9.51298 16.0081 9.57886 16.1485C9.65335 16.3032 9.62183 16.4894 9.49865 16.6097L9.42131 16.6871C9.56741 16.5295 9.56168 16.2774 9.40985 16.1256C9.3325 16.0482 9.22938 16.0053 9.12052 16.0053C9.01166 16.0053 8.9114 16.0482 8.83405 16.1256L6.95196 18.0736L6.91758 18.0392L8.39003 16.5667Z" fill="black"/>
<path d="M9.40988 16.1256C9.5617 16.2774 9.56744 16.5295 9.42134 16.6871C9.41847 16.6928 9.41561 16.6957 9.40988 16.7014L7.4619 18.6494L7.20694 18.9043C7.1296 18.9817 7.02647 19.0247 6.91761 19.0247C6.80876 19.0247 6.70563 18.9817 6.63115 18.9043C6.47072 18.7468 6.47072 18.4861 6.63115 18.3285L6.91761 18.0392L6.95199 18.0736L8.83408 16.1256C8.91143 16.0483 9.01169 16.0053 9.12055 16.0053C9.2294 16.0053 9.33253 16.0483 9.40988 16.1256Z" fill="black"/>
<path d="M9.22941 8.18464C9.30675 8.26199 9.34972 8.36512 9.34972 8.47397C9.34972 8.58283 9.30675 8.6831 9.22941 8.76044C9.15206 8.83779 9.0518 8.88076 8.94294 8.88076C8.83408 8.88076 8.73095 8.83779 8.6536 8.76044L6.8861 6.99294L6.62828 6.73798C6.55094 6.66064 6.51083 6.55751 6.51083 6.44865C6.51083 6.35412 6.54234 6.26245 6.6025 6.19083L6.63115 6.16219C6.70563 6.08484 6.80875 6.04187 6.91761 6.04187C7.02647 6.04187 7.1296 6.08484 7.20694 6.16219L7.49055 6.44579L7.45904 6.48016L8.96013 7.92683L9.22941 8.18464Z" fill="black"/>
<path d="M8.96587 7.92114L8.96014 7.92687L7.45905 6.48021L7.49057 6.44584L8.96587 7.92114Z" fill="black"/>
<path d="M6.63116 18.3286C6.47074 18.4862 6.47074 18.7469 6.63116 18.9044L0.669776 12.943C0.443467 12.7167 0.443467 12.3501 0.669776 12.1209L6.60251 6.19101C6.54235 6.26263 6.51084 6.3543 6.51084 6.44883C6.51084 6.55769 6.55095 6.66082 6.6283 6.73816L6.88612 6.99312L1.37735 12.5678L6.91763 18.0393L6.63116 18.3286Z" fill="black"/>
</svg>
