<svg width="27" height="28" viewBox="0 0 27 28" fill="none" xmlns="http://www.w3.org/2000/svg">
<path d="M8.23128 18.6557C7.31108 18.6557 6.56324 17.9078 6.56324 16.9876C6.56324 16.7235 6.62441 16.4705 6.73839 16.2426C6.08229 16.0174 5.60968 15.3946 5.60968 14.6635C5.60968 14.0825 5.91827 13.5348 6.41868 13.2373C6.5688 13.1484 6.76341 13.1956 6.85515 13.3457C6.94689 13.4959 6.89685 13.6905 6.74673 13.7822C6.43814 13.9685 6.24632 14.3049 6.24632 14.6635C6.24632 15.2306 6.70503 15.6921 7.26938 15.6977C7.2805 15.6977 7.28884 15.6977 7.29718 15.6977C7.42784 15.6977 7.54461 15.7755 7.59187 15.8978C7.63913 16.0174 7.61133 16.1564 7.51681 16.2453C7.31108 16.4427 7.19988 16.7068 7.19988 16.9904C7.19988 17.5603 7.66415 18.0246 8.23406 18.0246C8.32025 18.0246 8.40921 18.0135 8.49261 17.9912C8.66219 17.9467 8.83734 18.0468 8.88182 18.2164C8.9263 18.386 8.82622 18.5611 8.65663 18.6056C8.51763 18.6418 8.37585 18.6612 8.23128 18.6612V18.6557Z" fill="black"/>
<path d="M6.87464 10.8021C6.77456 10.8021 6.67725 10.7548 6.61331 10.6686C6.36867 10.3239 6.24078 9.91522 6.24078 9.48987C6.24078 8.35838 7.16099 7.4354 8.29525 7.4354C8.4148 7.4354 8.53156 7.44652 8.64832 7.46598C8.73728 6.07872 9.89379 4.97504 11.3033 4.97504C11.901 4.97504 12.4626 5.16686 12.9324 5.53383C13.0714 5.64225 13.0964 5.84242 12.988 5.98142C12.8796 6.12042 12.6794 6.14544 12.5404 6.03702C12.1846 5.75902 11.7564 5.61445 11.3033 5.61445C10.1857 5.61445 9.2794 6.52353 9.2794 7.63834C9.2794 7.70784 9.28496 7.7829 9.2933 7.86075C9.30442 7.97195 9.25716 8.08315 9.16541 8.14987C9.07367 8.2166 8.95413 8.2305 8.85127 8.18601C8.67612 8.11095 8.48986 8.07203 8.29525 8.07203C7.51405 8.07203 6.87742 8.70867 6.87742 9.48987C6.87742 9.78177 6.96638 10.0626 7.13319 10.3016C7.23327 10.4462 7.19991 10.6436 7.05534 10.7437C6.99974 10.7826 6.9358 10.8021 6.87186 10.8021H6.87464Z" fill="black"/>
<path d="M10.8307 20.3097C10.7028 20.3097 10.5721 20.3014 10.4443 20.2819C9.4073 20.1318 8.55382 19.384 8.26747 18.3776C8.16461 18.0162 8.13959 17.6409 8.19241 17.2628C8.21743 17.0876 8.37867 16.9681 8.55382 16.9931C8.72896 17.0181 8.84851 17.1794 8.82348 17.3545C8.78178 17.6437 8.80124 17.9272 8.87909 18.2024C9.09593 18.967 9.74647 19.5369 10.536 19.6509C11.2922 19.7593 12.0372 19.4424 12.4793 18.8196C12.5821 18.6778 12.7795 18.6445 12.9241 18.7446C13.0659 18.8474 13.0992 19.0448 12.9991 19.1894C12.4932 19.8983 11.6897 20.307 10.8335 20.307L10.8307 20.3097Z" fill="black"/>
<path d="M8.50379 14.8302C7.03591 14.8302 5.84326 13.6348 5.84326 12.1697C5.84326 10.7046 7.03869 9.50916 8.50379 9.50916C8.67893 9.50916 8.82071 9.65094 8.82071 9.82608C8.82071 10.0012 8.67893 10.143 8.50379 10.143C7.3862 10.143 6.47712 11.0521 6.47712 12.1697C6.47712 13.2873 7.3862 14.1963 8.50379 14.1963C8.67893 14.1963 8.82071 14.3381 8.82071 14.5133C8.82071 14.6884 8.67893 14.8302 8.50379 14.8302Z" fill="black"/>
<path d="M11.2866 18.6556C10.1857 18.6556 9.29053 17.7604 9.29053 16.6595C9.29053 16.2147 9.43231 15.7949 9.70476 15.4418C9.81318 15.3028 10.0106 15.2778 10.1496 15.3834C10.2886 15.4919 10.3136 15.6893 10.2079 15.8283C10.0245 16.0673 9.92716 16.3537 9.92716 16.6567C9.92716 17.4046 10.536 18.0162 11.2866 18.0162C11.7676 18.0162 12.2179 17.7576 12.4626 17.3406C12.5515 17.1877 12.7462 17.1377 12.8963 17.2266C13.0492 17.3156 13.0992 17.5102 13.0103 17.6603C12.6544 18.2719 11.9928 18.6528 11.2838 18.6528L11.2866 18.6556Z" fill="black"/>
<path d="M11.3282 9.89015C11.2587 9.89015 11.1865 9.86791 11.1281 9.81787C10.9919 9.70666 10.9724 9.5065 11.0808 9.37028C11.2393 9.17567 11.3255 8.93936 11.3338 8.68638C11.3421 8.38613 11.2337 8.097 11.0252 7.87738C10.8167 7.65775 10.5387 7.53265 10.2357 7.52431C9.82979 7.51597 9.45448 7.71891 9.2432 8.06086C9.15145 8.21099 8.95407 8.25547 8.80394 8.16373C8.65382 8.07198 8.60934 7.8746 8.70108 7.72447C9.03191 7.1907 9.62962 6.86821 10.2524 6.88767C10.725 6.90157 11.1614 7.09618 11.4867 7.43813C11.812 7.78008 11.9816 8.23045 11.9704 8.70028C11.9593 9.09505 11.8231 9.46202 11.5757 9.76782C11.5117 9.84567 11.42 9.88459 11.3282 9.88459V9.89015Z" fill="black"/>
<path d="M11.3701 16.6208C11.3033 16.6208 11.2366 16.5986 11.1782 16.5569C11.0392 16.4512 11.0086 16.2511 11.1171 16.1121C11.2755 15.9008 11.3395 15.6339 11.2894 15.3753C11.1949 14.8666 10.7028 14.5302 10.1969 14.6247C10.0551 14.6497 9.91608 14.5802 9.85214 14.4496C9.79098 14.3217 9.82156 14.166 9.9272 14.0715C10.2691 13.7712 10.4304 13.307 10.347 12.8622C10.2163 12.1588 9.54077 11.6945 8.83741 11.8252C8.41484 11.903 8.059 12.1866 7.88663 12.5814C7.81713 12.7426 7.62808 12.8149 7.46684 12.7454C7.3056 12.6759 7.23332 12.4869 7.30282 12.3256C7.55858 11.7362 8.08958 11.3137 8.72065 11.1969C9.2294 11.1024 9.74094 11.2108 10.1663 11.5027C10.5916 11.7946 10.878 12.2339 10.9725 12.7426C11.0531 13.1847 10.9781 13.635 10.7668 14.0215C11.3367 14.1716 11.7982 14.6386 11.9149 15.2558C11.9956 15.6895 11.8899 16.1399 11.623 16.4902C11.5619 16.5736 11.4646 16.618 11.3701 16.618V16.6208Z" fill="black"/>
<path d="M11.9178 11.8056C11.1422 11.8056 10.3916 11.422 9.94118 10.7353C9.66039 10.3072 9.52695 9.80955 9.55475 9.29801C9.56587 9.12287 9.71599 8.98665 9.89114 8.99777C10.0663 9.00889 10.1997 9.15901 10.1914 9.33415C10.1691 9.70946 10.2664 10.0709 10.475 10.385C10.9392 11.0912 11.84 11.3608 12.6128 11.0217C12.7741 10.9522 12.9603 11.0244 13.0326 11.1857C13.1021 11.3469 13.0298 11.5332 12.8686 11.6055C12.56 11.7389 12.2375 11.8056 11.9206 11.8056H11.9178Z" fill="black"/>
<path d="M12.7378 19.3258C12.5627 19.3258 12.4209 19.184 12.4209 19.0088V5.78684C12.4209 5.61169 12.5627 5.46991 12.7378 5.46991C12.913 5.46991 13.0548 5.61169 13.0548 5.78684V19.0088C13.0548 19.184 12.913 19.3258 12.7378 19.3258Z" fill="black"/>
<path d="M18.6623 18.6556C18.5205 18.6556 18.3759 18.6362 18.2369 18.6C18.0673 18.5555 17.9672 18.3804 18.0117 18.2108C18.0562 18.0412 18.2313 17.9411 18.4009 17.9856C18.4871 18.0079 18.5733 18.019 18.6595 18.019C19.2294 18.019 19.6937 17.5547 19.6937 16.9848C19.6937 16.7012 19.5797 16.4371 19.3767 16.2397C19.2822 16.1508 19.2544 16.0118 19.3017 15.8922C19.3489 15.7727 19.4657 15.6921 19.5964 15.6921C19.6047 15.6921 19.6158 15.6921 19.6242 15.6921C20.1885 15.6865 20.6472 15.225 20.6472 14.6579C20.6472 14.2993 20.4554 13.9601 20.1468 13.7766C19.9967 13.6876 19.9466 13.4903 20.0384 13.3401C20.1301 13.19 20.3247 13.14 20.4749 13.2317C20.9725 13.532 21.2839 14.0769 21.2839 14.6579C21.2839 15.389 20.8112 16.0118 20.1551 16.237C20.2691 16.4649 20.3303 16.7179 20.3303 16.982C20.3303 17.9022 19.5825 18.6501 18.6623 18.6501V18.6556Z" fill="black"/>
<path d="M20.0189 10.8021C19.955 10.8021 19.8911 10.7826 19.8355 10.7437C19.6909 10.6436 19.6575 10.4434 19.7604 10.3016C19.9272 10.0626 20.0162 9.78177 20.0162 9.48987C20.0162 8.70867 19.3795 8.07203 18.5983 8.07203C18.4065 8.07203 18.2175 8.11095 18.0423 8.18601C17.9394 8.2305 17.8199 8.2166 17.7282 8.14987C17.6364 8.08315 17.5892 7.97195 17.6003 7.86075C17.6086 7.7829 17.6142 7.71062 17.6142 7.63834C17.6142 6.52075 16.7051 5.61445 15.5903 5.61445C15.1371 5.61445 14.709 5.7618 14.3532 6.03702C14.2142 6.14544 14.014 6.12042 13.9056 5.98142C13.7971 5.84242 13.8222 5.64225 13.9612 5.53383C14.431 5.16964 14.9926 4.97504 15.5903 4.97504C16.9998 4.97504 18.1591 6.07872 18.2453 7.46598C18.362 7.44652 18.4788 7.4354 18.5983 7.4354C19.7298 7.4354 20.6528 8.3556 20.6528 9.48987C20.6528 9.91522 20.5249 10.3211 20.2803 10.6686C20.2191 10.7576 20.119 10.8021 20.0189 10.8021Z" fill="black"/>
<path d="M16.0628 20.3098C15.2093 20.3098 14.4031 19.9012 13.8971 19.1922C13.7943 19.0505 13.8276 18.8503 13.9722 18.7474C14.114 18.6446 14.3141 18.6779 14.417 18.8225C14.859 19.4452 15.6041 19.7621 16.3603 19.6509C17.147 19.537 17.7976 18.967 18.0172 18.2025C18.0978 17.9273 18.1145 17.641 18.0728 17.3546C18.0478 17.1795 18.1673 17.0182 18.3425 16.9932C18.5148 16.9654 18.6789 17.0877 18.7039 17.2629C18.7595 17.641 18.7345 18.0163 18.6288 18.3777C18.3425 19.3813 17.489 20.1291 16.452 20.2792C16.3214 20.2987 16.1935 20.307 16.0656 20.307L16.0628 20.3098Z" fill="black"/>
<path d="M18.3869 14.8302C18.2117 14.8302 18.0699 14.6884 18.0699 14.5133C18.0699 14.3381 18.2117 14.1963 18.3869 14.1963C19.5045 14.1963 20.4135 13.2873 20.4135 12.1697C20.4135 11.0521 19.5045 10.143 18.3869 10.143C18.2117 10.143 18.0699 10.0012 18.0699 9.82608C18.0699 9.65094 18.2117 9.50916 18.3869 9.50916C19.8547 9.50916 21.0474 10.7046 21.0474 12.1697C21.0474 13.6348 19.852 14.8302 18.3869 14.8302Z" fill="black"/>
<path d="M15.6069 18.6558C14.9007 18.6558 14.2391 18.2749 13.8804 17.6633C13.7915 17.5104 13.8443 17.3158 13.9944 17.2296C14.1446 17.1407 14.3419 17.1935 14.4281 17.3436C14.67 17.7606 15.1231 18.0192 15.6041 18.0192C16.3519 18.0192 16.9635 17.4103 16.9635 16.6597C16.9635 16.3567 16.8662 16.0703 16.6828 15.8312C16.5771 15.6922 16.6021 15.4921 16.7411 15.3864C16.8801 15.2808 17.0803 15.3058 17.1859 15.4448C17.4556 15.7951 17.6002 16.2177 17.6002 16.6625C17.6002 17.7634 16.705 18.6586 15.6041 18.6586L15.6069 18.6558Z" fill="black"/>
<path d="M15.5624 9.89026C15.4707 9.89026 15.3789 9.85134 15.315 9.7735C15.0676 9.46769 14.9313 9.10072 14.9202 8.70595C14.9063 8.23334 15.0787 7.78575 15.4039 7.4438C15.7292 7.10186 16.1657 6.90447 16.6383 6.89335C17.261 6.87389 17.8587 7.19638 18.1896 7.73015C18.2813 7.88027 18.2368 8.07488 18.0867 8.1694C17.9366 8.26114 17.742 8.21666 17.6475 8.06654C17.4362 7.72459 17.0553 7.52165 16.655 7.52999C16.3547 7.53833 16.0739 7.66343 15.8654 7.88305C15.6569 8.10268 15.5485 8.38903 15.5568 8.69205C15.5652 8.94504 15.6514 9.18135 15.8098 9.37595C15.921 9.51217 15.8988 9.71234 15.7626 9.82354C15.7042 9.8708 15.6319 9.89582 15.5624 9.89582V9.89026Z" fill="black"/>
<path d="M15.5235 16.6208C15.4262 16.6208 15.3316 16.5763 15.2705 16.4929C15.0064 16.1398 14.898 15.6894 14.9786 15.2585C15.0926 14.6414 15.5568 14.1743 16.1267 14.0242C15.9182 13.6378 15.8404 13.1874 15.921 12.7454C16.1156 11.6973 17.1276 11.005 18.1729 11.1996C18.8039 11.3164 19.3349 11.739 19.5907 12.3283C19.6602 12.4896 19.5879 12.6759 19.4267 12.7481C19.2654 12.8176 19.0792 12.7454 19.0069 12.5841C18.8345 12.1893 18.4787 11.9058 18.0561 11.8279C17.3555 11.6973 16.6772 12.1615 16.5465 12.8649C16.4631 13.3125 16.6244 13.774 16.9663 14.0742C17.0747 14.1687 17.1053 14.3244 17.0414 14.4523C16.9774 14.5802 16.8384 14.6525 16.6967 14.6275C16.1879 14.5329 15.6986 14.8693 15.6041 15.3781C15.5568 15.6366 15.618 15.9035 15.7765 16.1148C15.8821 16.2538 15.8543 16.454 15.7153 16.5596C15.6569 16.6041 15.5902 16.6235 15.5235 16.6235V16.6208Z" fill="black"/>
<path d="M14.9759 11.8056C14.659 11.8056 14.3365 11.7417 14.0279 11.6055C13.8666 11.536 13.7944 11.3469 13.8639 11.1857C13.9334 11.0244 14.1224 10.9522 14.2836 11.0217C15.0565 11.3608 15.9572 11.0912 16.4215 10.385C16.6272 10.0709 16.7245 9.70668 16.7051 9.33415C16.694 9.15901 16.8302 9.00889 17.0053 8.99777C17.1777 8.98665 17.3306 9.12287 17.3417 9.29801C17.3723 9.80955 17.2389 10.3072 16.9553 10.7353C16.5049 11.422 15.7543 11.8029 14.9787 11.8056H14.9759Z" fill="black"/>
<path d="M14.1557 19.3258C13.9805 19.3258 13.8387 19.184 13.8387 19.0088V5.78684C13.8387 5.61169 13.9805 5.46991 14.1557 5.46991C14.3308 5.46991 14.4726 5.61169 14.4726 5.78684V19.0088C14.4726 19.184 14.3308 19.3258 14.1557 19.3258Z" fill="black"/>
<path d="M15.9266 25.5223H10.9642C10.2274 25.5223 9.62695 24.9218 9.62695 24.1851V20.9547C9.62695 20.7795 9.76874 20.6378 9.94388 20.6378H16.9413C17.1165 20.6378 17.2582 20.7795 17.2582 20.9547V24.1851C17.2582 24.9218 16.6577 25.5223 15.9238 25.5223H15.9266ZM10.2664 21.2744V24.1879C10.2664 24.5743 10.5805 24.8885 10.9669 24.8885H15.9294C16.3158 24.8885 16.6299 24.5743 16.6299 24.1879V21.2744H10.2691H10.2664Z" fill="black"/>
<path d="M13.4439 27.0348C11.9038 27.0348 10.6972 26.2314 10.6972 25.2027C10.6972 25.0276 10.839 24.8858 11.0141 24.8858H15.8737C16.0488 24.8858 16.1906 25.0276 16.1906 25.2027C16.1906 26.2286 14.9841 27.0348 13.4439 27.0348ZM11.4117 25.5224C11.6647 26.0229 12.4931 26.4009 13.4439 26.4009C14.3947 26.4009 15.2232 26.0229 15.4761 25.5224H11.4117Z" fill="black"/>
<path d="M10.0134 22.8117C9.84657 22.8117 9.70757 22.6838 9.69645 22.5142C9.68533 22.3391 9.81877 22.1862 9.99392 22.1751L16.8412 21.7219C17.0191 21.7108 17.1693 21.8442 17.1804 22.0194C17.1915 22.1945 17.0581 22.3474 16.8829 22.3585L10.0356 22.8117C10.0356 22.8117 10.0217 22.8117 10.0134 22.8117Z" fill="black"/>
<path d="M10.03 24.1712C9.86317 24.1712 9.72417 24.0433 9.71305 23.8737C9.70193 23.6986 9.83537 23.5457 10.0105 23.5346L16.8578 23.0814C17.033 23.0675 17.1859 23.2037 17.197 23.3789C17.2081 23.554 17.0747 23.7069 16.8995 23.7181L10.0522 24.1712C10.0522 24.1712 10.0383 24.1712 10.03 24.1712Z" fill="black"/>
<path d="M13.4467 2.43399C13.2716 2.43399 13.1298 2.2922 13.1298 2.11706V0.351718C13.1298 0.176573 13.2716 0.03479 13.4467 0.03479C13.6219 0.03479 13.7637 0.176573 13.7637 0.351718V2.11428C13.7637 2.28942 13.6219 2.43121 13.4467 2.43121V2.43399Z" fill="black"/>
<path d="M8.01446 3.88786C7.90325 3.88786 7.79761 3.82948 7.73923 3.72939L6.85795 2.20314C6.76899 2.05023 6.82181 1.85563 6.97471 1.76945C7.12761 1.68048 7.32222 1.73331 7.4084 1.88621L8.28968 3.41247C8.37864 3.56537 8.32582 3.75998 8.17292 3.84616C8.12288 3.87396 8.06728 3.88786 8.01446 3.88786Z" fill="black"/>
<path d="M4.03619 7.86622C3.98337 7.86622 3.92776 7.85232 3.87772 7.82452L2.35147 6.94324C2.19856 6.85428 2.14852 6.65967 2.2347 6.50955C2.32367 6.35664 2.51827 6.3066 2.66839 6.39278L4.19465 7.27407C4.34755 7.36303 4.3976 7.55763 4.31141 7.70776C4.25303 7.81062 4.14461 7.86622 4.03619 7.86622Z" fill="black"/>
<path d="M2.57943 13.2984H0.816867C0.641722 13.2984 0.499939 13.1566 0.499939 12.9815C0.499939 12.8063 0.641722 12.6646 0.816867 12.6646H2.57943C2.75457 12.6646 2.89636 12.8063 2.89636 12.9815C2.89636 13.1566 2.75457 13.2984 2.57943 13.2984Z" fill="black"/>
<path d="M2.50994 19.6148C2.39874 19.6148 2.2931 19.5564 2.23472 19.4564C2.14576 19.3035 2.19858 19.1089 2.35148 19.0227L3.87774 18.1414C4.03064 18.0524 4.22525 18.1053 4.31143 18.2582C4.40039 18.4111 4.34757 18.6057 4.19467 18.6918L2.66841 19.5731C2.61837 19.6009 2.56277 19.6148 2.50994 19.6148Z" fill="black"/>
<path d="M18.8789 3.8879C18.8261 3.8879 18.7705 3.874 18.7205 3.8462C18.5676 3.75724 18.5175 3.56264 18.6037 3.41251L19.485 1.88626C19.574 1.73335 19.7686 1.68331 19.9187 1.76949C20.0716 1.85846 20.1216 2.05306 20.0355 2.20318L19.1542 3.72944C19.0958 3.8323 18.9874 3.8879 18.8789 3.8879Z" fill="black"/>
<path d="M22.8572 7.86636C22.746 7.86636 22.6404 7.80798 22.582 7.70789C22.493 7.55499 22.5459 7.36038 22.6988 7.2742L24.225 6.39292C24.3779 6.30396 24.5725 6.35678 24.6587 6.50968C24.7477 6.66259 24.6949 6.85719 24.542 6.94337L23.0157 7.82466C22.9657 7.85246 22.9101 7.86636 22.8572 7.86636Z" fill="black"/>
<path d="M26.0737 13.2984H24.3111C24.136 13.2984 23.9942 13.1566 23.9942 12.9815C23.9942 12.8063 24.136 12.6646 24.3111 12.6646H26.0737C26.2488 12.6646 26.3906 12.8063 26.3906 12.9815C26.3906 13.1566 26.2488 13.2984 26.0737 13.2984Z" fill="black"/>
<path d="M24.3835 19.6148C24.3307 19.6148 24.2751 19.6009 24.225 19.5731L22.6988 18.6918C22.5459 18.6028 22.4958 18.4082 22.582 18.2581C22.671 18.1052 22.8656 18.0551 23.0157 18.1413L24.5419 19.0226C24.6948 19.1116 24.7449 19.3062 24.6587 19.4563C24.6003 19.5592 24.4919 19.6148 24.3835 19.6148Z" fill="black"/>
</svg>
