<svg width="26" height="26" viewBox="0 0 26 26" fill="none" xmlns="http://www.w3.org/2000/svg">
<path d="M23.6787 9.75095C24.7864 10.2356 25.5 11.3273 25.5 12.5361C25.5 13.745 24.7864 14.8367 23.6787 15.3213L23.6414 15.4624C24.3577 16.437 24.4296 17.739 23.8252 18.7855C23.2846 19.7227 22.2728 20.3059 21.1918 20.3059C21.0853 20.3059 20.9761 20.3005 20.8696 20.2899L20.7551 20.4044C20.8802 21.5999 20.2891 22.7609 19.2507 23.36C18.7874 23.6262 18.2628 23.7673 17.7303 23.7673C17.0752 23.7673 16.4522 23.5623 15.9276 23.1762L15.7412 23.1949L15.7865 23.2162C15.2992 24.3212 14.2075 25.0348 12.9987 25.0348C11.7898 25.0348 10.7008 24.3212 10.2135 23.2162L10.1656 23.115L10.1283 23.1576C9.54781 23.5623 8.92475 23.7673 8.26973 23.7673C7.73719 23.7673 7.21264 23.6262 6.74933 23.36C5.70822 22.7609 5.11976 21.5999 5.24757 20.4044L5.14639 20.2872C5.02391 20.3005 4.91474 20.3059 4.80823 20.3059C3.72452 20.3059 2.71535 19.7227 2.17483 18.7855C1.5704 17.739 1.64229 16.437 2.35855 15.4624L2.33991 15.276L2.32128 15.3213C1.2136 14.8367 0.5 13.7423 0.5 12.5361C0.5 11.3299 1.2136 10.2356 2.32128 9.75095L2.35855 9.60716C1.64229 8.63528 1.5704 7.33056 2.17483 6.28679C2.71535 5.34686 3.72452 4.76373 4.80823 4.76373C4.91474 4.76373 5.02391 4.77172 5.13041 4.78237L5.2955 4.65988L5.24757 4.66521C5.11976 3.47232 5.70822 2.31139 6.74933 1.70962C7.21264 1.44335 7.73719 1.30223 8.26973 1.30223C8.92209 1.30223 9.54515 1.50726 10.0724 1.89335L10.2588 1.87471L10.2135 1.85607C10.7008 0.751054 11.7925 0.03479 12.9987 0.03479C14.2049 0.03479 15.3019 0.751054 15.7865 1.85607L15.8344 1.95459L15.8744 1.91199C16.4522 1.50726 17.0779 1.30223 17.7303 1.30223C18.2628 1.30223 18.7874 1.44335 19.2507 1.70962C20.2891 2.31139 20.8802 3.47232 20.7551 4.66521L20.8536 4.78237C20.9761 4.77172 21.0853 4.76373 21.1918 4.76373C22.2755 4.76373 23.2846 5.34686 23.8252 6.28679C24.4296 7.33056 24.3577 8.63528 23.6414 9.60716L23.6601 9.79355L23.6787 9.75095ZM24.6506 12.5361C24.6506 11.6654 24.134 10.8773 23.3379 10.5285C23.0743 10.414 22.8799 10.1876 22.8054 9.90805C22.7308 9.62846 22.7867 9.33557 22.9571 9.10391C23.471 8.40363 23.5243 7.4637 23.0876 6.71015C22.6988 6.03383 21.9719 5.61579 21.1918 5.61579C21.1145 5.61579 21.0373 5.61845 20.9601 5.62644C20.9228 5.63176 20.8882 5.63177 20.8536 5.63177C20.5953 5.63177 20.3557 5.53591 20.1799 5.35751C19.9749 5.15248 19.8764 4.86757 19.9083 4.57734C19.9989 3.71463 19.5728 2.87854 18.8246 2.44719C18.4918 2.25547 18.1137 2.15429 17.7303 2.15429C17.259 2.15429 16.809 2.30074 16.4309 2.58032C16.2684 2.70014 16.0741 2.76138 15.8744 2.76138C15.7918 2.76138 15.7093 2.75073 15.6267 2.72943C15.3498 2.65488 15.1235 2.4605 15.0063 2.19689C14.6575 1.40075 13.8694 0.886851 12.9987 0.886851C12.128 0.886851 11.3425 1.40075 10.9937 2.19689C10.8765 2.4605 10.6502 2.65488 10.3733 2.72943C10.2934 2.75073 10.2082 2.76138 10.1256 2.76138C9.92592 2.76138 9.73155 2.70014 9.56912 2.58032C9.19102 2.30074 8.74102 2.15429 8.26973 2.15429C7.8863 2.15429 7.50819 2.25547 7.17536 2.44719C6.42714 2.87854 6.00112 3.71463 6.09165 4.57734C6.1236 4.86757 6.02508 5.15248 5.82005 5.35751C5.64431 5.53591 5.40467 5.63177 5.14639 5.63177C5.11177 5.63177 5.07716 5.63176 5.03988 5.62644C4.96267 5.61845 4.88545 5.61579 4.80823 5.61579C4.02806 5.61579 3.30115 6.03383 2.9124 6.71015C2.47572 7.4637 2.52897 8.40363 3.04287 9.10391C3.21328 9.33557 3.2692 9.62846 3.19464 9.90805C3.12009 10.1876 2.92571 10.414 2.6621 10.5285C1.86596 10.8773 1.34939 11.6654 1.34939 12.5361C1.34939 13.4068 1.86596 14.1923 2.6621 14.5411C2.92571 14.6583 3.12009 14.8846 3.19464 15.1615C3.2692 15.4411 3.21328 15.734 3.04287 15.9657C2.52897 16.6686 2.47572 17.6085 2.9124 18.3594C3.30115 19.0357 4.02806 19.4565 4.81089 19.4565C4.88544 19.4565 4.96267 19.4511 5.03988 19.4431C5.07716 19.4405 5.11177 19.4378 5.14639 19.4378C5.40467 19.4378 5.64431 19.5363 5.82005 19.7147C6.02508 19.9171 6.1236 20.202 6.09165 20.4949C6.00112 21.355 6.42714 22.191 7.17536 22.6251C7.50819 22.8168 7.8863 22.918 8.26973 22.918C8.74102 22.918 9.19102 22.7715 9.56912 22.4919C9.73155 22.3721 9.92592 22.3082 10.1256 22.3082C10.2082 22.3082 10.2934 22.3188 10.3733 22.3401C10.6528 22.4147 10.8792 22.6091 10.9937 22.8727C11.3425 23.6715 12.1306 24.1854 12.9987 24.1854C13.8667 24.1854 14.6575 23.6715 15.0063 22.8727C15.1235 22.6091 15.3498 22.4147 15.6267 22.3401C15.7093 22.3188 15.7892 22.3082 15.8744 22.3082C16.0741 22.3082 16.2684 22.3721 16.4309 22.4919C16.809 22.7715 17.259 22.918 17.7303 22.918C18.1137 22.918 18.4918 22.8168 18.8246 22.6251C19.5728 22.191 19.9989 21.355 19.9083 20.4949C19.8764 20.202 19.9749 19.9171 20.1773 19.7147C20.3557 19.5363 20.598 19.4378 20.8536 19.4378C20.8882 19.4378 20.9228 19.4405 20.9601 19.4431C21.0373 19.4511 21.1145 19.4565 21.1891 19.4565C21.9719 19.4565 22.6988 19.0357 23.0876 18.3594C23.5243 17.6059 23.471 16.666 22.9571 15.9657C22.7867 15.734 22.7308 15.4411 22.8054 15.1642C22.8799 14.8846 23.0743 14.6583 23.3379 14.5411C24.134 14.1923 24.6506 13.4042 24.6506 12.5361Z" fill="black"/>
<path d="M12.9986 3.7865C17.8234 3.7865 21.7482 7.7113 21.7482 12.5361C21.7482 17.3609 17.8234 21.283 12.9986 21.283C8.17385 21.283 4.25171 17.3582 4.25171 12.5361C4.25171 7.71397 8.17651 3.7865 12.9986 3.7865ZM20.8988 12.5361C20.8988 8.17994 17.3548 4.63856 12.9986 4.63856C8.64248 4.63856 5.10111 8.17994 5.10111 12.5361C5.10111 16.8923 8.64514 20.4336 12.9986 20.4336C17.3521 20.4336 20.8988 16.8896 20.8988 12.5361Z" fill="black"/>
<path d="M12.9985 4.63855C17.3547 4.63855 20.8988 8.17993 20.8988 12.5361C20.8988 16.8923 17.3547 20.4336 12.9985 20.4336C8.64238 20.4336 5.10101 16.8896 5.10101 12.5361C5.10101 8.18259 8.64505 4.63855 12.9985 4.63855ZM18.505 12.0222C18.7659 11.8065 18.8698 11.4604 18.7739 11.1382C18.6754 10.8133 18.3985 10.5817 18.063 10.5417L15.1713 10.2355L13.7548 7.31455C13.6136 7.02166 13.3234 6.84059 12.9985 6.84059C12.6737 6.84059 12.3861 7.02166 12.245 7.31455L10.8657 10.2089L7.93678 10.5417C7.60128 10.5817 7.32435 10.8133 7.22583 11.1382C7.12998 11.4604 7.23649 11.8065 7.49477 12.0222L9.78468 13.8941L9.09238 17.0786C9.02049 17.4088 9.14563 17.739 9.42255 17.9387C9.569 18.0425 9.73675 18.0984 9.91249 18.0984C10.0616 18.0984 10.2134 18.0558 10.3465 17.976L12.9746 16.3677L15.6559 17.976C15.789 18.0558 15.9382 18.0984 16.0873 18.0984C16.263 18.0984 16.4308 18.0425 16.5772 17.9387C16.8515 17.739 16.9793 17.4115 16.9074 17.0786L16.1991 13.9393L18.505 12.0222Z" fill="white"/>
<path d="M18.774 11.1383C18.8699 11.4605 18.766 11.8066 18.5051 12.0223L16.1992 13.9394L16.9075 17.0787C16.9794 17.4116 16.8515 17.7391 16.5773 17.9388C16.4308 18.0426 16.2631 18.0986 16.0874 18.0986C15.9382 18.0986 15.7891 18.056 15.656 17.9761L12.9747 16.3678L10.3466 17.9761C10.2135 18.056 10.0617 18.0986 9.91257 18.0986C9.73684 18.0986 9.56909 18.0426 9.42264 17.9388C9.14572 17.7391 9.02058 17.4089 9.09247 17.0787L9.78477 13.8942L7.49485 12.0223C7.23657 11.8066 7.13006 11.4605 7.22592 11.1383C7.32444 10.8134 7.60136 10.5818 7.93686 10.5418L10.8658 10.209L12.2451 7.31466C12.3862 7.02176 12.6764 6.8407 12.9986 6.8407C13.3208 6.8407 13.6137 7.02176 13.7548 7.31466L15.1714 10.2356L18.0631 10.5418C18.3986 10.5818 18.6755 10.8134 18.774 11.1383ZM15.4803 13.4335L17.9619 11.3673L14.8306 11.0318C14.6841 11.0158 14.559 10.9253 14.4951 10.7948L13.0013 7.70607L11.5049 10.7948C11.441 10.9253 11.3158 11.0158 11.1694 11.0318L8.03271 11.3886L10.5197 13.4335C10.6448 13.5347 10.6981 13.6945 10.6635 13.8516L9.92323 17.2598L12.7803 15.5211C12.8469 15.4811 12.9241 15.4625 13.0013 15.4625C13.0785 15.4625 13.1531 15.4811 13.2196 15.5211L16.0927 17.2465L15.3365 13.8516C15.3019 13.6945 15.3551 13.5347 15.4803 13.4335Z" fill="black"/>
</svg>
