<svg width="17" height="31" viewBox="0 0 17 31" fill="none" xmlns="http://www.w3.org/2000/svg">
<path d="M7.29766 13.7146C5.09725 13.7146 3.30646 11.9238 3.30646 9.72338C3.30646 7.52297 5.09725 5.73218 7.29766 5.73218C9.49806 5.73218 11.2889 7.52297 11.2889 9.72338C11.2889 11.9238 9.49806 13.7146 7.29766 13.7146ZM7.29766 6.80191C5.68628 6.80191 4.37619 8.112 4.37619 9.72338C4.37619 11.3347 5.68628 12.6448 7.29766 12.6448C8.90903 12.6448 10.2191 11.3347 10.2191 9.72338C10.2191 8.112 8.90903 6.80191 7.29766 6.80191Z" fill="black"/>
<path d="M2.89009 14.6219C2.75468 14.6219 2.61927 14.5711 2.51433 14.4661C1.22455 13.1899 0.50688 11.4837 0.50011 9.66925C0.493339 7.85476 1.1907 6.14183 2.47032 4.85205C2.67682 4.64217 3.01534 4.64217 3.22523 4.85205C3.43511 5.05855 3.43511 5.39708 3.22523 5.60696C1.00113 7.85138 1.01805 11.4837 3.26247 13.7078C3.47235 13.9143 3.47235 14.2529 3.26247 14.4628C3.15752 14.5677 3.01873 14.6219 2.88332 14.6219H2.89009Z" fill="black"/>
<path d="M11.7459 14.5812C11.6105 14.5812 11.4751 14.5304 11.3701 14.4255C11.1602 14.219 11.1602 13.8805 11.3701 13.6706C12.4466 12.5839 13.0357 11.1418 13.0289 9.61168C13.0221 8.08155 12.4196 6.64621 11.3329 5.56631C11.123 5.35981 11.123 5.02129 11.3329 4.81141C11.5394 4.60152 11.8779 4.60152 12.0878 4.81141C13.3776 6.09103 14.0919 7.7938 14.0986 9.60829C14.1054 11.4228 13.408 13.1357 12.1284 14.4255C12.0235 14.5304 11.8847 14.5846 11.7493 14.5846L11.7459 14.5812Z" fill="black"/>
<path d="M4.33222 4.65567C4.14264 4.65567 3.95645 4.55412 3.86167 4.3747C3.72287 4.11404 3.81766 3.78905 4.07832 3.65026C5.06004 3.12216 6.17379 2.84119 7.29769 2.84119C8.42159 2.84119 9.4744 3.10523 10.4358 3.60625C10.6965 3.74166 10.798 4.06664 10.6626 4.32731C10.5272 4.58797 10.2022 4.68953 9.94156 4.55412C9.11895 4.12758 8.23201 3.91092 7.29769 3.91092C6.36336 3.91092 5.41211 4.14789 4.58611 4.59136C4.50486 4.63536 4.42023 4.65567 4.33222 4.65567Z" fill="black"/>
<path d="M16.4513 10.2582C16.1568 10.2582 15.9164 10.0179 15.9164 9.72335C15.9164 4.97047 12.0505 1.10453 7.29762 1.10453C7.00311 1.10453 6.76276 0.864174 6.76276 0.569658C6.76276 0.275142 7.00311 0.03479 7.29762 0.03479C12.6395 0.03479 16.9862 4.38144 16.9862 9.72335C16.9862 10.0179 16.7458 10.2582 16.4513 10.2582Z" fill="black"/>
<path d="M14.6911 30.0348H6.79334C6.48867 30.0348 6.24493 29.7775 6.24493 29.4593V26.7477C6.24493 26.4295 6.49206 26.1722 6.79334 26.1722H14.6911C14.9958 26.1722 15.2395 26.4295 15.2395 26.7477V29.4593C15.2395 29.7775 14.9924 30.0348 14.6911 30.0348Z" stroke="black" stroke-width="0.9" stroke-miterlimit="10"/>
<path d="M14.8772 16.4533H14.8501C14.4913 16.4533 14.1629 16.5921 13.9124 16.8155C13.7465 16.1757 13.1304 15.7051 12.3958 15.7051H12.3653C11.9388 15.7051 11.5529 15.8608 11.2719 16.1215C11.0349 15.5934 10.4798 15.2176 9.8298 15.2176H9.79933C9.36602 15.2176 8.95641 15.3801 8.69574 15.6442V10.4952C8.69574 9.56091 8.06609 8.80939 7.29087 8.80939H7.26379C6.48857 8.80939 5.85891 9.56091 5.85891 10.4952V18.8534L4.75871 17.2217C4.24077 16.4939 3.19134 16.4059 2.55492 17.0355L2.53461 17.0558C2.05052 17.5365 1.96927 18.2914 2.33488 18.8636L5.68627 24.0565C5.94693 24.4221 6.21098 24.7708 6.49195 25.1026H14.7892C15.7235 23.8839 16.2855 22.2454 16.2855 20.4478V17.848C16.2855 17.0728 15.6558 16.4499 14.8806 16.4499L14.8772 16.4533Z" fill="white" stroke="black" stroke-width="0.9" stroke-miterlimit="10"/>
</svg>
