<svg width="27" height="23" viewBox="0 0 27 23" fill="none" xmlns="http://www.w3.org/2000/svg">
<path d="M25.8294 21.1342C26.0767 21.1342 26.2797 21.3372 26.2797 21.5845C26.2797 21.8319 26.0767 22.0348 25.8294 22.0348H24.6656V21.9682C24.9162 21.9682 25.1159 21.7684 25.1159 21.5179V21.1342H25.8294Z" fill="black"/>
<path d="M25.1161 21.1342V21.5179C25.1161 21.7684 24.9163 21.9682 24.6658 21.9682H21.1239C20.8765 21.9682 20.6736 21.7684 20.6736 21.5179V21.1342H25.1161Z" fill="black"/>
<path d="M25.1161 9.63637V21.1342H20.6736V9.63637C20.6736 9.38587 20.8765 9.1861 21.1239 9.1861H24.6658C24.9163 9.1861 25.1161 9.38587 25.1161 9.63637ZM24.2663 21.0676L24.2155 10.0359L21.5773 10.0866V21.1184L24.2663 21.0676Z" fill="black"/>
<path d="M24.8433 2.92027C24.9067 3.15809 24.764 3.40859 24.523 3.47201C24.485 3.48153 24.4469 3.48787 24.4057 3.48787C24.2028 3.48787 24.0252 3.35152 23.9713 3.15492L23.5559 1.61701L24.0981 0.719637C24.1616 0.618167 24.1806 0.494499 24.152 0.377174C24.1203 0.26302 24.0474 0.161547 23.9459 0.101299C23.9111 0.0791024 23.873 0.0632514 23.835 0.0505676C23.873 0.0600805 23.9111 0.075935 23.9459 0.0949606C24.0474 0.155209 24.1235 0.253508 24.1552 0.367662L24.8433 2.92027Z" fill="black"/>
<path d="M24.6658 21.9682V22.0348H18.3271V21.9682C18.5776 21.9682 18.7805 21.7684 18.7805 21.5179V21.1342H20.6736V21.5179C20.6736 21.7684 20.8765 21.9682 21.1239 21.9682H24.6658Z" fill="black"/>
<path d="M24.1521 0.377252C24.1807 0.494577 24.1616 0.618245 24.0982 0.719715L23.556 1.61709L23.3879 0.989242L22.7728 1.16999L23.3277 0.253586C23.3784 0.16797 23.4513 0.104548 23.5401 0.0664966L23.6036 0.0506457C23.6416 0.0411329 23.6797 0.03479 23.7209 0.03479C23.7589 0.03479 23.797 0.0411329 23.835 0.0506457C23.8731 0.0633295 23.9111 0.0791805 23.946 0.101377C24.0475 0.161625 24.1204 0.263099 24.1521 0.377252Z" fill="black"/>
<path d="M23.3878 0.989166L23.5559 1.61701L17.7752 11.1901C17.566 10.9681 17.2996 10.8032 16.9984 10.724L22.7726 1.16991L23.3878 0.989166Z" fill="black"/>
<path d="M21.0509 0.738741L23.5401 0.0664978C23.4513 0.104549 23.3784 0.167972 23.3276 0.253587L22.7727 1.16999L21.2887 1.60758C21.2475 1.62026 21.2094 1.62343 21.1682 1.62343C20.9653 1.62343 20.7877 1.48708 20.7338 1.29048C20.7021 1.17316 20.718 1.05266 20.7782 0.94802C20.8384 0.843378 20.9367 0.77045 21.0509 0.738741Z" fill="black"/>
<path d="M18.7805 21.1342V21.5179C18.7805 21.7684 18.5776 21.9682 18.3271 21.9682H14.7883C14.5378 21.9682 14.338 21.7684 14.338 21.5179V21.1342H18.7805Z" fill="black"/>
<path d="M18.7805 15.9719V21.1342H14.338V15.9719C14.338 15.7246 14.5378 15.5216 14.7883 15.5216H18.3271C18.5776 15.5216 18.7805 15.7246 18.7805 15.9719ZM17.9275 21.0676L17.8768 16.3715L15.2386 16.4222V21.1183L17.9275 21.0676Z" fill="black"/>
<path d="M18.3271 21.9682V22.0348H11.9915V21.9682C12.2388 21.9682 12.4418 21.7684 12.4418 21.5179V21.1342H14.338V21.5179C14.338 21.7684 14.5378 21.9682 14.7883 21.9682H18.3271Z" fill="black"/>
<path d="M17.7752 11.1902C18.0638 11.4914 18.2382 11.9005 18.2382 12.3476C18.2382 13.2735 17.4835 14.0282 16.5576 14.0282C15.6316 14.0282 14.877 13.2735 14.877 12.3476C14.877 12.1573 14.9087 11.9734 14.9689 11.8022L15.2955 12.021C15.3684 12.0717 15.4572 12.0971 15.546 12.0971C15.6887 12.0971 15.8251 12.0305 15.9107 11.91C15.8282 12.0336 15.7775 12.1858 15.7775 12.3476C15.7775 12.7756 16.1295 13.1276 16.5576 13.1276C16.9856 13.1276 17.3376 12.7756 17.3376 12.3476C17.3376 11.9195 16.9888 11.5675 16.5576 11.5675C16.2944 11.5675 16.0629 11.6975 15.9202 11.8973C15.9868 11.799 16.0122 11.6785 15.99 11.5612C15.9646 11.4407 15.898 11.3392 15.7997 11.2726L15.4794 11.057C15.7712 10.8096 16.1485 10.6638 16.5576 10.6638C16.7098 10.6638 16.8588 10.6828 16.9983 10.724L16.9032 10.8826C16.7763 11.095 16.8461 11.3741 17.0586 11.5009C17.1283 11.5453 17.2076 11.5675 17.29 11.5675C17.4486 11.5675 17.5945 11.4851 17.6769 11.3487L17.7752 11.1902Z" fill="black"/>
<path d="M17.7753 11.1902L17.677 11.3487C17.5945 11.4851 17.4487 11.5675 17.2901 11.5675C17.2077 11.5675 17.1284 11.5453 17.0587 11.5009C16.8462 11.3741 16.7764 11.0951 16.9033 10.8826L16.9984 10.7241C17.2996 10.8033 17.566 10.9682 17.7753 11.1902Z" fill="black"/>
<path d="M15.99 11.5611C16.0122 11.6784 15.9869 11.7989 15.9203 11.8972C15.9171 11.9036 15.9139 11.9067 15.9108 11.9099C15.8251 12.0304 15.6888 12.097 15.5461 12.097C15.4573 12.097 15.3685 12.0716 15.2956 12.0209L14.969 11.8021C15.0673 11.5072 15.248 11.2503 15.4795 11.0569L15.7998 11.2725C15.8981 11.3391 15.9647 11.4406 15.99 11.5611Z" fill="black"/>
<path d="M11.8107 8.58054L15.4795 11.057C15.248 11.2505 15.0672 11.5073 14.9689 11.8022L11.297 9.32254C11.5316 9.12911 11.7092 8.87226 11.8107 8.58054Z" fill="black"/>
<path d="M12.4417 21.1342V21.5179C12.4417 21.7684 12.2388 21.9682 11.9914 21.9682H8.44948C8.20215 21.9682 7.99921 21.7684 7.99921 21.5179V21.1342H12.4417Z" fill="black"/>
<path d="M12.4417 12.8042V21.1343H7.99921V12.8042C7.99921 12.5569 8.20215 12.3539 8.44948 12.3539H11.9914C12.2388 12.3539 12.4417 12.5569 12.4417 12.8042ZM11.5919 21.0677L11.5412 13.2038L8.89975 13.2545V21.1184L11.5919 21.0677Z" fill="black"/>
<path d="M11.9915 21.9682V22.0348H5.65277V21.9682C5.90328 21.9682 6.10304 21.7684 6.10304 21.5179V21.1342H7.99927V21.5179C7.99927 21.7684 8.20221 21.9682 8.44954 21.9682H11.9915Z" fill="black"/>
<path d="M11.9027 8.03189C11.9027 8.22532 11.871 8.40923 11.8107 8.58046L11.5666 8.41557C11.4905 8.36484 11.4049 8.33947 11.3161 8.33947C11.1639 8.33947 11.0243 8.4124 10.9387 8.53607C10.8721 8.63754 10.8468 8.75803 10.8721 8.87536C10.8943 8.99268 10.9609 9.09732 11.0624 9.16391L11.2971 9.32246C11.0053 9.56662 10.628 9.71566 10.2189 9.71566C9.80988 9.71566 9.43254 9.56663 9.14081 9.31612L9.47059 9.04659C9.66401 8.89121 9.69255 8.60583 9.53401 8.4124C9.44839 8.30776 9.32155 8.24751 9.1852 8.24751C9.08056 8.24751 8.97909 8.28239 8.89982 8.34898L8.62712 8.57095C8.57004 8.40289 8.53833 8.22215 8.53833 8.03189C8.53833 7.10597 9.29301 6.35129 10.2189 6.35129C11.1448 6.35129 11.9027 7.10597 11.9027 8.03189ZM10.999 8.03189C10.999 7.60381 10.6502 7.25501 10.2189 7.25501C9.78768 7.25501 9.44205 7.60381 9.44205 8.03189C9.44205 8.45997 9.79085 8.81194 10.2189 8.81194C10.647 8.81194 10.999 8.46314 10.999 8.03189Z" fill="black"/>
<path d="M11.5666 8.41558L11.8108 8.58047C11.7093 8.87219 11.5317 9.12904 11.2971 9.32247L11.0624 9.16392C10.9609 9.09733 10.8944 8.99269 10.8722 8.87536C10.8468 8.75804 10.8722 8.63754 10.9387 8.53607C11.0244 8.41241 11.1639 8.33948 11.3161 8.33948C11.4049 8.33948 11.4905 8.36484 11.5666 8.41558Z" fill="black"/>
<path d="M9.53488 8.41278C9.69343 8.60621 9.66489 8.8916 9.47146 9.04697L9.14168 9.31651C8.90703 9.12308 8.72629 8.86623 8.62799 8.57133L8.90069 8.34937C8.97997 8.28278 9.08144 8.24789 9.18608 8.24789C9.32243 8.24789 9.44927 8.30814 9.53488 8.41278Z" fill="black"/>
<path d="M9.14075 9.3161L5.48465 12.3C5.3927 12.0019 5.2183 11.7387 4.98682 11.5453L8.62706 8.57092C8.72536 8.86582 8.9061 9.12267 9.14075 9.3161Z" fill="black"/>
<path d="M6.10307 21.1342V21.5179C6.10307 21.7684 5.9033 21.9682 5.6528 21.9682H2.11086C1.86352 21.9682 1.66058 21.7684 1.66058 21.5179V21.1342H6.10307Z" fill="black"/>
<path d="M6.10307 15.9719V21.1342H1.66058V15.9719C1.66058 15.7246 1.86352 15.5216 2.11086 15.5216H5.6528C5.9033 15.5216 6.10307 15.7246 6.10307 15.9719ZM5.25326 21.0676L5.20253 16.3715L2.5643 16.4222V21.1183L5.25326 21.0676Z" fill="black"/>
<path d="M5.65272 21.9682V22.0348H0.950213C0.699708 22.0348 0.499939 21.835 0.499939 21.5845C0.499939 21.334 0.699708 21.1342 0.950213 21.1342H1.6605V21.5179C1.6605 21.7684 1.86344 21.9682 2.11078 21.9682H5.65272Z" fill="black"/>
<path d="M5.48481 12.3001C5.53554 12.4586 5.56408 12.6299 5.56408 12.8043C5.56408 13.7302 4.8094 14.4849 3.88348 14.4849C2.95757 14.4849 2.20288 13.7302 2.20288 12.8043C2.20288 11.8783 2.95439 11.1237 3.88348 11.1237C4.30522 11.1237 4.69207 11.2822 4.98697 11.5454L4.75549 11.7325C4.66036 11.8086 4.60329 11.9164 4.5906 12.0369C4.57792 12.1542 4.6128 12.2715 4.6889 12.3667C4.77769 12.4713 4.90452 12.5316 5.04088 12.5316C5.14235 12.5316 5.24382 12.4967 5.32626 12.4301L5.48481 12.3001ZM4.66353 12.8043C4.66353 12.3762 4.31156 12.0242 3.88348 12.0242C3.4554 12.0242 3.10343 12.3762 3.10343 12.8043C3.10343 13.2323 3.45223 13.5843 3.88348 13.5843C4.31473 13.5843 4.66353 13.2355 4.66353 12.8043Z" fill="black"/>
<path d="M5.48477 12.2999L5.32622 12.4299C5.24378 12.4965 5.14231 12.5314 5.04084 12.5314C4.90449 12.5314 4.77765 12.4711 4.68886 12.3665C4.61276 12.2714 4.57788 12.154 4.59056 12.0367C4.60325 11.9162 4.66032 11.8084 4.75545 11.7323L4.98693 11.5452C5.21841 11.7387 5.39281 12.0018 5.48477 12.2999Z" fill="black"/>
</svg>
