<svg width="22" height="21" viewBox="0 0 22 21" fill="none" xmlns="http://www.w3.org/2000/svg">
<path d="M21.0774 7.6696C21.2476 8.24198 21.0632 8.85693 20.5996 9.24009L16.5031 12.646L17.7614 18.2231C17.8891 18.8144 17.662 19.3962 17.1748 19.751C16.9146 19.9354 16.6166 20.0348 16.3044 20.0348C16.0395 20.0348 15.7746 19.9591 15.5381 19.8172L10.7746 16.9601L6.10574 19.8172C5.86922 19.9591 5.59959 20.0348 5.33469 20.0348C5.02248 20.0348 4.72447 19.9354 4.4643 19.751C3.97234 19.3962 3.75002 18.8096 3.87774 18.2231L5.10764 12.5655L1.03952 9.24009C0.580675 8.85693 0.391455 8.24198 0.561749 7.6696C0.736772 7.0925 1.22874 6.68096 1.82476 6.61L7.02817 6.01871L9.4785 0.876795C9.72921 0.356455 10.2448 0.03479 10.8172 0.03479C11.3896 0.03479 11.9099 0.356455 12.1606 0.876795L14.6772 6.06601L19.8144 6.61C20.4104 6.68096 20.9023 7.0925 21.0774 7.6696ZM15.2259 11.7472L19.6346 8.07642L14.0717 7.48039C13.8115 7.45201 13.5892 7.29117 13.4757 7.05939L10.8219 1.57216L8.16345 7.05939C8.04993 7.29117 7.82759 7.45201 7.56742 7.48039L1.99505 8.11426L6.41321 11.7472C6.63554 11.9269 6.73015 12.2108 6.66866 12.4898L5.35361 18.5447L10.4293 15.4558C10.5476 15.3848 10.6847 15.3517 10.8219 15.3517C10.9591 15.3517 11.0916 15.3848 11.2098 15.4558L16.3139 18.5211L14.9705 12.4898C14.909 12.2108 15.0036 11.9269 15.2259 11.7472Z" fill="black"/>
</svg>
