<svg width="46" height="39" viewBox="0 0 46 39" fill="none" xmlns="http://www.w3.org/2000/svg">
<path d="M11.5908 5.15339V6.28464C11.5908 7.16577 10.8746 7.88204 9.98775 7.88204C9.10094 7.88204 8.39035 7.16577 8.39035 6.28464V3.41387C8.39035 2.52706 9.10662 1.81079 9.98775 1.81079C10.8689 1.81079 11.5908 2.52706 11.5908 3.41387V5.15339Z" fill="white"/>
<path d="M37.6097 5.15339V6.28464C37.6097 7.16577 36.8877 7.88204 36.0066 7.88204C35.1254 7.88204 34.4092 7.16577 34.4092 6.28464V3.41387C34.4092 2.52706 35.1254 1.81079 36.0066 1.81079C36.8877 1.81079 37.6097 2.52706 37.6097 3.41387V5.15339Z" fill="white"/>
<path d="M43.9936 13.4871V37.0785C43.9936 37.3059 43.806 37.4935 43.5786 37.4935H2.42143C2.19404 37.4935 2.00644 37.3059 2.00644 37.0785V13.4871H43.9936ZM41.3445 30.4786V25.5272C41.3445 25.1122 41.0034 24.7769 40.5884 24.7769H34.9549C34.5399 24.7769 34.2045 25.1122 34.2045 25.5272V30.4786C34.2045 30.8936 34.5399 31.229 34.9549 31.229H40.5884C41.0034 31.229 41.3445 30.8936 41.3445 30.4786ZM41.3445 21.3149V16.3635C41.3445 15.9485 41.0034 15.6131 40.5884 15.6131H34.9549C34.5399 15.6131 34.2045 15.9485 34.2045 16.3635V21.3149C34.2045 21.7299 34.5399 22.0653 34.9549 22.0653H40.5884C41.0034 22.0653 41.3445 21.7299 41.3445 21.3149ZM31.3906 30.4786V25.5272C31.3906 25.1122 31.0552 24.7769 30.6345 24.7769H25.0067C24.5917 24.7769 24.2506 25.1122 24.2506 25.5272V30.4786C24.2506 30.8936 24.5917 31.229 25.0067 31.229H30.6345C31.0552 31.229 31.3906 30.8936 31.3906 30.4786ZM31.3906 21.3149V16.3635C31.3906 15.9485 31.0552 15.6131 30.6345 15.6131H25.0067C24.5917 15.6131 24.2506 15.9485 24.2506 16.3635V21.3149C24.2506 21.7299 24.5917 22.0653 25.0067 22.0653H30.6345C31.0552 22.0653 31.3906 21.7299 31.3906 21.3149ZM21.4367 30.4786V25.5272C21.4367 25.1122 21.1013 24.7769 20.6863 24.7769H15.0528C14.6378 24.7769 14.2967 25.1122 14.2967 25.5272V30.4786C14.2967 30.8936 14.6378 31.229 15.0528 31.229H20.6863C21.1013 31.229 21.4367 30.8936 21.4367 30.4786ZM21.4367 21.3149V16.3635C21.4367 15.9485 21.1013 15.6131 20.6863 15.6131H15.0528C14.6378 15.6131 14.2967 15.9485 14.2967 16.3635V21.3149C14.2967 21.7299 14.6378 22.0653 15.0528 22.0653H20.6863C21.1013 22.0653 21.4367 21.7299 21.4367 21.3149ZM11.4828 30.4786V25.5272C11.4828 25.1122 11.1474 24.7769 10.7324 24.7769H5.09891C4.68393 24.7769 4.34853 25.1122 4.34853 25.5272V30.4786C4.34853 30.8936 4.68393 31.229 5.09891 31.229H10.7324C11.1474 31.229 11.4828 30.8936 11.4828 30.4786ZM11.4828 21.3149V16.3635C11.4828 15.9485 11.1474 15.6131 10.7324 15.6131H5.09891C4.68393 15.6131 4.34853 15.9485 4.34853 16.3635V21.3149C4.34853 21.7299 4.68393 22.0653 5.09891 22.0653H10.7324C11.1474 22.0653 11.4828 21.7299 11.4828 21.3149Z" fill="white"/>
<path d="M45.5 12.7311V37.0786C45.5 38.136 44.6359 39 43.5786 39H2.42143C1.35839 39 0.5 38.136 0.5 37.0786V12.7311C0.5 13.1461 0.835401 13.4871 1.25038 13.4871H2.00644V37.0786C2.00644 37.306 2.19404 37.4936 2.42143 37.4936H43.5786C43.806 37.4936 43.9936 37.306 43.9936 37.0786V13.4871H44.7496C45.1646 13.4871 45.5 13.1461 45.5 12.7311Z" fill="black"/>
<path d="M45.5 6.32438V12.731C45.5 12.316 45.1646 11.9806 44.7496 11.9806H44.0788L43.9936 6.32438C43.9936 6.09131 43.806 5.9094 43.5786 5.9094H39.1161V4.40295H43.5786C44.6359 4.40295 45.5 5.26134 45.5 6.32438Z" fill="black"/>
<path d="M44.7496 11.9807C45.1646 11.9807 45.5 12.3161 45.5 12.7311C45.5 13.1461 45.1646 13.4872 44.7496 13.4872H43.9936V13.4019L2.00644 13.4872H1.25038C0.835401 13.4872 0.5 13.1461 0.5 12.7311C0.5 12.3161 0.835401 11.9807 1.25038 11.9807H2.00644V12.066L44.0788 11.9807H44.7496Z" fill="black"/>
<path d="M43.9936 6.32435L44.0788 11.9806H2.00644V6.32435C2.00644 6.09128 2.19404 5.90937 2.42143 5.90937L6.88391 5.8241V6.28456C6.88391 7.99565 8.27666 9.3884 9.98775 9.3884C11.6988 9.3884 13.0973 7.99565 13.0973 6.28456V5.90937L32.9027 5.8241V6.28456C32.9027 7.99565 34.2955 9.3884 36.0066 9.3884C37.7177 9.3884 39.1161 7.99565 39.1161 6.28456V5.90937H43.5786C43.806 5.90937 43.9936 6.09128 43.9936 6.32435Z" fill="url(#paint0_linear_301_1178)"/>
<path d="M44.0788 11.9807L2.00644 12.066V11.9807H44.0788Z" fill="black"/>
<path d="M43.9936 13.4019V13.4871H2.00644L43.9936 13.4019Z" fill="black"/>
<path d="M41.3445 25.5272V30.4786C41.3445 30.8936 41.0034 31.229 40.5884 31.229H34.9549C34.5399 31.229 34.2045 30.8936 34.2045 30.4786V25.5272C34.2045 25.1123 34.5399 24.7769 34.9549 24.7769H40.5884C41.0034 24.7769 41.3445 25.1123 41.3445 25.5272ZM39.9233 29.7225L39.8381 26.198L35.711 26.2833V29.8078L39.9233 29.7225Z" fill="black"/>
<path d="M41.3445 16.3635V21.3149C41.3445 21.7299 41.0034 22.0653 40.5884 22.0653H34.9549C34.5399 22.0653 34.2045 21.7299 34.2045 21.3149V16.3635C34.2045 15.9486 34.5399 15.6132 34.9549 15.6132H40.5884C41.0034 15.6132 41.3445 15.9486 41.3445 16.3635ZM39.9233 20.5588L39.8381 17.0343L35.711 17.1139V20.6441L39.9233 20.5588Z" fill="black"/>
<path d="M39.1161 5.90942V6.28461L39.0308 5.90942H39.1161Z" fill="black"/>
<path d="M39.1161 4.40295V5.9094H39.0308L39.1161 6.28459C39.1161 7.99568 37.7234 9.38843 36.0066 9.38843C34.2898 9.38843 32.9027 7.99568 32.9027 6.28459V4.40295H33.6531C34.0681 4.40295 34.4092 4.73835 34.4092 5.15333V6.28459C34.4092 7.16571 35.1254 7.88198 36.0066 7.88198C36.8877 7.88198 37.6097 7.16571 37.6097 6.28459V5.15333C37.6097 4.73835 37.9451 4.40295 38.36 4.40295H39.1161Z" fill="black"/>
<path d="M39.1161 3.41385V4.40298H38.36C37.9451 4.40298 37.6097 4.73838 37.6097 5.15336V3.41385C37.6097 2.52703 36.8877 1.81076 36.0066 1.81076C35.1254 1.81076 34.4092 2.52703 34.4092 3.41385V5.15336C34.4092 4.73838 34.0681 4.40298 33.6531 4.40298H32.9027V3.41385C32.9027 1.69707 34.2955 0.304321 36.0066 0.304321C37.7177 0.304321 39.1161 1.69707 39.1161 3.41385Z" fill="black"/>
<path d="M32.9027 4.40295V5.82413L13.0973 5.9094V4.40295H32.9027Z" fill="black"/>
<path d="M31.3906 25.5272V30.4786C31.3906 30.8936 31.0552 31.229 30.6346 31.229H25.0067C24.5917 31.229 24.2506 30.8936 24.2506 30.4786V25.5272C24.2506 25.1123 24.5917 24.7769 25.0067 24.7769H30.6346C31.0552 24.7769 31.3906 25.1123 31.3906 25.5272ZM29.9694 29.7225L29.8842 26.198L25.7571 26.2833V29.8078L29.9694 29.7225Z" fill="black"/>
<path d="M31.3906 16.3635V21.3149C31.3906 21.7299 31.0552 22.0653 30.6346 22.0653H25.0067C24.5917 22.0653 24.2506 21.7299 24.2506 21.3149V16.3635C24.2506 15.9486 24.5917 15.6132 25.0067 15.6132H30.6346C31.0552 15.6132 31.3906 15.9486 31.3906 16.3635ZM29.9694 20.5588L29.8842 17.0343L25.7571 17.1139V20.6441L29.9694 20.5588Z" fill="black"/>
<path d="M21.4367 25.5272V30.4786C21.4367 30.8936 21.1013 31.229 20.6863 31.229H15.0528C14.6378 31.229 14.2967 30.8936 14.2967 30.4786V25.5272C14.2967 25.1123 14.6378 24.7769 15.0528 24.7769H20.6863C21.1013 24.7769 21.4367 25.1123 21.4367 25.5272ZM20.0155 29.7225L19.9303 26.198L15.8032 26.2833V29.8078L20.0155 29.7225Z" fill="black"/>
<path d="M21.4367 16.3635V21.3149C21.4367 21.7299 21.1013 22.0653 20.6863 22.0653H15.0528C14.6378 22.0653 14.2967 21.7299 14.2967 21.3149V16.3635C14.2967 15.9486 14.6378 15.6132 15.0528 15.6132H20.6863C21.1013 15.6132 21.4367 15.9486 21.4367 16.3635ZM20.0155 20.5588L19.9303 17.0343L15.8032 17.1139V20.6441L20.0155 20.5588Z" fill="black"/>
<path d="M13.0973 5.90942V6.28461L13.012 5.90942H13.0973Z" fill="black"/>
<path d="M13.0973 4.40295V5.9094H13.012L13.0973 6.28459C13.0973 7.99568 11.7045 9.38843 9.98775 9.38843C8.27097 9.38843 6.88391 7.99568 6.88391 6.28459V4.40295H7.63428C8.04926 4.40295 8.39035 4.73835 8.39035 5.15333V6.28459C8.39035 7.16571 9.10662 7.88198 9.98775 7.88198C10.8689 7.88198 11.5908 7.16571 11.5908 6.28459V5.15333C11.5908 4.73835 11.9262 4.40295 12.3412 4.40295H13.0973Z" fill="black"/>
<path d="M13.0973 3.41385V4.40298H12.3412C11.9262 4.40298 11.5908 4.73838 11.5908 5.15336V3.41385C11.5908 2.52703 10.8746 1.81076 9.98775 1.81076C9.10093 1.81076 8.39035 2.52703 8.39035 3.41385V5.15336C8.39035 4.73838 8.04926 4.40298 7.63428 4.40298H6.88391V3.41385C6.88391 1.69707 8.27665 0.304321 9.98775 0.304321C11.6988 0.304321 13.0973 1.69707 13.0973 3.41385Z" fill="black"/>
<path d="M11.4828 25.5272V30.4786C11.4828 30.8936 11.1474 31.229 10.7325 31.229H5.09892C4.68394 31.229 4.34854 30.8936 4.34854 30.4786V25.5272C4.34854 25.1123 4.68394 24.7769 5.09892 24.7769H10.7325C11.1474 24.7769 11.4828 25.1123 11.4828 25.5272ZM10.0617 29.7225L9.9764 26.198L5.855 26.2833V29.8078L10.0617 29.7225Z" fill="black"/>
<path d="M11.4828 16.3635V21.3149C11.4828 21.7299 11.1474 22.0653 10.7325 22.0653H5.09892C4.68394 22.0653 4.34854 21.7299 4.34854 21.3149V16.3635C4.34854 15.9486 4.68394 15.6132 5.09892 15.6132H10.7325C11.1474 15.6132 11.4828 15.9486 11.4828 16.3635ZM10.0617 20.5588L9.9764 17.0343L5.855 17.1139V20.6441L10.0617 20.5588Z" fill="black"/>
<path d="M6.88391 4.40295V5.82413L2.42143 5.9094C2.19404 5.9094 2.00644 6.09131 2.00644 6.32438V11.9806H1.25038C0.835401 11.9806 0.5 12.316 0.5 12.731V6.32438C0.5 5.26134 1.35839 4.40295 2.42143 4.40295H6.88391Z" fill="black"/>
<defs>
<linearGradient id="paint0_linear_301_1178" x1="2.00644" y1="8.9052" x2="44.0788" y2="8.9052" gradientUnits="userSpaceOnUse">
<stop offset="0.04" stop-color="#649173"/>
<stop offset="0.15" stop-color="#799D7C"/>
<stop offset="0.4" stop-color="#A6B78E"/>
<stop offset="0.53" stop-color="#B8C196"/>
<stop offset="0.68" stop-color="#BCC190"/>
<stop offset="0.86" stop-color="#C8C480"/>
<stop offset="1" stop-color="#D6C76F"/>
</linearGradient>
</defs>
</svg>
