<svg width="33" height="34" viewBox="0 0 33 34" fill="none" xmlns="http://www.w3.org/2000/svg">
<path d="M5.27511 9.30463H1.5C1.5 9.30463 1.91016 22.9779 5.58064 22.9779H19.0614" stroke="black" stroke-width="1.25558" stroke-miterlimit="10" stroke-linecap="round"/>
<path d="M31.5 3.72557C31.5 3.72557 26.8041 3.39075 26.1931 9.30871H22.079" stroke="black" stroke-width="1.25558" stroke-miterlimit="10" stroke-linecap="round"/>
<path d="M23.5396 27.6738H3.33315" stroke="black" stroke-width="1.25558" stroke-miterlimit="10" stroke-linecap="round"/>
<path d="M7.80301 33.1648C9.31933 33.1648 10.5485 31.9356 10.5485 30.4193C10.5485 28.903 9.31933 27.6738 7.80301 27.6738C6.28669 27.6738 5.05747 28.903 5.05747 30.4193C5.05747 31.9356 6.28669 33.1648 7.80301 33.1648Z" stroke="black" stroke-width="1.25558" stroke-miterlimit="10" stroke-linecap="round"/>
<path d="M20.296 33.1648C21.8123 33.1648 23.0416 31.9356 23.0416 30.4193C23.0416 28.903 21.8123 27.6738 20.296 27.6738C18.7797 27.6738 17.5505 28.903 17.5505 30.4193C17.5505 31.9356 18.7797 33.1648 20.296 33.1648Z" stroke="black" stroke-width="1.25558" stroke-miterlimit="10" stroke-linecap="round"/>
<path d="M23.5396 27.6738L26.1931 9.30463" stroke="black" stroke-width="1.25558" stroke-miterlimit="10" stroke-linecap="round"/>
<path d="M13.6791 17.7044C18.3182 17.7044 22.079 13.9437 22.079 9.30462C22.079 4.66552 18.3182 0.904785 13.6791 0.904785C9.04003 0.904785 5.27929 4.66552 5.27929 9.30462C5.27929 13.9437 9.04003 17.7044 13.6791 17.7044Z" stroke="black" stroke-width="1.25558" stroke-miterlimit="10" stroke-linecap="round"/>
<path d="M13.6791 4.61292V13.9963" stroke="black" stroke-width="1.25558" stroke-miterlimit="10" stroke-linecap="round"/>
<path d="M18.3708 9.30463H8.98326" stroke="black" stroke-width="1.25558" stroke-miterlimit="10" stroke-linecap="round"/>
</svg>
