<svg width="45" height="35" viewBox="0 0 45 35" fill="none" xmlns="http://www.w3.org/2000/svg">
<path d="M24.2241 30.0151L24.2927 33.7749H20.7811V30.0151H24.2241Z" fill="white"/>
<path d="M43.4614 26.0387C43.4614 26.1338 43.4614 26.2288 43.4456 26.3186C43.3188 27.5648 42.3525 28.5734 41.1221 28.7583C41.0746 28.7635 41.0323 28.7688 40.9848 28.7741C40.8898 28.7847 40.8 28.79 40.7049 28.79H4.30556C4.21051 28.79 4.11546 28.7899 4.02569 28.7741C2.73193 28.6421 1.69693 27.6071 1.56491 26.3133C1.55435 26.2183 1.54907 26.1285 1.54907 26.0335V25.8539L43.4614 25.7853V26.0335V26.0387Z" fill="white"/>
<path d="M44.6813 26.0388C44.6813 26.1761 44.676 26.3134 44.6602 26.4454C44.4754 28.283 43.0285 29.7563 41.2066 29.9887L41.1063 29.9992C40.9743 30.0151 40.837 30.0204 40.6997 30.0204H25.444V29.4078C25.444 29.0699 25.1694 28.7953 24.8314 28.7953H40.6997C40.7948 28.7953 40.8898 28.7953 40.9796 28.7794C41.0271 28.7794 41.0746 28.7689 41.1169 28.7636C42.3473 28.5788 43.3136 27.5701 43.4404 26.3239C43.4509 26.2289 43.4562 26.1391 43.4562 26.044V24.6394H44.0687C44.4067 24.6394 44.6813 24.914 44.6813 25.252V26.044V26.0388Z" fill="black"/>
<path d="M44.6813 3.97103V25.252C44.6813 24.914 44.4067 24.6394 44.0687 24.6394H43.4562V3.97631C43.4562 2.46077 42.2205 1.2251 40.705 1.2251H4.29504C2.7795 1.2251 1.54383 2.46077 1.54383 3.97631V24.6394H0.931278C0.593318 24.6394 0.318726 24.914 0.318726 25.252V3.97103C0.318726 1.77957 2.10358 0 4.28976 0H40.705C42.8964 0 44.676 1.77957 44.676 3.97103H44.6813Z" fill="black"/>
<path d="M44.6654 26.4454C44.4806 28.2831 43.039 29.7564 41.2119 29.9887C43.0337 29.7564 44.4753 28.2831 44.6654 26.4454Z" fill="black"/>
<path d="M43.4614 24.6342V25.7906L1.54907 25.8593V24.6342H43.4614Z" fill="black"/>
<path d="M43.4614 3.97106V24.6341H1.54907V3.97106C1.54907 2.45552 2.78474 1.21985 4.30028 1.21985H40.7155C42.231 1.21985 43.4667 2.45552 43.4667 3.97106H43.4614Z" fill="url(#paint0_linear_301_1505)"/>
<path d="M43.4457 26.3186C43.3242 27.5701 42.3579 28.5787 41.1222 28.7583C42.3526 28.5681 43.3189 27.5648 43.4457 26.3186Z" fill="black"/>
<path d="M41.1116 29.994L41.2119 29.9834C41.1802 29.9834 41.1433 29.994 41.1116 29.994Z" fill="black"/>
<path d="M40.9849 28.7794C41.0324 28.7794 41.0799 28.7688 41.1222 28.7635C41.0746 28.7688 41.0324 28.7794 40.9849 28.7794Z" fill="black"/>
<path d="M29.2724 33.7749C29.6104 33.7749 29.885 34.0495 29.885 34.3875C29.885 34.7254 29.6104 35 29.2724 35H24.8367C25.1746 35 25.4492 34.7254 25.4492 34.3875V33.7749H29.2724Z" fill="black"/>
<path d="M25.4492 33.7749V34.3875C25.4492 34.7254 25.1746 35 24.8367 35H20.1686C19.8306 35 19.556 34.7254 19.556 34.3875V33.7749H20.7811V33.8436L24.2928 33.7749H25.4492Z" fill="black"/>
<path d="M25.4492 30.0151V33.7749H24.2928L24.2241 30.0151H25.4492Z" fill="black"/>
<path d="M25.4492 29.4078V30.0204H24.2241V29.9517L20.7811 30.0204H19.556V29.4078C19.556 29.0699 19.8306 28.7953 20.1686 28.7953H24.8367C25.1746 28.7953 25.4492 29.0699 25.4492 29.4078Z" fill="black"/>
<path d="M24.2927 33.7749L20.7811 33.8436V33.7749H24.2927Z" fill="black"/>
<path d="M24.2241 29.9464V30.0151H20.7811L24.2241 29.9464Z" fill="black"/>
<path d="M20.7864 30.0151H19.5613V33.7749H20.7864V30.0151Z" fill="black"/>
<path d="M4.30557 28.7953H20.1686C19.8306 28.7953 19.556 29.0699 19.556 29.4078V30.0204H4.30557C4.16827 30.0204 4.03098 30.0151 3.89896 29.9993C2.02962 29.8092 0.5352 28.3148 0.345097 26.4454C0.329255 26.3134 0.323975 26.1761 0.323975 26.0388V25.2467C0.323975 24.9087 0.598567 24.6342 0.936527 24.6342H1.54908V26.0388C1.54908 26.1339 1.54908 26.2289 1.56492 26.3187C1.69166 27.6177 2.72666 28.6527 4.0257 28.7795C4.12075 28.79 4.21052 28.7953 4.30557 28.7953Z" fill="black"/>
<path d="M20.1686 35H15.7329C15.395 35 15.1204 34.7254 15.1204 34.3875C15.1204 34.0495 15.395 33.7749 15.7329 33.7749H19.5561V34.3875C19.5561 34.7254 19.8307 35 20.1686 35Z" fill="black"/>
<path d="M1.55969 26.3186C1.69171 27.6124 2.72671 28.6474 4.02046 28.7794C2.72143 28.6526 1.68643 27.6176 1.55969 26.3186Z" fill="black"/>
<path d="M0.345093 26.4454C0.535195 28.3148 2.02961 29.8092 3.89896 29.9993C2.02433 29.8145 0.529915 28.3201 0.345093 26.4454Z" fill="black"/>
<defs>
<linearGradient id="paint0_linear_301_1505" x1="1.54907" y1="12.927" x2="43.4614" y2="12.927" gradientUnits="userSpaceOnUse">
<stop offset="0.04" stop-color="#649173"/>
<stop offset="0.15" stop-color="#799D7C"/>
<stop offset="0.4" stop-color="#A6B78E"/>
<stop offset="0.53" stop-color="#B8C196"/>
<stop offset="0.68" stop-color="#BCC190"/>
<stop offset="0.86" stop-color="#C8C480"/>
<stop offset="1" stop-color="#D6C76F"/>
</linearGradient>
</defs>
</svg>
