<svg width="41" height="40" viewBox="0 0 41 40" fill="none" xmlns="http://www.w3.org/2000/svg">
<path d="M37.568 20C37.568 19.6367 37.2722 19.341 36.9089 19.341H36.2343C36.1357 16.9538 35.5078 14.7016 34.4543 12.7037L35.0408 12.3664C35.1912 12.2782 35.3002 12.138 35.3469 11.9668C35.3885 11.8215 35.3729 11.6658 35.3158 11.5309C36.7481 14.027 37.568 16.9175 37.568 20Z" fill="black"/>
<path d="M36.9089 19.3409C37.2722 19.3409 37.568 19.6367 37.568 20C37.568 20.3633 37.2722 20.6591 36.9089 20.6591H36.2343C36.2447 20.4411 36.2499 20.2231 36.2499 20C36.2499 19.7769 36.2499 19.5589 36.2343 19.3409H36.9089Z" fill="black"/>
<path d="M36.9089 20.6538C37.2722 20.6538 37.568 20.358 37.568 19.9948C37.568 23.0721 36.7481 25.9626 35.3158 28.4587C35.4455 28.1577 35.3314 27.7944 35.0408 27.6284L34.4543 27.2911C35.5078 25.2931 36.1357 23.0409 36.2343 20.6538H36.9089Z" fill="black"/>
<path d="M36.2343 19.3409C36.2447 19.5589 36.2499 19.7769 36.2499 20C36.2499 20.2231 36.2499 20.4411 36.2343 20.6591H35.0356C34.6723 20.6591 34.3765 20.3633 34.3765 20C34.3765 19.6367 34.6723 19.3409 35.0356 19.3409H36.2343Z" fill="black"/>
<path d="M36.2343 19.341H35.0355C34.6723 19.341 34.3765 19.6368 34.3765 20C34.3765 20.3633 34.6723 20.6591 35.0355 20.6591H36.2343C36.1357 23.0462 35.5078 25.2984 34.4543 27.2964L33.4164 26.6996C33.3178 26.6425 33.2037 26.6114 33.0895 26.6114C32.856 26.6114 32.638 26.7359 32.5187 26.9383C32.4305 27.0888 32.4097 27.2652 32.4512 27.4365C32.4979 27.6077 32.6069 27.7478 32.7574 27.8361L33.7953 28.4328C32.555 30.3841 30.8892 32.0499 28.938 33.2901L28.336 32.2523C28.2167 32.0499 27.9987 31.9253 27.7652 31.9253C27.651 31.9253 27.5368 31.9565 27.4382 32.0135C27.1269 32.1952 27.0179 32.5999 27.1995 32.9113L27.8015 33.9492C25.8036 35.0026 23.5514 35.6306 21.1642 35.7292V34.5304C21.1642 34.1671 20.8684 33.8713 20.5052 33.8713C20.1419 33.8713 19.8461 34.1671 19.8461 34.5304V35.7292C17.459 35.6306 15.2068 35.0026 13.2089 33.9492L13.8108 32.9113C13.9925 32.5948 13.8835 32.1952 13.5669 32.0135C13.4683 31.9565 13.3542 31.9253 13.24 31.9253C13.0065 31.9253 12.7885 32.0499 12.6692 32.2523L12.0724 33.2901C10.1212 32.0447 8.45536 30.3841 7.21509 28.4328L8.25298 27.8361C8.40347 27.7478 8.51246 27.6077 8.55916 27.4365C8.60587 27.2652 8.57992 27.0888 8.4917 26.9383C8.37234 26.7359 8.15437 26.6114 7.92085 26.6114C7.80668 26.6114 7.69251 26.6425 7.59391 26.6996L6.55603 27.2964C5.50258 25.2984 4.87466 23.0462 4.77606 20.6591H5.97482C6.33807 20.6591 6.63388 20.3633 6.63388 20C6.63388 19.6368 6.33807 19.341 5.97482 19.341H4.77606C4.87466 16.9539 5.50258 14.7017 6.55603 12.7037L7.59391 13.3005C7.6977 13.3576 7.80668 13.3887 7.92085 13.3887C8.15437 13.3887 8.37234 13.2642 8.4917 13.0618C8.57992 12.9061 8.60587 12.7297 8.55916 12.5636C8.51246 12.3924 8.40347 12.2523 8.25298 12.164L7.21509 11.5672C8.45536 9.61603 10.1212 7.95023 12.0724 6.70996L12.6692 7.74784C12.7885 7.95023 13.0065 8.07996 13.24 8.07996C13.3542 8.07996 13.4683 8.04883 13.5669 7.99174C13.8783 7.81011 13.9925 7.40534 13.8108 7.09397L13.2089 6.05609C15.2068 5.00264 17.459 4.37472 19.8461 4.27612V5.47488C19.8461 5.83814 20.1419 6.13393 20.5052 6.13393C20.8684 6.13393 21.1642 5.83814 21.1642 5.47488V4.27612C23.5514 4.37472 25.8036 5.00264 27.8015 6.05609L27.1995 7.09397C27.0179 7.40534 27.1269 7.81011 27.4382 7.99174C27.542 8.04883 27.651 8.07996 27.7652 8.07996C27.9987 8.07996 28.2167 7.95542 28.336 7.74784L28.938 6.70996C30.8892 7.95542 32.555 9.61603 33.7953 11.5672L32.7574 12.164C32.6069 12.2523 32.4979 12.3924 32.4512 12.5636C32.4045 12.7349 32.4305 12.9113 32.5187 13.0618C32.638 13.2642 32.856 13.3887 33.0895 13.3887C33.2037 13.3887 33.3178 13.3576 33.4164 13.3005L34.4543 12.7037C35.5078 14.7017 36.1357 16.9539 36.2343 19.341ZM24.9577 22.9321C25.1601 22.6311 25.0719 22.2211 24.7709 22.0187L21.159 19.6835V9.4811C21.159 9.11785 20.8632 8.82205 20.5 8.82205C20.1367 8.82205 19.8409 9.11785 19.8409 9.4811V19.9949C19.8409 20.218 19.9499 20.4256 20.1367 20.5449L24.0444 23.1189C24.1533 23.1915 24.2779 23.2279 24.4076 23.2279C24.6308 23.2279 24.8383 23.1189 24.9577 22.9321Z" fill="url(#paint0_linear_301_1446)"/>
<path d="M35.3158 11.5309C35.3781 11.6658 35.3885 11.8215 35.347 11.9668C35.3002 12.138 35.1913 12.2781 35.0408 12.3664L34.4544 12.7037C34.252 12.3145 34.0288 11.9356 33.7953 11.562L34.3817 11.2247C34.4803 11.1676 34.5945 11.1365 34.7086 11.1365C34.9214 11.1365 35.1186 11.2403 35.2432 11.4063C35.2691 11.4478 35.2899 11.4894 35.3158 11.5309Z" fill="black"/>
<path d="M35.0408 27.6336C35.3314 27.8049 35.4455 28.163 35.3158 28.4639C35.2899 28.5106 35.2639 28.5522 35.238 28.5989C35.238 28.5989 35.238 28.5989 35.238 28.6041C35.1134 28.7649 34.9214 28.8583 34.7138 28.8583C34.5996 28.8583 34.4855 28.8272 34.3869 28.7701L33.8005 28.4328C34.0392 28.0644 34.2572 27.6803 34.4595 27.2911L35.0459 27.6285L35.0408 27.6336Z" fill="black"/>
<path d="M35.3158 11.5309C35.2898 11.4894 35.269 11.4479 35.2431 11.4064C35.2587 11.4271 35.2691 11.4427 35.2846 11.4635C35.295 11.4842 35.3054 11.505 35.3158 11.5257V11.5309Z" fill="black"/>
<path d="M35.2379 28.5989C35.2639 28.5522 35.295 28.5107 35.3158 28.464C35.3054 28.4899 35.295 28.5107 35.2794 28.5315C35.2639 28.5574 35.2535 28.5782 35.2327 28.5989H35.2379Z" fill="black"/>
<path d="M35.2431 11.4115C35.1186 11.2403 34.9214 11.1417 34.7086 11.1417C34.5944 11.1417 34.4803 11.1728 34.3817 11.2299L33.7953 11.5672C32.555 9.616 30.8892 7.9502 28.938 6.70993L29.2753 6.12353C29.4414 5.83292 29.3635 5.47485 29.1092 5.27246C31.6417 6.75663 33.759 8.87391 35.2379 11.4115H35.2431Z" fill="black"/>
<path d="M34.7086 28.8583C34.911 28.8583 35.1082 28.7649 35.2327 28.604C33.7486 31.1365 31.6313 33.2538 29.0989 34.7379C29.2182 34.6497 29.3064 34.5252 29.3428 34.3799C29.3895 34.2086 29.3635 34.0322 29.2805 33.8817L28.9432 33.2953C30.8944 32.0498 32.5602 30.3892 33.8005 28.438L34.3869 28.7753C34.4855 28.8324 34.5996 28.8635 34.7138 28.8635L34.7086 28.8583Z" fill="black"/>
<path d="M20.5 0C31.5275 0 40.5 8.9725 40.5 20C40.5 31.0275 31.5275 40 20.5 40C9.47248 40 0.5 31.0275 0.5 20C0.5 8.9725 9.47767 0 20.5 0ZM39.1819 20C39.1819 9.69901 30.801 1.31811 20.5 1.31811C10.199 1.31811 1.8181 9.69901 1.8181 20C1.8181 30.301 10.199 38.6819 20.5 38.6819C30.801 38.6819 39.1819 30.301 39.1819 20Z" fill="black"/>
<path d="M34.4543 12.7037L33.4165 13.3005C33.3127 13.3576 33.2037 13.3887 33.0895 13.3887C32.856 13.3887 32.6381 13.2642 32.5187 13.0618C32.4305 12.9061 32.4097 12.7297 32.4512 12.5636C32.4979 12.3924 32.6069 12.2523 32.7574 12.164L33.7953 11.5673C34.034 11.9357 34.252 12.3197 34.4543 12.7089V12.7037Z" fill="black"/>
<path d="M33.4216 26.6944L34.4595 27.2911C34.2571 27.6803 34.034 28.0592 33.8004 28.4328L32.7626 27.836C32.6121 27.7478 32.5031 27.6077 32.4564 27.4364C32.4097 27.2652 32.4357 27.0888 32.5239 26.9383C32.6432 26.7359 32.8612 26.6113 33.0947 26.6113C33.2089 26.6113 33.323 26.6425 33.4216 26.6995V26.6944Z" fill="black"/>
<path d="M20.5 1.31287C30.801 1.31287 39.1819 9.69377 39.1819 19.9948C39.1819 30.2957 30.801 38.6766 20.5 38.6766C10.199 38.6766 1.81812 30.2957 1.81812 19.9948C1.81812 9.69377 10.199 1.31287 20.5 1.31287ZM37.5628 19.9948C37.5628 16.9174 36.7429 14.0217 35.3106 11.5256C35.3002 11.5049 35.2899 11.4841 35.2795 11.4634C35.2691 11.4426 35.2535 11.4218 35.2379 11.4063C33.759 8.87384 31.6417 6.75137 29.1093 5.2672C29.0833 5.24644 29.0625 5.23087 29.0366 5.2153C29.0106 5.19974 28.9847 5.18936 28.9588 5.17898C26.4627 3.7467 23.5773 2.93196 20.5052 2.93196C17.4331 2.93196 14.5478 3.7467 12.0517 5.17898C12.0257 5.18936 11.9997 5.20493 11.9738 5.2153C11.9479 5.23087 11.9219 5.24644 11.9011 5.2672C9.36871 6.75137 7.25143 8.86865 5.77245 11.4063C5.75688 11.427 5.74652 11.4426 5.73095 11.4634C5.72057 11.4841 5.7102 11.5049 5.69982 11.5256C4.26754 14.0217 3.4476 16.9122 3.4476 19.9948C3.4476 23.0773 4.26754 25.9678 5.69982 28.4639C5.7102 28.4846 5.72057 28.5106 5.73095 28.5313C5.74652 28.5573 5.75688 28.578 5.77764 28.5988C5.77764 28.5988 5.77764 28.5988 5.77764 28.604C7.26181 31.1364 9.3791 33.2537 11.9115 34.7379C11.9323 34.7534 11.953 34.7638 11.9738 34.7794C11.9894 34.7898 12.005 34.795 12.0205 34.8001C14.5218 36.2376 17.4175 37.0627 20.5052 37.0627C23.5929 37.0627 26.4886 36.2376 28.9899 34.8001C29.0055 34.795 29.021 34.7846 29.0366 34.7794C29.0574 34.769 29.0781 34.7534 29.0989 34.7379C31.6313 33.2537 33.7538 31.1364 35.2328 28.604C35.2328 28.604 35.2328 28.604 35.2328 28.5988C35.2535 28.578 35.2639 28.5573 35.2795 28.5313C35.2899 28.5106 35.3054 28.4846 35.3158 28.4639C36.7481 25.9678 37.568 23.0773 37.568 19.9999L37.5628 19.9948Z" fill="white"/>
<path d="M29.2753 33.8765C29.3635 34.027 29.3843 34.2034 29.3376 34.3747C29.2961 34.52 29.213 34.6445 29.0937 34.7328C29.0574 34.7535 29.021 34.7743 28.9847 34.795C28.8965 34.8365 28.8031 34.8573 28.7045 34.8573C28.4709 34.8573 28.253 34.7328 28.1337 34.5304L27.7963 33.944C28.1855 33.7416 28.5644 33.5184 28.938 33.2849L29.2753 33.8713V33.8765Z" fill="black"/>
<path d="M29.1093 5.2725C29.3635 5.47489 29.4414 5.83295 29.2753 6.12356L28.938 6.70997C28.5696 6.47644 28.1855 6.2533 27.7963 6.05091L28.1336 5.46451C28.253 5.26212 28.4709 5.13757 28.7045 5.13757C28.7875 5.13757 28.8757 5.15314 28.9536 5.18428C29.0055 5.21023 29.0574 5.24136 29.1041 5.2725H29.1093Z" fill="black"/>
<path d="M29.0366 5.22053C29.0625 5.2361 29.0885 5.25167 29.1092 5.27242C29.0573 5.24129 29.0054 5.21015 28.9587 5.1842C28.9847 5.19458 29.0106 5.21015 29.0366 5.22053Z" fill="black"/>
<path d="M28.9899 34.8002C29.0262 34.7794 29.0625 34.7587 29.0988 34.7379C29.0781 34.7535 29.0573 34.7639 29.0366 34.7794C29.021 34.7898 29.0054 34.795 28.9899 34.8002Z" fill="black"/>
<path d="M28.3412 32.2574L28.9432 33.2952C28.5747 33.5288 28.1907 33.7519 27.8015 33.9543L27.1996 32.9164C27.0179 32.605 27.1269 32.2003 27.4383 32.0186C27.5369 31.9616 27.651 31.9304 27.7652 31.9304C27.9987 31.9304 28.2167 32.055 28.336 32.2574H28.3412Z" fill="black"/>
<path d="M28.938 6.70477L28.336 7.74265C28.2167 7.94504 27.9987 8.07478 27.7652 8.07478C27.651 8.07478 27.5369 8.04364 27.4383 7.98656C27.1269 7.80493 27.0179 7.40015 27.1996 7.08879L27.8015 6.0509C28.1907 6.25329 28.5696 6.47644 28.9432 6.70996L28.938 6.70477Z" fill="black"/>
<path d="M28.9588 5.17902C28.8809 5.14789 28.7927 5.13232 28.7096 5.13232C28.4761 5.13232 28.253 5.25686 28.1388 5.45925L27.8015 6.04565C25.8036 4.9922 23.5514 4.36428 21.1643 4.26569V3.59106C21.1643 3.2278 20.8684 2.93201 20.5052 2.93201C23.5825 2.93201 26.4678 3.74674 28.9588 5.17902Z" fill="black"/>
<path d="M28.7045 34.8677C28.8031 34.8677 28.8965 34.8469 28.9847 34.8054C26.4834 36.2429 23.5877 37.068 20.5 37.068C20.8633 37.068 21.1591 36.7722 21.1591 36.4089V35.7343C23.5462 35.6357 25.7984 35.0078 27.7963 33.9543L28.1336 34.5407C28.253 34.7431 28.4709 34.8677 28.7045 34.8677Z" fill="black"/>
<path d="M24.7709 22.0187C25.0719 22.2211 25.1601 22.6259 24.9577 22.932C24.8383 23.1189 24.6308 23.2278 24.4076 23.2278C24.2779 23.2278 24.1533 23.1915 24.0444 23.1189L20.1367 20.5449C19.9499 20.4256 19.8409 20.218 19.8409 19.9948V9.48108C19.8409 9.11782 20.1367 8.82202 20.5 8.82202C20.8632 8.82202 21.159 9.11782 21.159 9.48108V19.6835L24.7709 22.0187Z" fill="black"/>
<path d="M21.159 35.7291V36.4038C21.159 36.767 20.8632 37.0628 20.5 37.0628C20.1367 37.0628 19.8409 36.767 19.8409 36.4038V35.7291C20.0589 35.7395 20.2768 35.7447 20.5 35.7447C20.7231 35.7447 20.9411 35.7447 21.159 35.7291Z" fill="black"/>
<path d="M21.159 34.5304V35.7291C20.9411 35.7395 20.7231 35.7447 20.5 35.7447C20.2768 35.7447 20.0589 35.7447 19.8409 35.7291V34.5304C19.8409 34.1671 20.1367 33.8713 20.5 33.8713C20.8632 33.8713 21.159 34.1671 21.159 34.5304Z" fill="black"/>
<path d="M21.159 4.26569V5.46444C21.159 5.8277 20.8632 6.1235 20.5 6.1235C20.1367 6.1235 19.8409 5.8277 19.8409 5.46444V4.26569C20.0589 4.25531 20.2768 4.25012 20.5 4.25012C20.7231 4.25012 20.9411 4.25012 21.159 4.26569Z" fill="black"/>
<path d="M21.159 3.59106V4.26569C20.9411 4.25531 20.7231 4.25012 20.5 4.25012C20.2768 4.25012 20.0589 4.25012 19.8409 4.26569V3.59106C19.8409 3.2278 20.1367 2.93201 20.5 2.93201C20.8632 2.93201 21.159 3.2278 21.159 3.59106Z" fill="black"/>
<path d="M20.5 2.93726C20.1367 2.93726 19.841 3.23305 19.841 3.59631V4.27093C17.4538 4.36953 15.2016 4.99745 13.2037 6.0509L12.8664 5.4645C12.747 5.26211 12.5291 5.13757 12.2955 5.13757C12.2125 5.13757 12.1243 5.15314 12.0464 5.18427C14.5426 3.75199 17.4279 2.93726 20.5 2.93726Z" fill="black"/>
<path d="M19.8462 36.4037C19.8462 36.7669 20.1419 37.0627 20.5052 37.0627C17.4175 37.0627 14.5218 36.2376 12.0205 34.8002C12.1087 34.8417 12.2021 34.8624 12.3007 34.8624C12.5342 34.8624 12.7522 34.7379 12.8716 34.5355L13.2089 33.9491C15.2068 35.0025 17.459 35.6305 19.8462 35.7291V36.4037Z" fill="black"/>
<path d="M13.8057 7.0836C13.9873 7.39496 13.8783 7.79974 13.5618 7.98137C13.4632 8.03845 13.349 8.06959 13.2348 8.06959C13.0013 8.06959 12.7834 7.94504 12.664 7.73747L12.0672 6.69958C12.4356 6.46606 12.8145 6.24291 13.2037 6.04053L13.8057 7.07841V7.0836Z" fill="black"/>
<path d="M13.5669 32.0135C13.8783 32.1951 13.9925 32.5999 13.8109 32.9113L13.2089 33.9492C12.8197 33.7468 12.4356 33.5236 12.0672 33.2901L12.664 32.2522C12.7834 32.0498 13.0013 31.9253 13.2348 31.9253C13.349 31.9253 13.4632 31.9564 13.5618 32.0135H13.5669Z" fill="black"/>
<path d="M13.2089 33.9492L12.8716 34.5356C12.7522 34.7379 12.5343 34.8625 12.3007 34.8625C12.2021 34.8625 12.1087 34.8417 12.0205 34.8002C11.9842 34.7795 11.9479 34.7587 11.9115 34.7379C11.7922 34.6497 11.704 34.5252 11.6677 34.3799C11.6209 34.2086 11.6469 34.0322 11.7351 33.8817L12.0724 33.2953C12.4409 33.5288 12.8249 33.752 13.2141 33.9543L13.2089 33.9492Z" fill="black"/>
<path d="M12.8716 5.45932L13.2089 6.04572C12.8196 6.24811 12.4408 6.47125 12.0724 6.70478L11.7351 6.11837C11.569 5.83295 11.6468 5.4697 11.9011 5.2725C11.9478 5.24136 12.0049 5.21023 12.0516 5.18428C12.1295 5.15314 12.2177 5.13757 12.3007 5.13757C12.5394 5.13757 12.7574 5.26212 12.8716 5.46451V5.45932Z" fill="black"/>
<path d="M11.7299 6.11828L12.0672 6.70468C10.1108 7.95014 8.45019 9.61075 7.20992 11.562L6.62351 11.2247C6.52491 11.1676 6.41075 11.1364 6.29658 11.1364C6.08381 11.1364 5.88663 11.2402 5.76208 11.4063C7.24626 8.87385 9.35835 6.75138 11.8908 5.26721C11.6365 5.4696 11.5587 5.82767 11.7247 6.11309L11.7299 6.11828Z" fill="black"/>
<path d="M12.0672 33.2952L11.7299 33.8816C11.6416 34.0321 11.6209 34.2086 11.6624 34.3798C11.7039 34.5251 11.7869 34.6497 11.9063 34.7379C9.37386 33.2537 7.25657 31.1364 5.7724 28.604C5.89695 28.7649 6.08896 28.8583 6.29654 28.8583C6.4107 28.8583 6.52487 28.8271 6.62347 28.77L7.20988 28.4327C8.45015 30.384 10.1159 32.0498 12.0672 33.29V33.2952Z" fill="black"/>
<path d="M12.0464 5.17908C11.9945 5.20502 11.9426 5.23616 11.8959 5.2673C11.9219 5.24654 11.9426 5.23097 11.9686 5.2154C11.9945 5.19984 12.0205 5.18946 12.0464 5.17908Z" fill="black"/>
<path d="M11.9063 34.7379C11.9426 34.7587 11.979 34.7794 12.0153 34.8002C11.9997 34.795 11.9841 34.7846 11.9686 34.7794C11.9478 34.769 11.9271 34.7535 11.9063 34.7379Z" fill="black"/>
<path d="M8.55398 12.5636C8.60068 12.7348 8.57474 12.9113 8.48652 13.0618C8.36716 13.2641 8.14918 13.3887 7.91566 13.3887C7.80149 13.3887 7.68732 13.3575 7.58872 13.3005L6.55084 12.7037C6.75323 12.3145 6.97638 11.9356 7.20991 11.562L8.24779 12.1588C8.39828 12.247 8.50728 12.3871 8.55398 12.5584V12.5636Z" fill="black"/>
<path d="M8.48652 26.9382C8.57474 27.0887 8.60068 27.2651 8.55398 27.4364C8.50728 27.6076 8.39828 27.7477 8.24779 27.836L7.20991 28.4328C6.97119 28.0643 6.75323 27.6803 6.55084 27.2911L7.58872 26.6943C7.68732 26.6372 7.80149 26.6061 7.91566 26.6061C8.14918 26.6061 8.36716 26.7306 8.48652 26.933V26.9382Z" fill="black"/>
<path d="M6.62351 11.2247L7.20991 11.562C6.9712 11.9305 6.75323 12.3145 6.55085 12.7037L5.96447 12.3664C5.81398 12.2781 5.70499 12.138 5.65828 11.9668C5.61677 11.8215 5.63233 11.671 5.68942 11.5309C5.71536 11.4894 5.73613 11.4478 5.76208 11.4063C5.88662 11.2351 6.0838 11.1365 6.29657 11.1365C6.41074 11.1365 6.52491 11.1676 6.62351 11.2247Z" fill="black"/>
<path d="M7.2099 28.4327L6.62349 28.7701C6.52489 28.8271 6.41072 28.8583 6.29656 28.8583C6.08898 28.8583 5.89697 28.7649 5.77242 28.604C5.77242 28.604 5.77242 28.604 5.77242 28.5988C5.74647 28.5573 5.72055 28.5106 5.6946 28.4691C5.56486 28.1681 5.67383 27.8048 5.96962 27.6336L6.55603 27.2963C6.75842 27.6855 6.98157 28.0643 7.21509 28.4379L7.2099 28.4327Z" fill="black"/>
<path d="M6.55084 27.2963L5.96447 27.6336C5.66867 27.8049 5.55968 28.1681 5.68941 28.4691C4.25714 25.973 3.43719 23.0825 3.43719 20C3.43719 20.3633 3.733 20.6591 4.09626 20.6591H4.77088C4.86948 23.0462 5.49739 25.2984 6.55084 27.2963Z" fill="black"/>
<path d="M5.96447 12.3664L6.55084 12.7037C5.49739 14.7016 4.86948 16.9538 4.77088 19.341H4.09626C3.733 19.341 3.43719 19.6367 3.43719 20C3.43719 16.9227 4.25714 14.027 5.68941 11.5309C5.62714 11.6658 5.61676 11.8215 5.65828 11.9668C5.70498 12.138 5.81398 12.2782 5.96447 12.3664Z" fill="black"/>
<path d="M5.96962 19.3409C6.33287 19.3409 6.62868 19.6367 6.62868 20C6.62868 20.3633 6.33287 20.6591 5.96962 20.6591H4.77086C4.76048 20.4411 4.75531 20.2231 4.75531 20C4.75531 19.7769 4.75529 19.5589 4.77086 19.3409H5.96962Z" fill="black"/>
<path d="M5.7724 28.5989C5.7724 28.5989 5.74128 28.5574 5.72572 28.5315C5.71534 28.5107 5.70496 28.4899 5.69458 28.464C5.72053 28.5107 5.74646 28.5522 5.7724 28.5937V28.5989Z" fill="black"/>
<path d="M5.72572 11.4686C5.72572 11.4686 5.75167 11.4271 5.76724 11.4115C5.74129 11.453 5.72053 11.4945 5.69458 11.536C5.70496 11.5153 5.71534 11.4945 5.72572 11.4738V11.4686Z" fill="black"/>
<path d="M4.09626 19.3409H4.77088C4.7605 19.5589 4.75533 19.7769 4.75533 20C4.75533 20.2231 4.75531 20.4411 4.77088 20.6591H4.09626C3.733 20.6591 3.43719 20.3633 3.43719 20C3.43719 19.6367 3.733 19.3409 4.09626 19.3409Z" fill="black"/>
<defs>
<linearGradient id="paint0_linear_301_1446" x1="4.77087" y1="20" x2="36.2343" y2="20" gradientUnits="userSpaceOnUse">
<stop offset="0.04" stop-color="#649173"/>
<stop offset="0.15" stop-color="#799D7C"/>
<stop offset="0.4" stop-color="#A6B78E"/>
<stop offset="0.53" stop-color="#B8C196"/>
<stop offset="0.68" stop-color="#BCC190"/>
<stop offset="0.86" stop-color="#C8C480"/>
<stop offset="1" stop-color="#D6C76F"/>
</linearGradient>
</defs>
</svg>
