<svg width="101" height="75" viewBox="0 0 101 75" fill="none" xmlns="http://www.w3.org/2000/svg">
<g clip-path="url(#clip0_37_260)">
<path d="M71.1657 27.0762V28.909C71.1657 31.2867 69.224 33.2284 66.8364 33.2284H66.2816C63.8941 33.2284 61.9523 31.2867 61.9523 28.909V27.0762C61.9523 24.6887 63.8941 22.7568 66.2816 22.7568H66.8364C69.224 22.7568 71.1657 24.6887 71.1657 27.0762Z" fill="white"/>
<path d="M34.3716 23.6782L17.7578 31.7226V15.6338L34.3716 23.6782Z" fill="white"/>
<path d="M97.2902 63.1471V64.8511C97.2902 68.1501 94.6153 70.8348 91.3163 70.8348H10.7932C7.49426 70.8348 4.80949 68.1501 4.80949 64.8511V63.1471H37.096L42.2476 66.773H59.971L64.3597 63.1471H97.2902Z" fill="white"/>
<path d="M23.7217 3.66626C34.758 3.66626 43.7336 12.6419 43.7336 23.6781C43.7336 34.7144 34.758 43.69 23.7217 43.69C12.6855 43.69 3.69992 34.7144 3.69992 23.6781C3.69992 12.6419 12.6855 3.66626 23.7217 3.66626ZM37.6805 23.6781C37.6805 22.4695 37.0068 21.3996 35.927 20.8745L19.0259 12.6914C18.055 12.2258 16.9256 12.2852 16.0142 12.8598C15.1027 13.4344 14.5579 14.4152 14.5579 15.4951V31.8612C14.5579 32.9411 15.1027 33.9219 16.0142 34.4965C16.5194 34.8135 17.094 34.972 17.6686 34.972C18.1342 34.972 18.5999 34.8729 19.0259 34.6649L35.927 26.4818C37.0068 25.9567 37.6805 24.8868 37.6805 23.6781Z" fill="url(#paint0_linear_37_260)"/>
<path d="M100.5 59.9373V64.8511C100.5 69.9135 96.3787 74.0347 91.3163 74.0347H10.7932C5.73083 74.0347 1.60957 69.9135 1.60957 64.8511V59.9373H6.68189V61.4134H9.88181V59.9373H38.1164L43.2581 63.5731H58.8119L63.2105 59.9373H92.2277V62.1465H95.4277V59.9373H100.5ZM97.2902 64.8511V63.1471H64.3597L59.971 66.773H42.2476L37.096 63.1471H4.80949V64.8511C4.80949 68.1501 7.49426 70.8348 10.7932 70.8348H91.3163C94.6153 70.8348 97.2902 68.1501 97.2902 64.8511Z" fill="black"/>
<path d="M95.4277 59.9373H92.2278V62.1465H95.4277V59.9373Z" fill="black"/>
<path d="M95.4277 16.139V59.9373H92.2277V16.139C92.2277 15.0393 91.3361 14.1477 90.2365 14.1477H49.0536V10.9379H90.2365C93.0996 10.9379 95.4277 13.266 95.4277 16.139Z" fill="black"/>
<path d="M81.4788 48.1581V55.5089H78.2789V48.1581C78.2789 46.2163 77.0504 44.443 75.2275 43.7495L74.9997 43.6702C69.5113 41.5997 63.4681 41.6195 57.9896 43.7297C56.1865 44.4232 54.9779 46.1965 54.9779 48.1283V55.3009H51.7681V48.1283C51.7681 44.8789 53.8089 41.9068 56.8404 40.7378C63.052 38.3502 69.8976 38.3205 76.1291 40.6685L76.3569 40.7576C79.4182 41.9068 81.4788 44.8888 81.4788 48.1581Z" fill="black"/>
<path d="M74.3656 27.0762V28.909C74.3656 33.06 70.9874 36.4283 66.8364 36.4283H66.2816C62.1307 36.4283 58.7524 33.06 58.7524 28.909V27.0762C58.7524 22.9252 62.1307 19.547 66.2816 19.547H66.8364C70.9874 19.547 74.3656 22.9252 74.3656 27.0762ZM71.1657 28.909V27.0762C71.1657 24.6887 69.224 22.7568 66.8364 22.7568H66.2816C63.8941 22.7568 61.9523 24.6887 61.9523 27.0762V28.909C61.9523 31.2866 63.8941 33.2284 66.2816 33.2284H66.8364C69.224 33.2284 71.1657 31.2866 71.1657 28.909Z" fill="black"/>
<path d="M23.7217 0.456421C36.5214 0.456421 46.9335 10.8785 46.9335 23.6781C46.9335 36.4778 36.5214 46.8998 23.7217 46.8998C10.922 46.8998 0.5 36.4778 0.5 23.6781C0.5 10.8785 10.9121 0.456421 23.7217 0.456421ZM43.7336 23.6781C43.7336 12.6419 34.758 3.66625 23.7217 3.66625C12.6855 3.66625 3.69992 12.6419 3.69992 23.6781C3.69992 34.7144 12.6855 43.69 23.7217 43.69C34.758 43.69 43.7336 34.7144 43.7336 23.6781Z" fill="black"/>
<path d="M35.927 20.8745C37.0068 21.3996 37.6805 22.4695 37.6805 23.6781C37.6805 24.8868 37.0068 25.9567 35.927 26.4818L19.0259 34.6649C18.5999 34.8729 18.1342 34.972 17.6686 34.972C17.094 34.972 16.5194 34.8135 16.0142 34.4964C15.1027 33.9218 14.5579 32.9411 14.5579 31.8612V15.4951C14.5579 14.4152 15.1027 13.4344 16.0142 12.8598C16.9256 12.2852 18.055 12.2258 19.0259 12.6914L35.927 20.8745ZM17.7578 31.7225L34.3716 23.6781L17.7578 15.6338V31.7225Z" fill="black"/>
<path d="M9.88181 59.9373H6.68188V61.4134H9.88181V59.9373Z" fill="black"/>
<path d="M9.88181 45.4336H6.68188V59.9373H9.88181V45.4336Z" fill="black"/>
</g>
<defs>
<linearGradient id="paint0_linear_37_260" x1="3.69992" y1="23.6781" x2="43.7336" y2="23.6781" gradientUnits="userSpaceOnUse">
<stop offset="0.04" stop-color="#649173"/>
<stop offset="0.15" stop-color="#799D7C"/>
<stop offset="0.4" stop-color="#A6B78E"/>
<stop offset="0.53" stop-color="#B8C196"/>
<stop offset="0.68" stop-color="#BCC190"/>
<stop offset="0.86" stop-color="#C8C480"/>
<stop offset="1" stop-color="#D6C76F"/>
</linearGradient>
<clipPath id="clip0_37_260">
<rect width="100" height="73.5784" fill="white" transform="translate(0.5 0.456421)"/>
</clipPath>
</defs>
</svg>
