<svg width="65" height="91" viewBox="0 0 65 91" fill="none" xmlns="http://www.w3.org/2000/svg">
<g clip-path="url(#clip0_36_326)">
<path d="M59.3314 24.7154C62.1657 25.8132 64.032 28.6875 64.032 31.8212C64.032 34.955 62.1757 37.8192 59.2914 39.0867C61.1976 41.452 61.3773 44.8751 59.8104 47.5797C58.4032 50.0348 55.7685 51.5518 52.9341 51.5518C52.6547 51.5518 52.3753 51.5318 52.0958 51.5118C52.3753 53.4679 51.8264 55.424 50.6687 56.9809L50.5789 56.6815C50.4092 56.0827 49.8503 55.6635 49.2316 55.6635C49.0918 55.6635 48.9621 55.6835 48.8324 55.7234C48.4731 55.8232 48.1737 56.0627 47.994 56.3921C47.8144 56.7214 47.7745 57.1007 47.8743 57.4699L48.3533 59.0667L48.2635 59.1266C47.0659 59.8252 45.6886 60.1845 44.3014 60.1845C42.5948 60.1845 40.9681 59.6556 39.6008 58.6476C39.0918 59.9649 38.1936 61.0827 37.0659 61.8811L36.8563 61.1526C36.6866 60.5538 36.1278 60.1346 35.509 60.1346C35.3693 60.1346 35.2395 60.1546 35.1098 60.1945C34.3613 60.4041 33.9322 61.1925 34.1517 61.931L34.491 63.0887C33.8523 63.2584 33.1836 63.3482 32.505 63.3482C31.8264 63.3482 31.1477 63.2584 30.509 63.0887L30.8483 61.931C31.0679 61.1925 30.6387 60.4041 29.8902 60.1945C29.7605 60.1546 29.6308 60.1346 29.501 60.1346C28.8723 60.1346 28.3234 60.5538 28.1437 61.1526L27.9341 61.8911C26.7765 61.0827 25.8284 59.945 25.2296 58.5977C24.0619 59.6655 22.4152 60.1945 20.7186 60.1945C19.3214 60.1945 17.9441 59.8252 16.7365 59.1266C16.7066 59.1067 16.6866 59.0967 16.6567 59.0767L17.1258 57.4599C17.2256 57.1007 17.1856 56.7214 17.006 56.3921C16.8264 56.0627 16.527 55.8232 16.1677 55.7234C16.0379 55.6835 15.9082 55.6635 15.7685 55.6635C15.1497 55.6635 14.5908 56.0827 14.4212 56.6815L14.3314 56.9809C13.1637 55.414 12.5948 53.438 12.8144 51.412C12.6248 51.5318 12.3453 51.5518 12.0659 51.5518C9.24153 51.5518 6.6068 50.0348 5.18964 47.5797C3.61279 44.8552 3.80241 41.452 5.66868 38.917C2.83435 37.8192 0.968079 34.945 0.968079 31.8212C0.968079 28.6975 2.83435 25.8132 5.71858 24.5458C3.81239 22.1805 3.63275 18.7574 5.18964 16.0528C6.6068 13.5977 9.24153 12.0807 12.0659 12.0807C12.3453 12.0807 12.6248 12.0807 12.9042 12.1206C12.4751 9.09668 14.022 6.07272 16.7365 4.50586C17.9441 3.80726 19.3114 3.44797 20.6986 3.44797C22.4052 3.44797 24.032 3.97692 25.3992 4.9849C26.497 2.15057 29.3813 0.284302 32.505 0.284302C35.6288 0.284302 38.503 2.14059 39.7705 5.02482C40.9381 3.96694 42.5848 3.43799 44.2815 3.43799C45.6886 3.43799 47.0659 3.80726 48.2635 4.50586C50.9781 6.07272 52.525 9.09668 52.1956 12.2204C52.3753 12.0907 52.6547 12.0807 52.9341 12.0807C55.7585 12.0807 58.3932 13.5977 59.8104 16.0528C61.3872 18.7773 61.1976 22.1805 59.3314 24.7154ZM61.2176 31.8212C61.2176 29.7853 60.02 27.939 58.1537 27.1306C57.3952 26.7913 56.8463 26.1426 56.6268 25.3542C56.4172 24.5558 56.5769 23.7174 57.0659 23.0488C58.2635 21.412 58.3833 19.2164 57.3753 17.4599C56.4571 15.8831 54.7605 14.8951 52.9341 14.8951C52.7545 14.8951 52.5749 14.9051 52.3952 14.925H52.3154C51.3274 14.925 50.6587 14.6456 50.1697 14.1466C49.5809 13.5677 49.3014 12.7594 49.3912 11.921C49.6008 9.91504 48.6128 7.95895 46.8563 6.95097C46.0878 6.50187 45.1996 6.26235 44.3014 6.26235C43.2036 6.26235 42.1557 6.60167 41.2675 7.25037C40.7984 7.59967 40.2495 7.77931 39.6707 7.77931C39.4312 7.77931 39.2016 7.74937 38.9621 7.68949C38.1737 7.46993 37.525 6.92103 37.1856 6.16254C36.3773 4.29628 34.531 3.09867 32.505 3.09867C30.4791 3.09867 28.6327 4.29628 27.8144 6.16254C27.485 6.92103 26.8363 7.46993 26.0379 7.68949C25.8084 7.74937 25.5689 7.77931 25.3294 7.77931C24.7505 7.77931 24.2016 7.59967 23.7325 7.25037C22.8543 6.60167 21.7964 6.26235 20.6986 6.26235C19.8004 6.26235 18.9222 6.50187 18.1437 6.95097C16.3872 7.95895 15.3992 9.90506 15.6088 11.921C15.6986 12.7594 15.4192 13.5677 14.8403 14.1466C14.3214 14.6556 13.6427 14.945 12.9142 14.945C12.4252 14.9051 12.2455 14.8951 12.0659 14.8951C10.2395 14.8951 8.54293 15.8831 7.63475 17.4599C6.61678 19.2164 6.73654 21.412 7.94413 23.0488C8.43315 23.7174 8.58285 24.5558 8.37327 25.3542C8.16369 26.1426 7.6048 26.7913 6.84632 27.1306C4.99003 27.939 3.78245 29.7853 3.78245 31.8212C3.78245 33.8572 4.99003 35.6935 6.84632 36.5019C7.6048 36.8412 8.16369 37.4899 8.37327 38.2783C8.58285 39.0767 8.43315 39.915 7.94413 40.5837C6.73654 42.2204 6.61678 44.416 7.63475 46.1725C8.54293 47.7494 10.2395 48.7374 12.0659 48.7374C12.2455 48.7374 12.6647 48.7075 12.6946 48.7075C13.6826 48.7075 14.3413 48.9869 14.8403 49.4859C15.4192 50.0647 15.6986 50.8731 15.6088 51.7114C15.3992 53.7274 16.3872 55.6735 18.1437 56.6815C18.9222 57.1306 19.8004 57.3701 20.6986 57.3701C21.7964 57.3701 22.8543 57.0308 23.7325 56.3721C24.2016 56.0328 24.7505 55.8532 25.3294 55.8532C25.5689 55.8532 25.8084 55.8831 26.0379 55.943C26.8363 56.1625 27.485 56.7114 27.8144 57.4699C28.6327 59.3262 30.4691 60.5338 32.505 60.5338C34.5409 60.5338 36.3773 59.3262 37.1856 57.4699C37.525 56.7114 38.1737 56.1625 38.9621 55.943C39.2016 55.8831 39.4312 55.8532 39.6707 55.8532C40.2495 55.8532 40.7984 56.0328 41.2675 56.3721C42.1557 57.0308 43.2036 57.3701 44.3014 57.3701C45.1996 57.3701 46.0878 57.1306 46.8563 56.6815C48.6128 55.6735 49.6008 53.7174 49.3912 51.7114C49.3014 50.8731 49.5809 50.0647 50.1697 49.4859C50.6787 48.9669 51.3573 48.6875 52.0958 48.6875C52.5749 48.7274 52.7545 48.7374 52.9341 48.7374C54.7605 48.7374 56.4571 47.7494 57.3753 46.1725C58.3833 44.416 58.2635 42.2204 57.0659 40.5837C56.5769 39.915 56.4172 39.0767 56.6268 38.2783C56.8463 37.4799 57.3952 36.8312 58.1537 36.5019C60.02 35.6935 61.2176 33.8472 61.2176 31.8212Z" fill="black"/>
<path d="M58.1537 27.1306C60.02 27.939 61.2176 29.7853 61.2176 31.8212C61.2176 33.8571 60.02 35.6934 58.1537 36.5018C57.3952 36.8312 56.8463 37.4799 56.6268 38.2783C56.4172 39.0767 56.5769 39.915 57.0659 40.5837C58.2635 42.2204 58.3832 44.416 57.3753 46.1725C56.4571 47.7493 54.7605 48.7374 52.9341 48.7374C52.7545 48.7374 52.5749 48.7274 52.0958 48.6875C51.3573 48.6875 50.6786 48.9669 50.1697 49.4859C49.5808 50.0647 49.3014 50.8731 49.3912 51.7114C49.6008 53.7174 48.6128 55.6735 46.8563 56.6815C46.0878 57.1306 45.1996 57.3701 44.3014 57.3701C43.2036 57.3701 42.1557 57.0308 41.2675 56.3721C40.7984 56.0328 40.2495 55.8531 39.6707 55.8531C39.4311 55.8531 39.2016 55.8831 38.9621 55.9429C38.1737 56.1625 37.525 56.7114 37.1856 57.4699C36.3773 59.3262 34.5309 60.5338 32.505 60.5338C30.479 60.5338 28.6327 59.3262 27.8144 57.4699C27.485 56.7114 26.8363 56.1625 26.0379 55.9429C25.8084 55.8831 25.5689 55.8531 25.3293 55.8531C24.7505 55.8531 24.2016 56.0328 23.7325 56.3721C22.8543 57.0308 21.7964 57.3701 20.6986 57.3701C19.8004 57.3701 18.9222 57.1306 18.1437 56.6815C16.3872 55.6735 15.3992 53.7274 15.6088 51.7114C15.6986 50.8731 15.4192 50.0647 14.8403 49.4859C14.3413 48.9869 13.6826 48.7074 12.6946 48.7074C12.6647 48.7074 12.2455 48.7374 12.0659 48.7374C10.2395 48.7374 8.54292 47.7493 7.63474 46.1725C6.61677 44.416 6.73653 42.2204 7.94412 40.5837C8.43314 39.915 8.58284 39.0767 8.37326 38.2783C8.16368 37.4898 7.6048 36.8411 6.84631 36.5018C4.99002 35.6934 3.78244 33.8471 3.78244 31.8212C3.78244 29.7952 4.99002 27.939 6.84631 27.1306C7.6048 26.7912 8.16368 26.1425 8.37326 25.3541C8.58284 24.5557 8.43314 23.7174 7.94412 23.0487C6.73653 21.412 6.61677 19.2164 7.63474 17.4599C8.54292 15.8831 10.2395 14.895 12.0659 14.895C12.2455 14.895 12.4252 14.905 12.9142 14.9449C13.6427 14.9449 14.3214 14.6555 14.8403 14.1465C15.4192 13.5677 15.6986 12.7593 15.6088 11.921C15.3992 9.90502 16.3872 7.95891 18.1437 6.95093C18.9222 6.50183 19.8004 6.26231 20.6986 6.26231C21.7964 6.26231 22.8543 6.60163 23.7325 7.25033C24.2016 7.59963 24.7505 7.77927 25.3293 7.77927C25.5689 7.77927 25.8084 7.74933 26.0379 7.68945C26.8363 7.46989 27.485 6.92099 27.8144 6.1625C28.6327 4.29624 30.4691 3.09863 32.505 3.09863C34.5409 3.09863 36.3773 4.29624 37.1856 6.1625C37.525 6.92099 38.1737 7.46989 38.9621 7.68945C39.2016 7.74933 39.4311 7.77927 39.6707 7.77927C40.2495 7.77927 40.7984 7.59963 41.2675 7.25033C42.1557 6.60163 43.2036 6.26231 44.3014 6.26231C45.1996 6.26231 46.0878 6.50183 46.8563 6.95093C48.6128 7.95891 49.6008 9.915 49.3912 11.921C49.3014 12.7593 49.5808 13.5677 50.1697 14.1465C50.6587 14.6455 51.3274 14.925 52.3154 14.925H52.3952C52.5749 14.905 52.7545 14.895 52.9341 14.895C54.7605 14.895 56.4571 15.8831 57.3753 17.4599C58.3832 19.2164 58.2635 21.412 57.0659 23.0487C56.5769 23.7174 56.4172 24.5557 56.6268 25.3541C56.8463 26.1425 57.3952 26.7912 58.1537 27.1306ZM54.6806 31.8212C54.6806 19.5857 44.7305 9.64554 32.505 9.64554C20.2794 9.64554 10.3293 19.5857 10.3293 31.8212C10.3293 44.0567 20.2695 53.9869 32.505 53.9869C44.7405 53.9869 54.6806 44.0467 54.6806 31.8212Z" fill="url(#paint0_linear_36_326)"/>
<path d="M58.503 83.957C58.6627 84.5159 58.4631 85.1247 58.004 85.474C57.7545 85.6536 57.4551 85.7534 57.1457 85.7534C56.8862 85.7534 56.6268 85.6835 56.4072 85.5438L48.4232 80.5937L44.5609 88.9869C44.3313 89.466 43.8323 89.7754 43.2934 89.7754H43.1737C42.5948 89.7255 42.1058 89.3263 41.9461 88.7674L34.491 63.0887C35.4192 62.8492 36.2974 62.44 37.0659 61.8812L43.7425 84.8552L46.7166 78.0488C46.8862 77.6895 47.2056 77.4201 47.5948 77.3103C47.7246 77.2704 47.8543 77.2604 47.984 77.2604C48.2535 77.2604 48.503 77.3303 48.7325 77.47L55.1198 81.4321L48.3533 59.0668C49.2814 58.5279 50.0599 57.8093 50.6687 56.981L58.503 83.957Z" fill="black"/>
<path d="M48.3533 59.0667L55.1198 81.432L48.7325 77.4699C48.503 77.3302 48.2535 77.2604 47.984 77.2604C47.8543 77.2604 47.7246 77.2703 47.5948 77.3103C47.2056 77.42 46.8862 77.6895 46.7166 78.0488L43.7425 84.8552L37.0659 61.8811C38.1936 61.0827 39.0918 59.9649 39.6008 58.6476C40.9681 59.6556 42.5948 60.1845 44.3014 60.1845C45.6886 60.1845 47.0659 59.8252 48.2635 59.1266L48.3533 59.0667Z" fill="white"/>
<path d="M50.5788 56.6815L50.6687 56.9809C50.0599 57.8093 49.2814 58.5278 48.3533 59.0668L47.8743 57.47C47.7744 57.1007 47.8144 56.7215 47.994 56.3921C48.1737 56.0628 48.4731 55.8233 48.8323 55.7235C48.9621 55.6835 49.0918 55.6636 49.2315 55.6636C49.8503 55.6636 50.4092 56.0827 50.5788 56.6815Z" fill="black"/>
<path d="M32.505 9.64551C44.7305 9.64551 54.6806 19.5856 54.6806 31.8212C54.6806 44.0567 44.7305 53.9868 32.505 53.9868C20.2794 53.9868 10.3293 44.0467 10.3293 31.8212C10.3293 19.5956 20.2695 9.64551 32.505 9.64551ZM51.8563 31.8212C51.8563 21.1425 43.1737 12.4599 32.505 12.4599C21.8363 12.4599 13.1437 21.1425 13.1437 31.8212C13.1437 42.4998 21.8264 51.1725 32.505 51.1725C43.1836 51.1725 51.8563 42.4898 51.8563 31.8212Z" fill="black"/>
<path d="M32.505 12.46C43.1736 12.46 51.8563 21.1426 51.8563 31.8212C51.8563 42.4999 43.1736 51.1725 32.505 51.1725C21.8363 51.1725 13.1437 42.4899 13.1437 31.8212C13.1437 21.1526 21.8263 12.46 32.505 12.46Z" fill="white"/>
<path d="M36.8563 61.1526L37.0659 61.8812C36.2974 62.44 35.4192 62.8492 34.491 63.0887L34.1517 61.931C33.9321 61.1925 34.3613 60.4041 35.1098 60.1945C35.2395 60.1546 35.3693 60.1346 35.509 60.1346C36.1277 60.1346 36.6866 60.5538 36.8563 61.1526Z" fill="black"/>
<path d="M29.8902 60.1945C30.6387 60.4041 31.0679 61.1925 30.8483 61.931L30.509 63.0887C29.5808 62.8492 28.7026 62.44 27.9341 61.8911L28.1437 61.1526C28.3234 60.5538 28.8723 60.1346 29.501 60.1346C29.6307 60.1346 29.7605 60.1546 29.8902 60.1945Z" fill="black"/>
<path d="M30.509 63.0887L23.0639 88.7674C22.8942 89.3263 22.4152 89.7255 21.8263 89.7754H21.7066C21.1776 89.7754 20.6786 89.466 20.4391 88.9869L16.3573 80.5239L8.59281 85.5438C8.37325 85.6835 8.11377 85.7534 7.85429 85.7534C7.54491 85.7534 7.25549 85.6536 7.00599 85.474C6.5469 85.1247 6.33732 84.5159 6.50698 83.957L14.3313 56.981C14.9501 57.8093 15.7285 58.5279 16.6567 59.0768L10.1098 81.6217L16.2774 77.47C16.497 77.3303 16.7565 77.2604 17.016 77.2604C17.1457 77.2604 17.2854 77.2704 17.4052 77.3103C17.7944 77.4201 18.1138 77.6895 18.2834 78.0488L21.5569 84.8253L27.9341 61.8911C28.7026 62.44 29.5808 62.8492 30.509 63.0887Z" fill="black"/>
<path d="M27.9341 61.8911L21.5569 84.8252L18.2834 78.0488C18.1138 77.6895 17.7944 77.42 17.4052 77.3102C17.2854 77.2703 17.1457 77.2603 17.016 77.2603C16.7565 77.2603 16.497 77.3302 16.2774 77.4699L10.1098 81.6216L16.6567 59.0767C16.6567 59.0767 16.7066 59.1066 16.7365 59.1266C17.9441 59.8252 19.3214 60.1945 20.7186 60.1945C22.4152 60.1945 24.0619 59.6655 25.2295 58.5977C25.8283 59.945 26.7764 61.0827 27.9341 61.8911Z" fill="white"/>
<path d="M17.006 56.3921C17.1856 56.7215 17.2255 57.1007 17.1257 57.46L16.6567 59.0767C15.7285 58.5278 14.9501 57.8093 14.3313 56.9809L14.4211 56.6815C14.5908 56.0827 15.1497 55.6636 15.7685 55.6636C15.9082 55.6636 16.0379 55.6835 16.1677 55.7235C16.5269 55.8233 16.8263 56.0628 17.006 56.3921Z" fill="black"/>
</g>
<defs>
<linearGradient id="paint0_linear_36_326" x1="3.78244" y1="31.8212" x2="61.2176" y2="31.8212" gradientUnits="userSpaceOnUse">
<stop offset="0.04" stop-color="#649173"/>
<stop offset="0.15" stop-color="#799D7C"/>
<stop offset="0.4" stop-color="#A6B78E"/>
<stop offset="0.53" stop-color="#B8C196"/>
<stop offset="0.68" stop-color="#BCC190"/>
<stop offset="0.86" stop-color="#C8C480"/>
<stop offset="1" stop-color="#D6C76F"/>
</linearGradient>
<clipPath id="clip0_36_326">
<rect width="63.5629" height="90" fill="white" transform="translate(0.718567 0.03479)"/>
</clipPath>
</defs>
</svg>
