<svg width="110" height="76" viewBox="0 0 110 76" fill="none" xmlns="http://www.w3.org/2000/svg">
<path d="M91.01 5.12H0.290039V75.67H91.01V5.12Z" fill="#AB6B0F"/>
<path d="M50.9562 66.5005H41.8562V26.4605L31.7062 35.2805V25.4805L41.8562 16.6605H50.9562V66.5005Z" fill="white"/>
<path d="M94.43 0H70.73V38.48H94.43V0Z" fill="#006954"/>
<path d="M109.71 0H75.75V33.96H109.71V0Z" fill="black"/>
<path d="M100.109 26.81H95.2833V25.0999C93.9532 26.43 92.6992 27 90.4191 27C88.1771 27 86.543 26.43 85.365 25.252C84.301 24.1499 83.731 22.5539 83.731 20.8058C83.731 17.6517 85.897 15.0677 90.4951 15.0677H95.1693V14.0796C95.1693 11.9136 94.1052 10.9636 91.4832 10.9636C89.5831 10.9636 88.7091 11.4196 87.6831 12.5976L84.529 9.51952C86.467 7.39146 88.3671 6.78345 91.6732 6.78345C97.2213 6.78345 100.109 9.13951 100.109 13.7756V26.81ZM95.1693 19.5138V18.4498H91.2552C89.4691 18.4498 88.4811 19.2858 88.4811 20.6918C88.4811 22.0599 89.3931 22.9719 91.3312 22.9719C92.6992 22.9719 93.5732 22.8579 94.4472 22.0219C94.9793 21.5279 95.1693 20.7298 95.1693 19.5138Z" fill="white"/>
</svg>
