<svg width="116" height="81" viewBox="0 0 116 81" fill="none" xmlns="http://www.w3.org/2000/svg">
<path d="M96.0706 5.49268H0.159363V80.0797H96.0706V5.49268Z" fill="#AB6B0F"/>
<path d="M38.5219 28.8551L24.1999 65.7451H15.4579L29.7799 28.8551H18.1239V35.7991H10.4359V21.6011H38.5219V28.8551ZM71.504 52.3531C71.504 56.6105 70.202 59.9791 67.598 62.4591C65.0353 64.8978 61.7493 66.1171 57.74 66.1171C53.7307 66.1171 50.4653 64.9391 47.944 62.5831C45.2987 60.1031 43.976 56.7344 43.976 52.4771C43.976 49.7078 45.216 45.7811 47.696 40.6971L56.996 21.6011H65.8L56.624 39.8291C57.5333 39.4571 58.6287 39.2711 59.91 39.2711C63.0513 39.2711 65.738 40.4284 67.97 42.7431C70.326 45.2231 71.504 48.4264 71.504 52.3531ZM63.444 52.4151C63.444 50.4724 62.9067 48.9224 61.832 47.7651C60.7987 46.5664 59.4347 45.9671 57.74 45.9671C56.0453 45.9671 54.6607 46.5458 53.586 47.7031C52.5527 48.8604 52.036 50.4311 52.036 52.4151C52.036 54.3991 52.5527 55.9698 53.586 57.1271C54.6607 58.2844 56.0453 58.8631 57.74 58.8631C59.4347 58.8631 60.7987 58.2844 61.832 57.1271C62.9067 55.9698 63.444 54.3991 63.444 52.4151Z" fill="white"/>
<path d="M99.6863 0.0795898H74.6301V40.7615H99.6863V0.0795898Z" fill="#006954"/>
<path d="M115.841 0.0795898H79.9374V35.9829H115.841V0.0795898Z" fill="black"/>
<path d="M106.804 19.6731H100.084V26.3931H94.9597V19.6731H88.1977V14.5491H94.9597V7.82912H100.084V14.5491H106.804V19.6731Z" fill="white"/>
</svg>
