<svg width="110" height="76" viewBox="0 0 110 76" fill="none" xmlns="http://www.w3.org/2000/svg">
<path d="M91.01 5.12H0.290039V75.67H91.01V5.12Z" fill="#AB6B0F"/>
<path d="M94.43 0H70.73V38.48H94.43V0Z" fill="#006954"/>
<path d="M109.71 0H75.75V33.96H109.71V0Z" fill="black"/>
<path d="M102.83 14.013L97.3749 18.5548C97.0998 18.7772 96.9828 19.1284 97.0589 19.4737L98.7211 26.9361L92.4059 23.1434C92.2595 23.0556 92.0898 23.0147 91.9259 23.0147C91.762 23.0147 91.5865 23.0556 91.4401 23.1434L85.16 26.9653L86.7871 19.4737C86.8632 19.1284 86.7462 18.7772 86.4711 18.5548L81.0045 14.0598L87.8992 13.2755C88.2211 13.2404 88.4962 13.0414 88.6366 12.7546L91.9259 5.96533L95.2094 12.7546C95.3498 13.0414 95.6249 13.2404 95.9468 13.2755L102.83 14.013Z" fill="white"/>
<path d="M60.6461 52.5453C60.6461 62.4853 53.3661 67.3853 44.8261 67.3853C36.7061 67.3853 29.0761 63.1153 28.9361 52.6853H38.0361C38.1761 57.1653 41.2561 59.1953 44.8261 59.1953C48.7461 59.1953 51.5461 56.7453 51.5461 52.2653C51.5461 48.1353 49.0261 45.4053 44.5461 45.4053H43.2161V37.4953H44.5461C48.9561 37.4953 50.8461 34.7653 50.8461 31.2653C50.8461 27.0653 48.0461 24.8953 44.7561 24.8953C41.3261 24.8953 38.8061 27.1353 38.5961 30.9153H29.4961C29.7061 22.0253 36.3561 16.7053 44.7561 16.7053C53.5761 16.7053 59.9461 22.5853 59.9461 30.9853C59.9461 36.3753 57.4961 39.4553 54.2061 41.2053C57.7761 43.0953 60.6461 46.5253 60.6461 52.5453Z" fill="white"/>
</svg>
