<svg width="85" height="85" viewBox="0 0 85 85" fill="none" xmlns="http://www.w3.org/2000/svg">
<g clip-path="url(#clip0_370_1156)">
<path d="M78.8076 33.0349C82.5738 34.6826 85 38.3944 85 42.5045C85 46.6147 82.5738 50.3264 78.8076 51.9741L78.6809 52.4539C81.1162 55.7674 81.3606 60.1944 79.3056 63.7523C77.4678 66.939 74.0276 68.9216 70.352 68.9216C69.9899 68.9216 69.6187 68.9035 69.2566 68.8673L68.8673 69.2566C69.2928 73.3214 67.283 77.2686 63.7523 79.3056C62.177 80.2109 60.3935 80.6907 58.5829 80.6907C56.3558 80.6907 54.2374 79.9936 52.4539 78.6809L51.8202 78.7443L51.9741 78.8167C50.3174 82.5738 46.6056 85 42.4955 85C38.3853 85 34.6826 82.5738 33.0259 78.8167L32.8629 78.4727L32.7362 78.6175C30.7626 79.9936 28.6442 80.6907 26.4171 80.6907C24.6065 80.6907 22.823 80.2109 21.2477 79.3056C17.708 77.2686 15.7072 73.3214 16.1418 69.2566L15.7977 68.8582C15.3813 68.9035 15.0101 68.9216 14.648 68.9216C10.9634 68.9216 7.53222 66.939 5.69443 63.7523C3.63937 60.1944 3.8838 55.7674 6.3191 52.4539L6.25572 51.8202L6.19235 51.9741C2.42624 50.3264 0 46.6056 0 42.5045C0 38.4035 2.42624 34.6826 6.19235 33.0349L6.3191 32.5461C3.8838 29.2417 3.63937 24.8056 5.69443 21.2568C7.53222 18.061 10.9634 16.0784 14.648 16.0784C15.0101 16.0784 15.3813 16.1055 15.7434 16.1418L16.3047 15.7253L16.1418 15.7434C15.7072 11.6876 17.708 7.74044 21.2477 5.69443C22.823 4.78911 24.6065 4.3093 26.4171 4.3093C28.6351 4.3093 30.7535 5.00639 32.5461 6.3191L33.1798 6.25572L33.0259 6.19235C34.6826 2.4353 38.3944 0 42.4955 0C46.5965 0 50.3264 2.4353 51.9741 6.19235L52.1371 6.52732L52.2729 6.38247C54.2374 5.00639 56.3649 4.3093 58.5829 4.3093C60.3935 4.3093 62.177 4.78911 63.7523 5.69443C67.283 7.74044 69.2928 11.6876 68.8673 15.7434L69.2023 16.1418C69.6187 16.1055 69.9899 16.0784 70.352 16.0784C74.0366 16.0784 77.4678 18.061 79.3056 21.2568C81.3606 24.8056 81.1162 29.2417 78.6809 32.5461L78.7443 33.1798L78.8076 33.0349ZM82.112 42.5045C82.112 39.5441 80.3557 36.8644 77.6488 35.6785C76.7526 35.2892 76.0917 34.5197 75.8382 33.5691C75.5847 32.6185 75.7748 31.6226 76.3542 30.835C78.1015 28.454 78.2826 25.2583 76.7979 22.6962C75.4761 20.3967 73.0046 18.9754 70.352 18.9754C70.0895 18.9754 69.8269 18.9844 69.5644 19.0116C69.4376 19.0297 69.32 19.0297 69.2023 19.0297C68.3241 19.0297 67.5093 18.7038 66.9118 18.0972C66.2147 17.4001 65.8798 16.4315 65.9884 15.4447C66.2962 12.5114 64.8477 9.66876 62.3038 8.20215C61.1721 7.55033 59.8866 7.20631 58.5829 7.20631C56.9805 7.20631 55.4505 7.70423 54.165 8.65481C53.6127 9.0622 52.9519 9.27042 52.2729 9.27042C51.9922 9.27042 51.7116 9.23421 51.4309 9.16179C50.4894 8.9083 49.7199 8.24742 49.3215 7.35116C48.1356 4.64426 45.4559 2.89701 42.4955 2.89701C39.5351 2.89701 36.8644 4.64426 35.6785 7.35116C35.2801 8.24742 34.5106 8.9083 33.5691 9.16179C33.2975 9.23421 33.0078 9.27042 32.7271 9.27042C32.0481 9.27042 31.3873 9.0622 30.835 8.65481C29.5495 7.70423 28.0195 7.20631 26.4171 7.20631C25.1134 7.20631 23.8279 7.55033 22.6962 8.20215C20.1523 9.66876 18.7038 12.5114 19.0116 15.4447C19.1202 16.4315 18.7853 17.4001 18.0882 18.0972C17.4907 18.7038 16.6759 19.0297 15.7977 19.0297C15.6801 19.0297 15.5624 19.0297 15.4356 19.0116C15.1731 18.9844 14.9105 18.9754 14.648 18.9754C11.9954 18.9754 9.52391 20.3967 8.20215 22.6962C6.71744 25.2583 6.8985 28.454 8.64576 30.835C9.22516 31.6226 9.41527 32.6185 9.16179 33.5691C8.9083 34.5197 8.24742 35.2892 7.35116 35.6785C4.64426 36.8644 2.88795 39.5441 2.88795 42.5045C2.88795 45.4649 4.64426 48.1356 7.35116 49.3215C8.24742 49.7199 8.9083 50.4894 9.16179 51.4309C9.41527 52.3815 9.22516 53.3774 8.64576 54.165C6.8985 56.555 6.71744 59.7508 8.20215 62.3038C9.52391 64.6033 11.9954 66.0337 14.657 66.0337C14.9105 66.0337 15.1731 66.0155 15.4356 65.9884C15.5624 65.9793 15.6801 65.9703 15.7977 65.9703C16.6759 65.9703 17.4907 66.3053 18.0882 66.9118C18.7853 67.5999 19.1202 68.5685 19.0116 69.5644C18.7038 72.4885 20.1523 75.3312 22.6962 76.8069C23.8279 77.4587 25.1134 77.8027 26.4171 77.8027C28.0195 77.8027 29.5495 77.3048 30.835 76.3542C31.3873 75.9469 32.0481 75.7296 32.7271 75.7296C33.0078 75.7296 33.2975 75.7658 33.5691 75.8382C34.5197 76.0917 35.2892 76.7526 35.6785 77.6488C36.8644 80.3648 39.5441 82.112 42.4955 82.112C45.4468 82.112 48.1356 80.3648 49.3215 77.6488C49.7199 76.7526 50.4894 76.0917 51.4309 75.8382C51.7116 75.7658 51.9832 75.7296 52.2729 75.7296C52.9519 75.7296 53.6127 75.9469 54.165 76.3542C55.4505 77.3048 56.9805 77.8027 58.5829 77.8027C59.8866 77.8027 61.1721 77.4587 62.3038 76.8069C64.8477 75.3312 66.2962 72.4885 65.9884 69.5644C65.8798 68.5685 66.2147 67.5999 66.9028 66.9118C67.5093 66.3053 68.3332 65.9703 69.2023 65.9703C69.32 65.9703 69.4376 65.9793 69.5644 65.9884C69.8269 66.0155 70.0895 66.0337 70.343 66.0337C73.0046 66.0337 75.4761 64.6033 76.7979 62.3038C78.2826 59.7417 78.1015 56.546 76.3542 54.165C75.7748 53.3774 75.5847 52.3815 75.8382 51.44C76.0917 50.4894 76.7526 49.7199 77.6488 49.3215C80.3557 48.1356 82.112 45.4559 82.112 42.5045Z" fill="black"/>
<path d="M77.6488 35.6784C80.3557 36.8644 82.112 39.5441 82.112 42.5045C82.112 45.4649 80.3557 48.1355 77.6488 49.3215C76.7526 49.7198 76.0917 50.4894 75.8382 51.4399C75.5847 52.3815 75.7748 53.3773 76.3542 54.1649C78.1015 56.5459 78.2825 59.7417 76.7978 62.3037C75.4761 64.6032 73.0046 66.0336 70.3429 66.0336C70.0894 66.0336 69.8269 66.0155 69.5644 65.9884C69.4376 65.9793 69.3199 65.9703 69.2022 65.9703C68.3331 65.9703 67.5093 66.3052 66.9027 66.9118C66.2147 67.5998 65.8797 68.5685 65.9884 69.5643C66.2962 72.4885 64.8477 75.3312 62.3037 76.8069C61.1721 77.4587 59.8866 77.8027 58.5829 77.8027C56.9805 77.8027 55.4505 77.3048 54.165 76.3542C53.6127 75.9468 52.9518 75.7295 52.2729 75.7295C51.9832 75.7295 51.7116 75.7658 51.4309 75.8382C50.4894 76.0917 49.7199 76.7525 49.3215 77.6488C48.1356 80.3648 45.4558 82.112 42.4955 82.112C39.5351 82.112 36.8644 80.3648 35.6784 77.6488C35.2892 76.7525 34.5196 76.0917 33.5691 75.8382C33.2975 75.7658 33.0078 75.7295 32.7271 75.7295C32.0481 75.7295 31.3872 75.9468 30.835 76.3542C29.5495 77.3048 28.0195 77.8027 26.4171 77.8027C25.1134 77.8027 23.8279 77.4587 22.6962 76.8069C20.1523 75.3312 18.7038 72.4885 19.0116 69.5643C19.1202 68.5685 18.7853 67.5998 18.0882 66.9118C17.4907 66.3052 16.6759 65.9703 15.7977 65.9703C15.68 65.9703 15.5623 65.9793 15.4356 65.9884C15.1731 66.0155 14.9105 66.0336 14.657 66.0336C11.9954 66.0336 9.5239 64.6032 8.20214 62.3037C6.71742 59.7507 6.89848 56.555 8.64574 54.1649C9.22514 53.3773 9.41526 52.3815 9.16177 51.4309C8.90828 50.4894 8.2474 49.7198 7.35114 49.3215C4.64425 48.1355 2.88794 45.4558 2.88794 42.5045C2.88794 39.5532 4.64425 36.8644 7.35114 35.6784C8.2474 35.2891 8.90828 34.5196 9.16177 33.569C9.41526 32.6185 9.22514 31.6226 8.64574 30.835C6.89848 28.454 6.71742 25.2582 8.20214 22.6962C9.5239 20.3967 11.9954 18.9754 14.648 18.9754C14.9105 18.9754 15.1731 18.9844 15.4356 19.0116C15.5623 19.0297 15.68 19.0297 15.7977 19.0297C16.6759 19.0297 17.4907 18.7038 18.0882 18.0972C18.7853 17.4001 19.1202 16.4314 19.0116 15.4446C18.7038 12.5114 20.1523 9.66873 22.6962 8.20212C23.8279 7.55029 25.1134 7.20627 26.4171 7.20627C28.0195 7.20627 29.5495 7.70419 30.835 8.65478C31.3872 9.06217 32.0481 9.27039 32.7271 9.27039C33.0078 9.27039 33.2975 9.23418 33.5691 9.16175C34.5106 8.90826 35.2801 8.24738 35.6784 7.35112C36.8644 4.64423 39.5441 2.89697 42.4955 2.89697C45.4468 2.89697 48.1356 4.64423 49.3215 7.35112C49.7199 8.24738 50.4894 8.90826 51.4309 9.16175C51.7116 9.23418 51.9922 9.27039 52.2729 9.27039C52.9518 9.27039 53.6127 9.06217 54.165 8.65478C55.4505 7.70419 56.9805 7.20627 58.5829 7.20627C59.8866 7.20627 61.1721 7.55029 62.3037 8.20212C64.8477 9.66873 66.2962 12.5114 65.9884 15.4446C65.8797 16.4314 66.2147 17.4001 66.9118 18.0972C67.5093 18.7038 68.3241 19.0297 69.2022 19.0297C69.3199 19.0297 69.4376 19.0297 69.5644 19.0116C69.8269 18.9844 70.0894 18.9754 70.352 18.9754C73.0046 18.9754 75.4761 20.3967 76.7978 22.6962C78.2825 25.2582 78.1015 28.454 76.3542 30.835C75.7748 31.6226 75.5847 32.6185 75.8382 33.569C76.0917 34.5196 76.7526 35.2891 77.6488 35.6784ZM72.2441 42.5045C72.2441 26.1002 58.8998 12.7559 42.4955 12.7559C26.0912 12.7559 12.7559 26.1002 12.7559 42.5045C12.7559 58.9088 26.1002 72.2441 42.4955 72.2441C58.8907 72.2441 72.2441 58.8997 72.2441 42.5045Z" fill="url(#paint0_linear_370_1156)"/>
<path d="M42.4955 12.7559C58.8998 12.7559 72.2441 26.1002 72.2441 42.5045C72.2441 58.9088 58.8998 72.2441 42.4955 72.2441C26.0912 72.2441 12.7559 58.8997 12.7559 42.5045C12.7559 26.1093 26.1002 12.7559 42.4955 12.7559ZM69.3562 42.5045C69.3562 27.6936 57.3064 15.6529 42.4955 15.6529C27.6845 15.6529 15.6438 27.6936 15.6438 42.5045C15.6438 57.3154 27.6936 69.3561 42.4955 69.3561C57.2974 69.3561 69.3562 57.3064 69.3562 42.5045Z" fill="black"/>
<path d="M42.4955 15.6528C57.3064 15.6528 69.3562 27.6935 69.3562 42.5045C69.3562 57.3154 57.3064 69.3561 42.4955 69.3561C27.6845 69.3561 15.6438 57.3064 15.6438 42.5045C15.6438 27.7026 27.6936 15.6528 42.4955 15.6528ZM61.2174 40.7572C62.1046 40.0239 62.4576 38.847 62.1317 37.7516C61.7968 36.6471 60.8552 35.8595 59.7146 35.7237L49.8828 34.6825L45.0666 24.7512C44.5867 23.7554 43.5999 23.1398 42.4955 23.1398C41.391 23.1398 40.4132 23.7554 39.9334 24.7512L35.2439 34.592L25.2854 35.7237C24.1447 35.8595 23.2032 36.6471 22.8682 37.7516C22.5423 38.847 22.9045 40.0239 23.7826 40.7572L31.5683 47.1216L29.2145 57.9491C28.9701 59.0717 29.3956 60.1943 30.3371 60.8733C30.835 61.2264 31.4054 61.4165 32.0029 61.4165C32.5098 61.4165 33.0259 61.2716 33.4785 61L42.414 55.5319L51.5305 61C51.9832 61.2716 52.4901 61.4165 52.9971 61.4165C53.5946 61.4165 54.165 61.2264 54.6629 60.8733C55.5954 60.1943 56.0299 59.0808 55.7855 57.9491L53.3773 47.2755L61.2174 40.7572Z" fill="white"/>
<path d="M62.1317 37.7517C62.4576 38.8471 62.1046 40.024 61.2174 40.7573L53.3773 47.2756L55.7855 57.9492C56.0299 59.0809 55.5954 60.1944 54.6629 60.8734C54.165 61.2265 53.5946 61.4166 52.9971 61.4166C52.4901 61.4166 51.9832 61.2717 51.5305 61.0002L42.414 55.5321L33.4785 61.0002C33.0259 61.2717 32.5098 61.4166 32.0029 61.4166C31.4054 61.4166 30.835 61.2265 30.3371 60.8734C29.3956 60.1944 28.9701 59.0718 29.2145 57.9492L31.5683 47.1217L23.7826 40.7573C22.9045 40.024 22.5423 38.8471 22.8682 37.7517C23.2032 36.6472 24.1447 35.8596 25.2854 35.7238L35.2439 34.5921L39.9334 24.7514C40.4132 23.7555 41.4 23.1399 42.4955 23.1399C43.5909 23.1399 44.5867 23.7555 45.0666 24.7514L49.8828 34.6827L59.7145 35.7238C60.8552 35.8596 61.7968 36.6472 62.1317 37.7517ZM50.933 45.5555L59.3705 38.5302L48.724 37.3895C48.2261 37.3352 47.8006 37.0274 47.5833 36.5838L42.5045 26.0822L37.4166 36.5838C37.1994 37.0274 36.7739 37.3352 36.2759 37.3895L25.6113 38.6027L34.067 45.5555C34.4925 45.8995 34.6735 46.4427 34.5559 46.9768L32.0391 58.5649L41.7531 52.6532C41.9794 52.5174 42.242 52.454 42.5045 52.454C42.7671 52.454 43.0205 52.5174 43.2469 52.6532L53.0152 58.5196L50.4441 46.9768C50.3264 46.4427 50.5075 45.8995 50.933 45.5555Z" fill="black"/>
<path d="M59.3705 38.5302L50.933 45.5555C50.5075 45.8995 50.3265 46.4427 50.4441 46.9768L53.0152 58.5196L43.2469 52.6531C43.0206 52.5173 42.758 52.454 42.5045 52.454C42.251 52.454 41.9794 52.5173 41.7531 52.6531L32.0391 58.5648L34.5559 46.9768C34.6736 46.4427 34.4925 45.8995 34.067 45.5555L25.6114 38.6027L36.276 37.3895C36.7739 37.3352 37.1994 37.0274 37.4167 36.5838L42.5045 26.0822L47.5833 36.5838C47.8006 37.0274 48.2261 37.3352 48.724 37.3895L59.3705 38.5302Z" fill="url(#paint1_linear_370_1156)"/>
</g>
<defs>
<linearGradient id="paint0_linear_370_1156" x1="2.88794" y1="42.5045" x2="82.112" y2="42.5045" gradientUnits="userSpaceOnUse">
<stop offset="0.04" stop-color="#649173"/>
<stop offset="0.15" stop-color="#799D7C"/>
<stop offset="0.4" stop-color="#A6B78E"/>
<stop offset="0.53" stop-color="#B8C196"/>
<stop offset="0.68" stop-color="#BCC190"/>
<stop offset="0.86" stop-color="#C8C480"/>
<stop offset="1" stop-color="#D6C76F"/>
</linearGradient>
<linearGradient id="paint1_linear_370_1156" x1="25.6114" y1="42.3235" x2="59.3705" y2="42.3235" gradientUnits="userSpaceOnUse">
<stop offset="0.04" stop-color="#649173"/>
<stop offset="0.15" stop-color="#799D7C"/>
<stop offset="0.4" stop-color="#A6B78E"/>
<stop offset="0.53" stop-color="#B8C196"/>
<stop offset="0.68" stop-color="#BCC190"/>
<stop offset="0.86" stop-color="#C8C480"/>
<stop offset="1" stop-color="#D6C76F"/>
</linearGradient>
<clipPath id="clip0_370_1156">
<rect width="85" height="85" fill="white"/>
</clipPath>
</defs>
</svg>
