<svg width="86" height="85" viewBox="0 0 86 85" fill="none" xmlns="http://www.w3.org/2000/svg">
<g clip-path="url(#clip0_370_1242)">
<path d="M84.9253 41.1023C85.2954 41.4724 85.5097 41.9692 85.5097 42.4951C85.5097 43.0211 85.2954 43.5276 84.9253 43.8977L64.6566 64.1566C64.9196 63.9034 65.0657 63.543 65.0657 63.1827C65.0657 62.8223 64.9196 62.4619 64.6566 62.1989L63.7897 61.3321L82.5195 42.3782L63.6729 23.7653L64.6566 22.7913C64.9196 22.5284 65.0657 22.1777 65.0657 21.8076C65.0657 21.4375 64.9196 21.0869 64.6566 20.8336L84.9253 41.1023Z" fill="black"/>
<path d="M82.5196 42.3783L63.7898 61.3321L57.1667 54.709L56.8648 54.3973C56.6018 54.1343 56.2511 53.998 55.881 53.998C55.6765 53.998 55.472 54.037 55.2869 54.1344C54.7512 54.3876 54.4395 54.9428 54.5077 55.5272C54.6343 56.7933 54.2155 58.0498 53.3487 58.9653C52.5597 59.803 51.4689 60.2705 50.1637 60.2997C49.0242 60.2997 47.9625 59.8809 47.1638 59.1114C46.3262 58.2933 45.849 57.2024 45.8392 56.0239C45.8295 54.8551 46.2872 53.7448 47.1151 52.9169C47.943 52.089 49.0242 51.6507 50.1735 51.6507C50.3293 51.6507 50.4949 51.6604 50.7968 51.6799C51.3228 51.6799 51.8195 51.3682 52.0435 50.891C52.2968 50.365 52.1896 49.7319 51.7708 49.3131L51.4104 48.9625C51.4104 48.9625 51.3909 48.9333 51.3715 48.9138L44.9529 42.4952L49.7839 37.6739C50.1345 38.6674 50.7092 39.583 51.4591 40.3329C52.8032 41.677 54.5759 42.4173 56.5433 42.4173C58.4718 42.3978 60.264 41.6283 61.6081 40.2453C62.9132 38.8914 63.6145 37.0798 63.5658 35.1416C63.5268 33.2033 62.7477 31.4209 61.3646 30.1255C60.5854 29.3853 59.6309 28.8301 58.6666 28.7717L63.6729 23.7654L82.5196 42.3783Z" fill="white"/>
<path d="M64.6566 20.8336C64.9196 21.0869 65.0657 21.4375 65.0657 21.8076C65.0657 22.1777 64.9196 22.5284 64.6566 22.7914L63.6729 23.7653L63.5657 23.6582L57.1666 30.2813C56.9134 30.5443 56.5627 30.6807 56.1926 30.6807C55.8225 30.6807 55.4719 30.5443 55.2089 30.2813C54.6732 29.7359 54.6732 28.8593 55.2089 28.3236L61.832 21.7005L62.6989 20.8336C62.9619 20.5707 63.3125 20.4246 63.6826 20.4246C64.0527 20.4246 64.3936 20.5707 64.6566 20.8336Z" fill="black"/>
<path d="M64.6566 62.1989C64.9196 62.4619 65.0657 62.8125 65.0657 63.1826C65.0657 63.5527 64.9196 63.9034 64.6566 64.1566C64.3936 64.4196 64.0527 64.5657 63.6826 64.5657C63.3125 64.5657 62.9619 64.4196 62.6989 64.1566L61.7249 63.1729L61.832 63.0657L55.2089 56.6666C54.6732 56.1309 54.6732 55.2543 55.2089 54.7089C55.4719 54.4459 55.8225 54.3096 56.1926 54.3096C56.5627 54.3096 56.9134 54.4459 57.1666 54.7089L63.7897 61.332L64.6566 62.1989Z" fill="black"/>
<path d="M64.6566 64.1567L44.3977 84.4254C44.0178 84.7955 43.5211 85.0001 42.9951 85.0001C42.4692 85.0001 41.9724 84.7955 41.5926 84.4254L21.3336 64.1567C21.5966 64.4197 21.9375 64.5658 22.3076 64.5658C22.6777 64.5658 23.0284 64.4197 23.2913 64.1567L24.1582 63.2899L43.112 82.0197L61.7249 63.173L62.6989 64.1567C62.9619 64.4197 63.3125 64.5658 63.6827 64.5658C64.0528 64.5658 64.3937 64.4197 64.6566 64.1567Z" fill="black"/>
<path d="M44.3879 0.564914L64.6566 20.8336C64.3937 20.5706 64.0528 20.4245 63.6827 20.4245C63.3125 20.4245 62.9619 20.5706 62.6989 20.8336L61.8321 21.7005L42.8783 2.97067L24.2751 21.8076L23.2913 20.8336C23.0284 20.5706 22.6777 20.4245 22.3076 20.4245C21.9375 20.4245 21.5966 20.5706 21.3336 20.8336L41.5926 0.564914C41.953 0.204538 42.4594 0 42.9951 0C43.5308 0 44.0373 0.204538 44.3879 0.564914Z" fill="black"/>
<path d="M63.6729 23.7653L58.6666 28.7716C59.6309 28.8301 60.5854 29.3853 61.3646 30.1255C62.7477 31.4209 63.5268 33.2033 63.5658 35.1415C63.6145 37.0798 62.9132 38.8914 61.6081 40.2452C60.264 41.6283 58.4718 42.3977 56.5433 42.4172C54.5759 42.4172 52.8032 41.677 51.4591 40.3329C50.7092 39.5829 50.1345 38.6674 49.7839 37.6739L51.3715 36.0766C51.9169 35.5311 51.9169 34.6545 51.3715 34.1188C51.1182 33.8559 50.7676 33.7098 50.3975 33.7098C50.0274 33.7098 49.6962 33.8461 49.4332 34.1091L49.8131 33.7098C50.0761 33.4468 50.4267 33.3104 50.7968 33.3104C51.0014 33.3104 51.2059 33.3494 51.3909 33.4468C51.9169 33.7 52.2286 34.2552 52.1701 34.8396C52.0338 36.1545 52.4818 37.4401 53.4168 38.3752C54.235 39.1933 55.3259 39.6511 56.4849 39.6511C57.7024 39.6414 58.7933 39.1641 59.6114 38.3265C60.4003 37.4986 60.8289 36.398 60.7997 35.2097C60.7705 34.0117 60.3029 32.9306 59.4653 32.1416C58.6569 31.3819 57.605 30.9631 56.4946 30.9631C56.3388 30.9631 56.0077 30.9826 55.9979 30.9826C55.3356 30.9826 54.8583 30.6807 54.6343 30.2034C54.3714 29.6775 54.4882 29.0444 54.8973 28.6255L55.209 28.3236C54.6733 28.8593 54.6733 29.7359 55.209 30.2813C55.472 30.5443 55.8226 30.6807 56.1927 30.6807C56.5628 30.6807 56.9135 30.5443 57.1667 30.2813L63.5658 23.6582L63.6729 23.7653Z" fill="black"/>
<path d="M61.832 21.7005L55.2089 28.3236L54.8972 28.6256C54.4882 29.0444 54.3713 29.6775 54.6343 30.2034C54.8583 30.6807 55.3355 30.9826 55.9978 30.9826C55.9978 30.9826 56.3387 30.9631 56.4946 30.9631C57.6049 30.9631 58.6568 31.382 59.4652 32.1417C60.3029 32.9306 60.7704 34.0117 60.7996 35.2097C60.8288 36.398 60.4003 37.4986 59.6113 38.3265C58.7932 39.1641 57.7023 39.6414 56.4848 39.6511C55.3258 39.6511 54.2349 39.1933 53.4168 38.3752C52.4817 37.4402 52.0337 36.1545 52.1701 34.8396C52.2285 34.2552 51.9168 33.7001 51.3909 33.4468C51.2058 33.3494 51.0013 33.3105 50.7967 33.3105C50.4266 33.3105 50.076 33.4468 49.813 33.7098L49.4332 34.1091C49.4332 34.1091 49.4332 34.1091 49.4137 34.1189L42.9951 40.5374L38.1738 35.7162C39.1771 35.3558 40.0829 34.7812 40.8328 34.0312C42.1964 32.6774 42.9367 30.8657 42.9172 28.9372C42.9074 27.0185 42.138 25.2263 40.7549 23.892C39.4206 22.5966 37.7161 21.9245 35.6512 21.9245C33.713 21.9635 31.9306 22.7427 30.6352 24.116C29.8949 24.9049 29.33 25.8594 29.2813 26.8139L24.275 21.8076L42.8782 2.9707L61.832 21.7005Z" fill="url(#paint0_linear_370_1242)"/>
<path d="M61.832 63.0658L61.7249 63.1729L56.7186 58.1666C56.6602 59.1308 56.105 60.0854 55.3647 60.8743C54.0693 62.2476 52.2869 63.0268 50.3487 63.0755H50.339C48.3033 63.0755 46.5501 62.3742 45.245 61.108C43.8619 59.7639 43.0925 57.9718 43.073 56.053C43.0535 54.1245 43.7938 52.3227 45.1573 50.9591C45.9073 50.2091 46.8229 49.6247 47.8261 49.2838L49.4137 50.8714C49.6766 51.1344 50.0273 51.2805 50.3974 51.2805C50.7675 51.2805 51.1182 51.1344 51.3714 50.8714C51.8973 50.3455 51.9168 49.5078 51.4103 48.9624L51.7707 49.313C52.1895 49.7319 52.2967 50.3649 52.0434 50.8909C51.8194 51.3682 51.3227 51.6798 50.7967 51.6798C50.4948 51.6604 50.3292 51.6506 50.1734 51.6506C49.0241 51.6506 47.9332 52.0986 47.1151 52.9168C46.2969 53.7349 45.8294 54.855 45.8391 56.0238C45.8489 57.2023 46.3261 58.2932 47.1638 59.1114C47.9624 59.8808 49.0241 60.2996 50.1636 60.2996C51.4688 60.2704 52.5597 59.8029 53.3486 58.9653C54.2154 58.0497 54.6343 56.7933 54.5076 55.5271C54.4395 54.9427 54.7511 54.3875 55.2868 54.1343C55.4719 54.0369 55.6764 53.9979 55.881 53.9979C56.2511 53.9979 56.6017 54.1343 56.8647 54.3973L57.1666 54.7089C56.9134 54.446 56.5628 54.3096 56.1926 54.3096C55.8225 54.3096 55.4719 54.446 55.2089 54.7089C54.6732 55.2544 54.6732 56.131 55.2089 56.6667L61.832 63.0658Z" fill="black"/>
<path d="M61.725 63.1729L43.112 82.0196L24.1582 63.2898L30.7813 56.6667L31.093 56.3648C31.5021 55.9459 31.619 55.3129 31.3657 54.7869C31.132 54.3096 30.6547 53.998 29.9924 53.998C29.9924 53.998 29.6515 54.0272 29.4957 54.0272C28.3853 54.0272 27.3237 53.6084 26.525 52.8487C25.6874 52.0597 25.2199 50.9689 25.1906 49.7806C25.1614 48.5923 25.5802 47.4917 26.3789 46.6638C27.197 45.8262 28.2879 45.349 29.5151 45.3392C30.6839 45.3392 31.7456 45.7872 32.5735 46.6151C33.5085 47.5502 33.9565 48.8358 33.8202 50.1507C33.7617 50.7351 34.0734 51.2903 34.5994 51.5435C34.7844 51.6312 34.989 51.6799 35.1935 51.6799C35.5636 51.6799 35.9142 51.5338 36.1772 51.2708L36.5181 50.9202C36.5181 50.9202 36.5571 50.8909 36.5766 50.8715L42.9951 44.4529L47.8261 49.2839C46.8229 49.6248 45.9074 50.2092 45.1574 50.9591C43.7938 52.3227 43.0536 54.1246 43.0731 56.0531C43.0925 57.9718 43.862 59.764 45.2451 61.1081C46.5502 62.3743 48.3034 63.0755 50.339 63.0755H50.3488C52.287 63.0268 54.0694 62.2477 55.3648 60.8743C56.105 60.0854 56.6602 59.1309 56.7187 58.1666L61.725 63.1729Z" fill="url(#paint1_linear_370_1242)"/>
<path d="M51.3714 34.1188C51.9168 34.6545 51.9168 35.5311 51.3714 36.0765L49.7838 37.6739C49.7545 37.5862 49.7253 37.5083 49.6961 37.4206L44.9236 42.4659L43.9788 41.5211L42.9756 40.5666L42.9951 40.5374L43.1022 40.6445L49.4137 34.1188C49.4137 34.1188 49.4234 34.1091 49.4331 34.1091C49.6961 33.8461 50.037 33.7097 50.3974 33.7097C50.7578 33.7097 51.1181 33.8558 51.3714 34.1188Z" fill="black"/>
<path d="M51.4103 48.9625C51.9168 49.5079 51.8973 50.3455 51.3714 50.8715C51.1181 51.1344 50.7675 51.2805 50.3974 51.2805C50.0273 51.2805 49.6766 51.1344 49.4137 50.8715L47.8261 49.2839C47.904 49.2449 47.9916 49.2254 48.0696 49.1962L43.0243 44.4334L43.9788 43.4789C44.0275 43.4302 44.0665 43.3912 44.0957 43.3328C44.1152 43.3133 44.1346 43.2938 44.1541 43.2646L44.9236 42.4659L44.9528 42.4952L44.8457 42.6023L51.4103 48.9625Z" fill="black"/>
<path d="M51.3714 48.9137C51.3714 48.9137 51.4006 48.9429 51.4104 48.9624L44.8457 42.6023L44.9528 42.4951L51.3714 48.9137Z" fill="black"/>
<path d="M49.7838 37.6739L44.9528 42.4951L44.9236 42.4659L49.6961 37.4207C49.7254 37.5083 49.7546 37.5862 49.7838 37.6739Z" fill="black"/>
<path d="M49.4137 34.1188L43.1023 40.6445L42.9951 40.5374L49.4137 34.1188Z" fill="black"/>
<path d="M48.0696 49.1962C47.9917 49.2254 47.904 49.2449 47.8261 49.2838L42.9951 44.4528L43.0243 44.4333L48.0696 49.1962Z" fill="black"/>
<path d="M44.9236 42.4659L44.1542 43.2646C44.3003 43.0405 44.3782 42.7678 44.3782 42.4951C44.3782 42.125 44.2419 41.7744 43.9789 41.5211L44.9236 42.4659Z" fill="black"/>
<path d="M44.3782 42.4952C44.3782 42.7679 44.3003 43.0406 44.1542 43.2646C44.1347 43.2938 44.1152 43.3133 44.0957 43.3328L43.9691 43.4691C43.7159 43.7321 43.3652 43.8782 42.9951 43.8782C42.625 43.8782 42.2841 43.7321 42.0211 43.4789H42.0114C41.7582 43.2062 41.6121 42.8653 41.6121 42.4952C41.6121 42.125 41.7582 41.7744 42.0211 41.5212C42.2646 41.2679 42.625 41.1218 42.9951 41.1218C43.3652 41.1218 43.7256 41.2679 43.9789 41.5212C44.2418 41.7744 44.3782 42.125 44.3782 42.4952Z" fill="black"/>
<path d="M44.0957 43.3328C44.0665 43.3912 44.0275 43.4302 43.9788 43.4789L43.0243 44.4334L42.0211 43.4789C42.2841 43.7321 42.625 43.8782 42.9951 43.8782C43.3652 43.8782 43.7159 43.7321 43.9691 43.4691L44.0957 43.3328Z" fill="black"/>
<path d="M42.9756 40.5667L43.9788 41.5212C43.7256 41.2679 43.375 41.1218 42.9951 41.1218C42.6153 41.1218 42.2646 41.2679 42.0211 41.5212L42.9756 40.5667Z" fill="black"/>
<path d="M42.0211 43.4789L43.0243 44.4334L42.9951 44.4529L42.888 44.3458L36.5181 50.9202C36.2648 51.154 35.9337 51.2806 35.5928 51.2806C35.2227 51.2806 34.8818 51.1345 34.6188 50.8715C34.3558 50.6183 34.2097 50.2676 34.2097 49.8975C34.2097 49.5274 34.3558 49.1768 34.6188 48.9138L36.2161 47.3262C36.2454 47.4041 36.2648 47.4918 36.2941 47.5697L41.0666 42.5244L42.0114 43.4692H42.0211V43.4789Z" fill="black"/>
<path d="M42.9951 44.4528L36.5765 50.8714C36.5765 50.8714 36.5375 50.9104 36.5181 50.9201L42.8879 44.3457L42.9951 44.4528Z" fill="black"/>
<path d="M42.9951 40.5374L42.9757 40.5667L37.9207 35.7941C38.0083 35.7649 38.0862 35.7357 38.1739 35.7162L42.9951 40.5374Z" fill="black"/>
<path d="M42.9757 40.5666L42.0212 41.5211L41.0666 42.5243L41.0374 42.4951L41.1543 42.388L34.989 36.4174L34.9597 36.3882C34.8136 36.1642 34.7357 35.8915 34.7357 35.6188C34.7357 35.2486 34.8721 34.898 35.1351 34.635C35.398 34.3721 35.7487 34.226 36.1188 34.226C36.4889 34.226 36.8298 34.3721 37.0928 34.635L38.1739 35.7162C38.0862 35.7356 38.0083 35.7649 37.9207 35.7941L42.9757 40.5666Z" fill="black"/>
<path d="M42.9172 28.9372C42.9367 30.8657 42.1964 32.6773 40.8329 34.0311C40.0829 34.7811 39.1771 35.3557 38.1739 35.7161L37.0927 34.635C36.8298 34.372 36.4889 34.2259 36.1188 34.2259C35.7486 34.2259 35.398 34.372 35.135 34.635C34.872 34.898 34.7357 35.2486 34.7357 35.6187C34.7357 35.8914 34.8136 36.1642 34.9597 36.3882L34.2195 35.6772C33.8007 35.2583 33.6935 34.6253 33.9468 34.0993C34.1805 33.622 34.6675 33.3104 35.1935 33.3104C35.5051 33.3396 35.661 33.3396 35.8168 33.3396C36.9759 33.3396 38.057 32.8916 38.8751 32.0734C39.7128 31.2455 40.1608 30.1352 40.1511 28.9664C40.1413 27.7879 39.6738 26.697 38.8264 25.8788C38.018 25.0996 36.9759 24.6906 35.8168 24.6906C34.5214 24.7198 33.4305 25.1873 32.6416 26.0249C31.7748 26.9405 31.3559 28.1969 31.4923 29.4631C31.5507 30.0475 31.2391 30.6124 30.7131 30.8559C30.5183 30.9533 30.3235 30.9923 30.1092 30.9923C29.7391 30.9923 29.3982 30.8559 29.1353 30.5929L28.21 29.6676C28.4729 29.9306 28.8236 30.0767 29.1937 30.0767C29.5638 30.0767 29.9144 29.9306 30.1677 29.6676C30.4307 29.4144 30.5768 29.0638 30.5768 28.6937C30.5768 28.3235 30.4307 27.9729 30.1677 27.7099L29.2619 26.8333L29.2813 26.8139C29.33 25.8594 29.895 24.9048 30.6352 24.1159C31.9306 22.7426 33.713 21.9634 35.6512 21.9244C37.7161 21.9244 39.4206 22.5965 40.7549 23.8919C42.138 25.2263 42.9075 27.0184 42.9172 28.9372Z" fill="black"/>
<path d="M41.0667 42.5243L42.0212 41.5211C41.7582 41.7744 41.6121 42.125 41.6121 42.4951C41.6121 42.8652 41.7582 43.2061 42.0114 43.4691L41.0667 42.5243Z" fill="black"/>
<path d="M41.1542 42.388L41.0374 42.4952L35.135 36.5928C35.0766 36.5344 35.0279 36.4759 34.9889 36.4175L41.1542 42.388Z" fill="black"/>
<path d="M41.0667 42.5243L36.2941 47.5696C36.2649 47.4917 36.2454 47.404 36.2162 47.3261L41.0374 42.4951L41.0667 42.5243Z" fill="black"/>
<path d="M41.0373 42.4951L36.2161 47.3261C35.8654 46.3327 35.2908 45.4074 34.5311 44.6574C33.187 43.3133 31.4046 42.5731 29.4469 42.5731C27.5184 42.5828 25.7262 43.3523 24.3821 44.7451C23.077 46.0989 22.3757 47.9105 22.4244 49.8488C22.4634 51.787 23.2426 53.5694 24.6256 54.8648C25.4048 55.605 26.3593 56.1602 27.3236 56.2089L22.3075 61.2249L3.47058 42.612L22.2004 23.6582L28.2099 29.6677L29.1352 30.593C29.3982 30.856 29.7391 30.9923 30.1092 30.9923C30.3235 30.9923 30.5183 30.9534 30.713 30.856C31.239 30.6125 31.5507 30.0476 31.4922 29.4632C31.3559 28.197 31.7747 26.9405 32.6415 26.025C33.4305 25.1874 34.5213 24.7199 35.8167 24.6906C36.9758 24.6906 38.018 25.0997 38.8264 25.8789C39.6737 26.697 40.1413 27.7879 40.151 28.9664C40.1607 30.1352 39.7127 31.2456 38.8751 32.0735C38.0569 32.8916 36.9758 33.3397 35.8167 33.3397C35.6609 33.3397 35.5051 33.3397 35.1934 33.3104C34.6674 33.3104 34.1804 33.6221 33.9467 34.0994C33.6935 34.6253 33.8006 35.2584 34.2194 35.6772L34.9596 36.3882L34.9889 36.4175C35.0278 36.4759 35.0765 36.5343 35.135 36.5928L41.0373 42.4951Z" fill="white"/>
<path d="M36.5181 50.9201L36.1772 51.2707C35.9142 51.5337 35.5636 51.6798 35.1935 51.6798C34.989 51.6798 34.7844 51.6311 34.5994 51.5434C34.0734 51.2902 33.7617 50.735 33.8202 50.1506C33.9565 48.8357 33.5085 47.5501 32.5735 46.6151C31.7456 45.7872 30.6839 45.3391 29.5151 45.3391C28.2879 45.3489 27.197 45.8261 26.3789 46.6638C25.5802 47.4916 25.1614 48.5923 25.1906 49.7805C25.2198 50.9688 25.6874 52.0596 26.525 52.8486C27.3237 53.6083 28.3853 54.0271 29.4957 54.0271C29.6515 54.0271 29.9827 53.9979 29.9924 53.9979C30.6547 53.9979 31.132 54.3096 31.3657 54.7868C31.619 55.3128 31.5021 55.9459 31.093 56.3647L30.7813 56.6666C31.3268 56.1309 31.3268 55.2543 30.7813 54.7089C30.5183 54.4459 30.1677 54.3096 29.8073 54.3096C29.447 54.3096 29.0866 54.4459 28.8236 54.7089L22.4245 61.332L22.3076 61.2249L27.3237 56.2088C26.3594 56.1601 25.4049 55.605 24.6257 54.8647C23.2426 53.5693 22.4635 51.7869 22.4245 49.8487C22.3758 47.9105 23.0771 46.0988 24.3822 44.745C25.7263 43.3522 27.5185 42.5827 29.447 42.573C31.4047 42.573 33.1871 43.3132 34.5312 44.6573C35.2909 45.4073 35.8655 46.3326 36.2162 47.3261L34.6188 48.9137C34.3559 49.1766 34.2098 49.5273 34.2098 49.8974C34.2098 50.2675 34.3559 50.6181 34.6188 50.8714C34.8818 51.1344 35.2227 51.2805 35.5928 51.2805C35.9337 51.2805 36.2649 51.1538 36.5181 50.9201Z" fill="black"/>
<path d="M30.7813 54.7089C31.3268 55.2543 31.3268 56.1309 30.7813 56.6666L24.1582 63.2898L23.2914 64.1566C23.0284 64.4196 22.6777 64.5657 22.3076 64.5657C21.9375 64.5657 21.5966 64.4196 21.3336 64.1566C20.7882 63.6209 20.7882 62.7443 21.3336 62.1989L22.3076 61.2249L22.4245 61.332L28.8236 54.7089C29.0866 54.4459 29.4372 54.3096 29.8073 54.3096C30.1775 54.3096 30.5184 54.4459 30.7813 54.7089Z" fill="black"/>
<path d="M30.1677 27.71C30.4307 27.973 30.5768 28.3236 30.5768 28.6937C30.5768 29.0638 30.4307 29.4145 30.1677 29.6677C29.9145 29.9307 29.5638 30.0768 29.1937 30.0768C28.8236 30.0768 28.473 29.9307 28.21 29.6677L22.2005 23.6582L21.3336 22.7914C21.0707 22.5284 20.9246 22.1777 20.9246 21.8076C20.9246 21.4375 21.0707 21.0869 21.3336 20.8336C21.5966 20.5707 21.9375 20.4246 22.3076 20.4246C22.6777 20.4246 23.0284 20.5707 23.2914 20.8336L24.2751 21.8076L24.1582 21.9245L29.2619 26.8334L30.1677 27.71Z" fill="black"/>
<path d="M29.2814 26.8139L29.2619 26.8334L24.1582 21.9245L24.2751 21.8076L29.2814 26.8139Z" fill="black"/>
<path d="M3.47063 42.612L22.3076 61.2249L21.3336 62.1989C20.7882 62.7444 20.7882 63.6209 21.3336 64.1566L1.06488 43.8977C0.29543 43.1185 0.29543 41.8718 1.06488 41.1023L21.3336 20.8336C21.0706 21.0869 20.9245 21.4375 20.9245 21.8076C20.9245 22.1777 21.0706 22.5284 21.3336 22.7913L22.2004 23.6582L3.47063 42.612Z" fill="black"/>
</g>
<defs>
<linearGradient id="paint0_linear_370_1242" x1="24.275" y1="21.7589" x2="61.832" y2="21.7589" gradientUnits="userSpaceOnUse">
<stop offset="0.04" stop-color="#649173"/>
<stop offset="0.15" stop-color="#799D7C"/>
<stop offset="0.4" stop-color="#A6B78E"/>
<stop offset="0.53" stop-color="#B8C196"/>
<stop offset="0.68" stop-color="#BCC190"/>
<stop offset="0.86" stop-color="#C8C480"/>
<stop offset="1" stop-color="#D6C76F"/>
</linearGradient>
<linearGradient id="paint1_linear_370_1242" x1="24.1582" y1="63.2411" x2="61.725" y2="63.2411" gradientUnits="userSpaceOnUse">
<stop offset="0.04" stop-color="#649173"/>
<stop offset="0.15" stop-color="#799D7C"/>
<stop offset="0.4" stop-color="#A6B78E"/>
<stop offset="0.53" stop-color="#B8C196"/>
<stop offset="0.68" stop-color="#BCC190"/>
<stop offset="0.86" stop-color="#C8C480"/>
<stop offset="1" stop-color="#D6C76F"/>
</linearGradient>
<clipPath id="clip0_370_1242">
<rect width="85.0195" height="85" fill="white" transform="translate(0.490234)"/>
</clipPath>
</defs>
</svg>
