<svg width="93" height="85" viewBox="0 0 93 85" fill="none" xmlns="http://www.w3.org/2000/svg">
<g clip-path="url(#clip0_370_1163)">
<path d="M92.4021 56.0988V59.4961C92.4021 59.7626 92.345 60.0195 92.2308 60.2575L83.7232 77.2537C83.4377 77.8341 82.8477 78.1958 82.2006 78.1958H75.4059V74.7984H81.1538L89.0048 59.0965V57.7927H4.00475V59.0965L11.8557 74.7984H17.6036V78.1958H10.7994C10.1618 78.1958 9.57181 77.8341 9.28632 77.2537L0.778711 60.2575C0.664515 60.0195 0.5979 59.7626 0.5979 59.4961V56.0988C0.5979 55.1567 1.35921 54.3954 2.30133 54.3954H21.0009V56.0988H24.4078V54.3954H30.2128L29.7274 55.2519L32.6775 56.9363L34.1335 54.3954H68.6017V56.0988H72.0086V54.3954H90.7082C91.6408 54.3954 92.4021 55.1567 92.4021 56.0988Z" fill="black"/>
<path d="M89.0048 57.7927V59.0965L81.1538 74.7984H75.4059V62.8935C75.4059 61.9609 74.6446 61.1996 73.7025 61.1996H19.307C18.3649 61.1996 17.6036 61.9609 17.6036 62.8935V74.7984H11.8557L4.00476 59.0965V57.7927H89.0048Z" fill="white"/>
<path d="M75.4059 78.1958V85H72.0086V64.5969H21.001V85H17.6036V78.1958H19.3071V74.7984H17.6036V62.8935C17.6036 61.9609 18.3649 61.1996 19.3071 61.1996H73.7025C74.6446 61.1996 75.4059 61.9609 75.4059 62.8935V74.7984H73.7025V78.1958H75.4059Z" fill="black"/>
<path d="M75.4059 74.7985H73.7025V78.1958H75.4059V74.7985Z" fill="black"/>
<path d="M72.0085 54.3954H68.6017V56.0988H72.0085V54.3954Z" fill="black"/>
<path d="M72.0086 41.8339V54.3955H68.6017V41.8339C68.6017 40.1685 67.6311 38.6459 66.137 37.9703C62.1021 36.1622 55.4501 33.9924 46.6285 33.9924C37.8068 33.9924 31.0217 36.1717 26.9011 37.9893C25.388 38.665 24.4078 40.1876 24.4078 41.872V54.3955H21.001V41.872C21.001 38.8458 22.7805 36.1051 25.5212 34.887C29.9273 32.9361 37.1312 30.6141 46.5048 30.5951H46.6285C56.0497 30.5951 63.1964 32.9171 67.5264 34.8679C70.2481 36.0955 72.0086 38.8267 72.0086 41.8339Z" fill="black"/>
<path d="M68.6017 41.8339V54.3955H34.1335L38.0161 47.6008C39.8909 47.5913 41.404 46.0782 41.404 44.194C41.404 42.3097 39.8814 40.7966 38.0066 40.7966C36.1319 40.7966 34.5998 42.3192 34.5998 44.194C34.5998 44.822 34.7711 45.412 35.0661 45.9164L30.2127 54.3955H24.4078V41.872C24.4078 40.1876 25.388 38.665 26.9011 37.9893C31.0216 36.1717 37.7878 33.9924 46.6284 33.9924C55.4691 33.9924 62.102 36.1622 66.137 37.9703C67.631 38.6459 68.6017 40.1685 68.6017 41.8339Z" fill="url(#paint0_linear_370_1163)"/>
<path d="M60.1036 13.7892C60.1036 23.4768 54.4414 30.5189 46.6285 30.5951H46.5047C38.6252 30.5951 32.9059 23.5244 32.9059 13.7892C32.9059 6.18562 39.0059 0 46.5047 0C54.0036 0 60.1036 6.18562 60.1036 13.7892ZM46.5047 27.1977C52.4144 27.1977 56.7063 21.5545 56.7063 13.7892C56.7063 8.06034 52.1289 3.39734 46.5047 3.39734C40.8806 3.39734 36.3032 8.06034 36.3032 13.7892C36.3032 21.5545 40.5951 27.1977 46.5047 27.1977Z" fill="black"/>
<path d="M56.7063 13.7892C56.7063 21.5545 52.4144 27.1977 46.5047 27.1977C40.5951 27.1977 36.3032 21.5545 36.3032 13.7892C36.3032 8.06035 40.8806 3.39734 46.5047 3.39734C52.1289 3.39734 56.7063 8.06035 56.7063 13.7892Z" fill="url(#paint1_linear_370_1163)"/>
<path d="M38.0066 40.7966C39.8814 40.7966 41.404 42.3192 41.404 44.194C41.404 46.0687 39.8909 47.5913 38.0162 47.6008L39.4817 45.0409L36.5316 43.3565L35.0661 45.9164C34.7711 45.4121 34.5998 44.822 34.5998 44.194C34.5998 42.3192 36.1224 40.7966 38.0066 40.7966Z" fill="black"/>
<path d="M39.4817 45.0408L38.0162 47.6007C36.76 47.6007 35.6656 46.9251 35.0756 45.9163L36.5411 43.3564L39.4912 45.0408H39.4817Z" fill="black"/>
<path d="M38.0162 47.6008L34.1335 54.3954H30.2128L35.0661 45.9164C35.6561 46.9251 36.7505 47.6008 38.0067 47.6008H38.0162Z" fill="black"/>
<path d="M34.1335 54.3954L32.6775 56.9363L29.7274 55.2519L30.2128 54.3954H34.1335Z" fill="black"/>
<path d="M24.4078 54.3954H21.001V56.0988H24.4078V54.3954Z" fill="black"/>
<path d="M19.3071 74.7985H17.6036V78.1958H19.3071V74.7985Z" fill="black"/>
</g>
<defs>
<linearGradient id="paint0_linear_370_1163" x1="24.4078" y1="44.194" x2="68.6017" y2="44.194" gradientUnits="userSpaceOnUse">
<stop offset="0.04" stop-color="#649173"/>
<stop offset="0.15" stop-color="#799D7C"/>
<stop offset="0.4" stop-color="#A6B78E"/>
<stop offset="0.53" stop-color="#B8C196"/>
<stop offset="0.68" stop-color="#BCC190"/>
<stop offset="0.86" stop-color="#C8C480"/>
<stop offset="1" stop-color="#D6C76F"/>
</linearGradient>
<linearGradient id="paint1_linear_370_1163" x1="36.3032" y1="15.2928" x2="56.7063" y2="15.2928" gradientUnits="userSpaceOnUse">
<stop offset="0.04" stop-color="#649173"/>
<stop offset="0.15" stop-color="#799D7C"/>
<stop offset="0.4" stop-color="#A6B78E"/>
<stop offset="0.53" stop-color="#B8C196"/>
<stop offset="0.68" stop-color="#BCC190"/>
<stop offset="0.86" stop-color="#C8C480"/>
<stop offset="1" stop-color="#D6C76F"/>
</linearGradient>
<clipPath id="clip0_370_1163">
<rect width="91.8042" height="85" fill="white" transform="translate(0.5979)"/>
</clipPath>
</defs>
</svg>
