<svg width="50" height="30" viewBox="0 0 50 30" fill="none" xmlns="http://www.w3.org/2000/svg">
<path d="M48.6573 9.39705V20.6088C44.3229 20.9208 40.8496 24.3942 40.5375 28.7286H9.46254C9.15046 24.3942 5.67714 20.9208 1.34271 20.6088V9.8247C5.82162 9.50107 9.37584 5.80814 9.48565 1.27722H40.5433C40.8553 5.61165 44.3287 9.08497 48.6631 9.39705H48.6573ZM35.8043 15.0029C35.8043 9.04451 30.9555 4.19574 24.9971 4.19574C19.0387 4.19574 14.1899 9.04451 14.1899 15.0029C14.1899 20.9613 19.0387 25.8101 24.9971 25.8101C30.9555 25.8101 35.8043 20.9613 35.8043 15.0029Z" fill="white"/>
<path d="M49.9287 0.855333V29.1447C49.9287 29.6186 49.5473 30 49.0734 30H0.926613C0.452716 30 0.0712891 29.6186 0.0712891 29.1447V0.855333C0.0712891 0.381436 0.452716 0 0.926613 0H49.0734C49.5473 0 49.9287 0.381436 49.9287 0.855333ZM48.6573 28.7286V21.8802C45.0222 22.1865 42.1152 25.0934 41.8089 28.7286H48.6573ZM48.6573 20.6087V9.39704C44.3229 9.08496 40.8496 5.61164 40.5375 1.27721H9.47988C9.37585 5.81391 5.81585 9.50684 1.33694 9.8247V20.6087C5.67137 20.9208 9.14468 24.3941 9.45676 28.7286H40.5317C40.8438 24.3941 44.3171 20.9208 48.6515 20.6087H48.6573ZM48.6573 8.11982V1.27143H41.8089C42.1152 4.90657 45.0222 7.81352 48.6573 8.11982ZM8.20845 1.27143H1.33694V8.54749C5.11656 8.22963 8.10442 5.10306 8.20845 1.27143ZM1.33694 28.7286H8.18533C7.87903 25.0934 4.97208 22.1865 1.33694 21.8802V28.7286Z" fill="black"/>
<path d="M48.6573 21.8801V28.7285H41.8089C42.1152 25.0934 45.0221 22.1864 48.6573 21.8801Z" fill="url(#paint0_linear_301_1495)"/>
<path d="M48.6573 1.27148V8.11988C45.0221 7.81358 42.1152 4.90662 41.8089 1.27148H48.6573Z" fill="url(#paint1_linear_301_1495)"/>
<path d="M24.9971 4.19568C30.9555 4.19568 35.8043 9.04445 35.8043 15.0028C35.8043 20.9612 30.9555 25.81 24.9971 25.81C19.0387 25.81 14.1899 20.9612 14.1899 15.0028C14.1899 9.04445 19.0387 4.19568 24.9971 4.19568ZM34.5328 15.0028C34.5328 9.74374 30.2562 5.46711 24.9971 5.46711C19.738 5.46711 15.4614 9.74374 15.4614 15.0028C15.4614 20.2619 19.738 24.5386 24.9971 24.5386C30.2562 24.5386 34.5328 20.2619 34.5328 15.0028Z" fill="black"/>
<path d="M24.9971 5.46716C30.2562 5.46716 34.5328 9.7438 34.5328 15.0029C34.5328 20.262 30.2562 24.5386 24.9971 24.5386C19.738 24.5386 15.4614 20.262 15.4614 15.0029C15.4614 9.7438 19.738 5.46716 24.9971 5.46716ZM28.6033 17.4071C28.7305 16.1703 27.9329 14.581 25.2572 14.1533C24.9104 14.1013 23.1766 13.7777 23.1882 12.8241C23.1998 11.6278 24.344 11.3389 24.6908 11.2753C25.7137 11.0961 26.962 11.5007 27.3839 12.6219C27.4417 12.7837 27.5631 12.905 27.7133 12.9802C27.8694 13.0495 28.0427 13.0553 28.1988 12.9975C28.3548 12.9397 28.482 12.8183 28.5513 12.6681C28.6207 12.512 28.6265 12.3387 28.5687 12.1826C28.0948 10.9228 26.9909 10.2292 25.8351 10.0328V8.41457C25.8351 8.06203 25.5519 7.77886 25.1994 7.77886C24.8468 7.77886 24.5637 8.06203 24.5637 8.41457V10.0154C24.529 10.0154 24.5001 10.0212 24.4654 10.027C22.9281 10.2928 21.9283 11.3909 21.911 12.8126C21.8936 14.1302 23.0668 15.1011 25.0491 15.4132C26.8465 15.6964 27.407 16.5633 27.3319 17.2799C27.251 18.0601 26.4246 18.8287 25.182 18.7652C23.0322 18.6611 22.6392 17.2163 22.6276 17.1643C22.564 16.8176 22.2288 16.5922 21.8879 16.6615C21.7203 16.6904 21.5758 16.7887 21.4833 16.9274C21.3909 17.0661 21.3562 17.2337 21.3851 17.4013C21.5064 18.037 22.3155 19.6436 24.5752 19.9788V21.5912C24.5752 21.9438 24.8584 22.2269 25.2109 22.2269C25.5635 22.2269 25.8466 21.9438 25.8466 21.5912V20.0019C27.4879 19.7881 28.4878 18.5687 28.6091 17.4071H28.6033Z" fill="url(#paint2_linear_301_1495)"/>
<path d="M25.2572 14.1533C27.933 14.5752 28.7305 16.1703 28.6034 17.407C28.482 18.5686 27.488 19.7938 25.8409 20.0019V21.5912C25.8409 21.9437 25.5577 22.2269 25.2052 22.2269C24.8526 22.2269 24.5695 21.9437 24.5695 21.5912V19.9788C22.3098 19.6436 21.5007 18.0427 21.3793 17.4012C21.3504 17.2336 21.3793 17.066 21.4776 16.9273C21.5758 16.7886 21.7203 16.6904 21.8821 16.6615C22.2289 16.5979 22.5583 16.8233 22.6219 17.1643C22.6334 17.2105 23.0322 18.6553 25.1763 18.7651C26.4246 18.8287 27.2452 18.0543 27.3261 17.2799C27.4013 16.5632 26.8407 15.6964 25.0433 15.4132C23.0611 15.1011 21.8879 14.1302 21.9052 12.8125C21.9226 11.3908 22.9281 10.2986 24.4596 10.0269C24.4885 10.0269 24.5232 10.0211 24.5579 10.0154V8.41452C24.5579 8.06199 24.8411 7.77881 25.1936 7.77881C25.5461 7.77881 25.8293 8.06199 25.8293 8.41452V10.0327C26.9852 10.2292 28.089 10.9169 28.5629 12.1826C28.6207 12.3444 28.6149 12.512 28.5456 12.668C28.4762 12.8241 28.3491 12.9397 28.193 12.9975C28.0312 13.0552 27.8636 13.0495 27.7076 12.9801C27.5515 12.9108 27.436 12.7836 27.3782 12.6218C26.9563 11.5006 25.708 11.0961 24.685 11.2752C24.3325 11.3388 23.194 11.6278 23.1824 12.8241C23.1709 13.7776 24.9046 14.1013 25.2514 14.1533H25.2572Z" fill="black"/>
<path d="M1.33691 1.27148H8.20842C8.1044 5.10312 5.11653 8.22969 1.33691 8.54754V1.27148Z" fill="url(#paint3_linear_301_1495)"/>
<path d="M8.1853 28.7285H1.33691V21.8801C4.97205 22.1864 7.879 25.0934 8.1853 28.7285Z" fill="url(#paint4_linear_301_1495)"/>
<defs>
<linearGradient id="paint0_linear_301_1495" x1="41.8089" y1="25.3072" x2="48.6573" y2="25.3072" gradientUnits="userSpaceOnUse">
<stop offset="0.04" stop-color="#649173"/>
<stop offset="0.15" stop-color="#799D7C"/>
<stop offset="0.4" stop-color="#A6B78E"/>
<stop offset="0.53" stop-color="#B8C196"/>
<stop offset="0.68" stop-color="#BCC190"/>
<stop offset="0.86" stop-color="#C8C480"/>
<stop offset="1" stop-color="#D6C76F"/>
</linearGradient>
<linearGradient id="paint1_linear_301_1495" x1="41.8089" y1="4.69857" x2="48.6573" y2="4.69857" gradientUnits="userSpaceOnUse">
<stop offset="0.04" stop-color="#649173"/>
<stop offset="0.15" stop-color="#799D7C"/>
<stop offset="0.4" stop-color="#A6B78E"/>
<stop offset="0.53" stop-color="#B8C196"/>
<stop offset="0.68" stop-color="#BCC190"/>
<stop offset="0.86" stop-color="#C8C480"/>
<stop offset="1" stop-color="#D6C76F"/>
</linearGradient>
<linearGradient id="paint2_linear_301_1495" x1="15.4614" y1="15.0029" x2="34.5328" y2="15.0029" gradientUnits="userSpaceOnUse">
<stop offset="0.04" stop-color="#649173"/>
<stop offset="0.15" stop-color="#799D7C"/>
<stop offset="0.4" stop-color="#A6B78E"/>
<stop offset="0.53" stop-color="#B8C196"/>
<stop offset="0.68" stop-color="#BCC190"/>
<stop offset="0.86" stop-color="#C8C480"/>
<stop offset="1" stop-color="#D6C76F"/>
</linearGradient>
<linearGradient id="paint3_linear_301_1495" x1="1.33691" y1="4.9124" x2="8.20842" y2="4.9124" gradientUnits="userSpaceOnUse">
<stop offset="0.04" stop-color="#649173"/>
<stop offset="0.15" stop-color="#799D7C"/>
<stop offset="0.4" stop-color="#A6B78E"/>
<stop offset="0.53" stop-color="#B8C196"/>
<stop offset="0.68" stop-color="#BCC190"/>
<stop offset="0.86" stop-color="#C8C480"/>
<stop offset="1" stop-color="#D6C76F"/>
</linearGradient>
<linearGradient id="paint4_linear_301_1495" x1="1.33691" y1="25.3072" x2="8.1853" y2="25.3072" gradientUnits="userSpaceOnUse">
<stop offset="0.04" stop-color="#649173"/>
<stop offset="0.15" stop-color="#799D7C"/>
<stop offset="0.4" stop-color="#A6B78E"/>
<stop offset="0.53" stop-color="#B8C196"/>
<stop offset="0.68" stop-color="#BCC190"/>
<stop offset="0.86" stop-color="#C8C480"/>
<stop offset="1" stop-color="#D6C76F"/>
</linearGradient>
</defs>
</svg>
